{"glyphs":{"0":{"ha":219,"x_min":0,"x_max":203,"o":"m 157 972 q 190 959 176 972 q 203 926 203 946 l 203 46 q 190 13 203 26 q 157 0 176 0 l 46 0 q 13 13 26 0 q 0 46 0 26 l 0 926 q 13 959 0 946 q 46 972 26 972 l 157 972 m 110 879 l 93 879 l 93 93 l 110 93 l 110 879 z "},"1":{"ha":165,"x_min":0,"x_max":149,"o":"m 149 0 l 56 0 l 56 879 l 0 879 l 0 972 l 149 972 l 149 0 l 149 0 z "},"2":{"ha":219,"x_min":0,"x_max":203,"o":"m 203 0 l 0 0 l 0 486 q 14 519 0 506 q 47 532 28 532 l 110 532 l 110 879 l 93 879 l 93 549 l 0 549 l 0 925 q 14 958 0 944 q 47 972 28 972 l 157 972 q 190 958 176 972 q 203 925 203 944 l 203 486 q 190 453 203 467 q 157 439 176 439 l 93 439 l 93 93 l 110 93 l 110 422 l 203 422 l 203 0 z "},"3":{"ha":219,"x_min":0,"x_max":203,"o":"m 157 972 q 190 959 176 972 q 203 926 203 946 l 203 533 l 203 440 l 203 46 q 190 13 203 26 q 157 0 176 0 l 46 0 q 13 13 26 0 q 0 46 0 26 l 0 422 l 93 422 l 93 93 l 110 93 l 110 440 l 0 440 l 0 533 l 110 533 l 110 879 l 93 879 l 93 550 l 0 550 l 0 926 q 13 959 0 946 q 46 972 26 972 l 157 972 l 157 972 z "},"4":{"ha":219,"x_min":0,"x_max":203,"o":"m 203 0 l 110 0 l 110 439 l 0 439 l 0 972 l 93 972 l 93 532 l 110 532 l 110 972 l 203 972 l 203 0 l 203 0 z "},"5":{"ha":219,"x_min":0,"x_max":203,"o":"m 157 0 l 47 0 q 14 13 28 0 q 0 46 0 26 l 0 422 l 93 422 l 93 93 l 110 93 l 110 439 l 47 439 q 14 453 28 439 q 0 486 0 467 l 0 972 l 203 972 l 203 549 l 110 549 l 110 879 l 93 879 l 93 532 l 157 532 q 190 519 176 532 q 203 486 203 506 l 203 46 q 190 13 203 26 q 157 0 176 0 z "},"6":{"ha":219,"x_min":0,"x_max":203,"o":"m 157 972 q 190 959 176 972 q 203 926 203 946 l 203 550 l 110 550 l 110 879 l 93 879 l 93 533 l 157 533 q 190 519 176 533 q 203 486 203 506 l 203 46 q 190 13 203 26 q 157 0 176 0 l 46 0 q 13 13 26 0 q 0 46 0 26 l 0 926 q 13 959 0 946 q 46 972 26 972 l 157 972 m 93 440 l 93 93 l 110 93 l 110 440 l 93 440 z "},"7":{"ha":219,"x_min":0,"x_max":203,"o":"m 203 0 l 110 0 l 110 439 l 0 439 l 0 532 l 110 532 l 110 879 l 93 879 l 93 549 l 0 549 l 0 972 l 203 972 l 203 0 l 203 0 z "},"8":{"ha":219,"x_min":0,"x_max":203,"o":"m 157 972 q 190 959 176 972 q 203 926 203 946 l 203 542 q 189 508 203 521 l 167 486 l 189 464 q 203 431 203 451 l 203 46 q 190 13 203 26 q 157 0 176 0 l 46 0 q 13 13 26 0 q 0 46 0 26 l 0 431 q 14 464 0 450 l 36 486 l 14 508 q 0 542 0 522 l 0 926 q 13 959 0 946 q 46 972 26 972 l 157 972 m 93 560 l 101 551 l 110 560 l 110 879 l 93 879 l 93 560 m 110 413 l 101 421 l 93 413 l 93 93 l 110 93 l 110 413 z "},"9":{"ha":219,"x_min":0,"x_max":203,"o":"m 157 972 q 190 959 176 972 q 203 926 203 946 l 203 46 q 190 13 203 26 q 157 0 176 0 l 46 0 q 13 13 26 0 q 0 46 0 26 l 0 422 l 93 422 l 93 93 l 110 93 l 110 440 l 46 440 q 13 453 26 440 q 0 486 0 467 l 0 926 q 13 959 0 946 q 46 972 26 972 l 157 972 m 110 879 l 93 879 l 93 533 l 110 533 l 110 879 z "},"D":{"ha":219,"x_min":0,"x_max":203,"o":"m 157 972 q 190 958 176 972 q 203 925 203 944 l 203 47 q 190 14 203 28 q 157 0 176 0 l 0 0 l 0 972 l 157 972 m 110 93 l 110 879 l 93 879 l 93 93 l 110 93 z "},"E":{"ha":219,"x_min":0,"x_max":203,"o":"m 203 0 l 0 0 l 0 972 l 203 972 l 203 550 l 110 550 l 110 879 l 93 879 l 93 533 l 203 533 l 203 440 l 93 440 l 93 93 l 110 93 l 110 422 l 203 422 l 203 0 l 203 0 z "},"F":{"ha":219,"x_min":0,"x_max":203,"o":"m 93 0 l 0 0 l 0 972 l 203 972 l 203 550 l 110 550 l 110 879 l 93 879 l 93 533 l 203 533 l 203 440 l 93 440 l 93 0 l 93 0 z "},"G":{"ha":275,"x_min":0,"x_max":258,"o":"m 203 0 l 47 0 q 14 14 28 0 q 0 47 0 28 l 0 926 q 14 959 0 946 q 47 972 28 972 l 157 972 q 190 959 176 972 q 203 926 203 946 l 203 494 l 110 494 l 110 879 l 93 879 l 93 93 l 110 93 l 110 478 l 258 478 l 258 385 l 203 385 l 203 0 z "},"H":{"ha":219,"x_min":0,"x_max":203,"o":"m 93 439 l 93 0 l 0 0 l 0 439 l 0 532 l 0 972 l 93 972 l 93 532 l 110 532 l 110 972 l 203 972 l 203 532 l 203 439 l 203 0 l 110 0 l 110 439 l 93 439 l 93 439 z "},"I":{"ha":110,"x_min":0,"x_max":93,"o":"m 0 972 l 93 972 l 93 0 l 0 0 l 0 972 z "},"J":{"ha":219,"x_min":0,"x_max":203,"o":"m 157 0 l 47 0 q 14 14 28 0 q 0 47 0 28 l 0 478 l 93 478 l 93 93 l 110 93 l 110 879 l 93 879 l 93 769 l 0 769 l 0 972 l 203 972 l 203 47 q 190 14 203 28 q 157 0 176 0 z "},"K":{"ha":219,"x_min":0,"x_max":203,"o":"m 93 0 l 0 0 l 0 385 l 0 478 l 0 494 l 0 588 l 0 972 l 93 972 l 93 588 l 110 588 l 110 972 l 203 972 l 203 542 q 190 508 203 522 q 157 494 176 494 l 93 494 l 93 478 l 157 478 q 190 464 176 478 q 203 431 203 450 l 203 0 l 110 0 l 110 385 l 93 385 l 93 0 z "},"L":{"ha":219,"x_min":0,"x_max":203,"o":"m 203 0 l 0 0 l 0 972 l 93 972 l 93 93 l 110 93 l 110 478 l 203 478 l 203 0 l 203 0 z "},"M":{"ha":329,"x_min":0,"x_max":313,"o":"m 313 0 l 219 0 l 219 879 l 203 879 l 203 0 l 110 0 l 110 879 l 93 879 l 93 0 l 0 0 l 0 972 l 267 972 q 299 959 286 972 q 313 926 313 946 l 313 0 z "},"N":{"ha":329,"x_min":0,"x_max":313,"o":"m 313 0 l 157 0 q 124 14 138 0 q 110 47 110 28 l 110 879 l 93 879 l 93 0 l 0 0 l 0 972 l 157 972 q 190 959 176 972 q 203 926 203 946 l 203 93 l 219 93 l 219 972 l 313 972 l 313 0 z "},"O":{"ha":219,"x_min":0,"x_max":203,"o":"m 46 0 q 13 13 26 0 q 0 46 0 26 l 0 926 q 13 959 0 946 q 46 972 26 972 l 157 972 q 190 959 176 972 q 203 926 203 946 l 203 46 q 190 13 203 26 q 157 0 176 0 l 46 0 m 93 93 l 110 93 l 110 879 l 93 879 l 93 93 z "},"P":{"ha":219,"x_min":0,"x_max":203,"o":"m 93 0 l 0 0 l 0 972 l 157 972 q 190 959 176 972 q 203 926 203 946 l 203 486 q 190 453 203 467 q 157 440 176 440 l 93 440 l 93 0 m 93 533 l 110 533 l 110 879 l 93 879 l 93 533 z "},"Q":{"ha":275,"x_min":0,"x_max":258,"o":"m 46 0 q 13 13 26 0 q 0 46 0 26 l 0 926 q 13 959 0 946 q 46 972 26 972 l 157 972 q 190 959 176 972 q 203 926 203 946 l 203 93 l 258 93 l 258 0 l 46 0 m 93 93 l 110 93 l 110 879 l 93 879 l 93 93 z "},"R":{"ha":219,"x_min":0,"x_max":203,"o":"m 203 0 l 110 0 l 110 385 l 93 385 l 93 0 l 0 0 l 0 972 l 157 972 q 190 959 176 972 q 203 926 203 946 l 203 542 q 190 508 203 522 q 157 494 176 494 l 93 494 l 93 478 l 157 478 q 190 464 176 478 q 203 431 203 450 l 203 0 m 93 588 l 110 588 l 110 879 l 93 879 l 93 588 z "},"S":{"ha":219,"x_min":0,"x_max":203,"o":"m 46 0 q 13 13 26 0 q 0 46 0 26 l 0 422 l 93 422 l 93 93 l 110 93 l 110 440 l 46 440 q 13 453 26 440 q 0 486 0 467 l 0 926 q 13 959 0 946 q 46 972 26 972 l 157 972 q 190 959 176 972 q 203 926 203 946 l 203 550 l 110 550 l 110 879 l 93 879 l 93 533 l 157 533 q 190 519 176 533 q 203 486 203 506 l 203 46 q 190 13 203 26 q 157 0 176 0 l 46 0 l 46 0 z "},"T":{"ha":329,"x_min":0,"x_max":313,"o":"m 203 0 l 110 0 l 110 879 l 93 879 l 93 494 l 0 494 l 0 972 l 313 972 l 313 494 l 219 494 l 219 879 l 203 879 l 203 0 l 203 0 z "},"U":{"ha":219,"x_min":0,"x_max":203,"o":"m 46 0 q 13 13 26 0 q 0 46 0 26 l 0 972 l 93 972 l 93 93 l 110 93 l 110 972 l 203 972 l 203 46 q 190 13 203 26 q 157 0 176 0 l 46 0 l 46 0 z "},"V":{"ha":219,"x_min":0,"x_max":203,"o":"m 203 0 l 72 0 l 0 144 l 0 972 l 93 972 l 93 167 l 110 93 l 110 972 l 203 972 l 203 0 l 203 0 z "},"W":{"ha":329,"x_min":0,"x_max":313,"o":"m 46 0 q 13 14 26 0 q 0 47 0 28 l 0 972 l 93 972 l 93 93 l 110 93 l 110 972 l 203 972 l 203 93 l 219 93 l 219 972 l 313 972 l 313 0 l 46 0 z "},"X":{"ha":219,"x_min":0,"x_max":203,"o":"m 110 972 l 203 972 l 203 542 q 190 508 203 522 q 157 494 176 494 l 149 494 l 149 478 l 157 478 q 190 464 176 478 q 203 431 203 450 l 203 0 l 110 0 l 110 385 l 93 385 l 93 0 l 0 0 l 0 431 q 13 464 0 450 q 46 478 26 478 l 56 478 l 56 494 l 46 494 q 13 508 26 494 q 0 542 0 522 l 0 972 l 93 972 l 93 588 l 110 588 l 110 972 z "},"Y":{"ha":219,"x_min":0,"x_max":203,"o":"m 110 972 l 203 972 l 203 486 q 190 453 203 467 q 157 440 176 440 l 149 440 l 149 0 l 56 0 l 56 440 l 46 440 q 13 453 26 440 q 0 486 0 467 l 0 972 l 93 972 l 93 533 l 110 533 l 110 972 z "},"Z":{"ha":219,"x_min":0,"x_max":203,"o":"m 203 0 l 0 0 l 0 431 q 14 464 0 450 l 110 560 l 110 879 l 93 879 l 93 604 l 0 604 l 0 972 l 203 972 l 203 542 q 189 508 203 521 l 93 411 l 93 93 l 110 93 l 110 368 l 203 368 l 203 0 z "},"A":{"ha":219,"x_min":0,"x_max":203,"o":"m 157 972 q 190 958 176 972 q 203 925 203 944 l 203 532 l 203 439 l 203 0 l 110 0 l 110 439 l 93 439 l 93 0 l 0 0 l 0 439 l 0 532 l 0 925 q 13 958 0 944 q 46 972 26 972 l 157 972 m 110 532 l 110 879 l 93 879 l 93 532 l 110 532 z "},"a":{"ha":219,"x_min":0,"x_max":203,"o":"m 203 0 l 46 0 q 13 13 26 0 q 0 46 0 26 l 0 376 q 13 409 0 396 q 46 422 26 422 l 110 422 l 110 660 l 93 660 l 93 439 l 0 439 l 0 706 q 13 739 0 725 q 46 753 26 753 l 157 753 q 190 739 176 753 q 203 706 203 725 l 203 0 m 93 93 l 110 93 l 110 329 l 93 329 l 93 93 z "},"b":{"ha":219,"x_min":0,"x_max":203,"o":"m 157 0 l 0 0 l 0 972 l 93 972 l 93 753 l 157 753 q 190 739 176 753 q 203 706 203 725 l 203 46 q 190 13 203 26 q 157 0 176 0 m 93 93 l 110 93 l 110 660 l 93 660 l 93 93 z "},"d":{"ha":219,"x_min":0,"x_max":203,"o":"m 46 0 q 13 13 26 0 q 0 46 0 26 l 0 706 q 13 739 0 725 q 46 753 26 753 l 110 753 l 110 972 l 203 972 l 203 0 l 46 0 m 110 660 l 93 660 l 93 93 l 110 93 l 110 660 z "},"e":{"ha":219,"x_min":0,"x_max":203,"o":"m 157 0 l 46 0 q 13 13 26 0 q 0 46 0 26 l 0 706 q 13 739 0 725 q 46 753 26 753 l 157 753 q 190 739 176 753 q 203 706 203 725 l 203 329 l 93 329 l 93 93 l 110 93 l 110 313 l 203 313 l 203 46 q 190 13 203 26 q 157 0 176 0 m 93 422 l 110 422 l 110 660 l 93 660 l 93 422 z "},"f":{"ha":219,"x_min":0,"x_max":203,"o":"m 93 550 l 93 0 l 0 0 l 0 550 l 0 643 l 0 926 q 13 959 0 946 q 46 972 26 972 l 157 972 q 190 959 176 972 q 203 926 203 946 l 203 660 l 110 660 l 110 879 l 93 879 l 93 643 l 203 643 l 203 550 l 93 550 z "},"g":{"ha":219,"x_min":0,"x_max":203,"o":"m 157 -219 l 46 -219 q 13 -206 26 -219 q 0 -174 0 -193 l 0 -17 l 93 -17 l 93 -126 l 110 -126 l 110 0 l 46 0 q 13 13 26 0 q 0 46 0 26 l 0 706 q 13 739 0 725 q 46 753 26 753 l 203 753 l 203 -174 q 190 -206 203 -193 q 157 -219 176 -219 m 93 93 l 110 93 l 110 660 l 93 660 l 93 93 z "},"h":{"ha":219,"x_min":0,"x_max":203,"o":"m 203 0 l 110 0 l 110 660 l 93 660 l 93 0 l 0 0 l 0 972 l 93 972 l 93 753 l 157 753 q 190 739 176 753 q 203 706 203 725 l 203 0 z "},"i":{"ha":110,"x_min":0,"x_max":93,"o":"m 0 0 l 0 753 l 93 753 l 93 0 l 0 0 m 93 972 l 93 769 l 0 769 l 0 972 l 93 972 z "},"j":{"ha":110,"x_min":-110,"x_max":93,"o":"m 93 -172 q 80 -206 93 -192 q 47 -219 67 -219 l -64 -219 q -97 -206 -83 -219 q -110 -172 -110 -192 l -110 -17 l -17 -17 l -17 -126 l 0 -126 l 0 753 l 93 753 l 93 -172 m 0 972 l 93 972 l 93 771 l 0 771 l 0 972 z "},"k":{"ha":219,"x_min":0,"x_max":203,"o":"m 203 0 l 110 0 l 110 275 l 93 275 l 93 0 l 0 0 l 0 972 l 93 972 l 93 478 l 110 478 l 110 753 l 203 753 l 203 431 q 190 398 203 411 q 157 385 176 385 l 93 385 l 93 368 l 157 368 q 190 354 176 368 q 203 321 203 340 l 203 0 z "},"l":{"ha":110,"x_min":0,"x_max":93,"o":"m 0 0 l 0 972 l 93 972 l 93 0 l 0 0 l 0 0 z "},"m":{"ha":329,"x_min":0,"x_max":313,"o":"m 313 0 l 219 0 l 219 660 l 203 660 l 203 0 l 110 0 l 110 660 l 93 660 l 93 0 l 0 0 l 0 753 l 267 753 q 299 740 286 753 q 313 707 313 726 l 313 0 z "},"n":{"ha":219,"x_min":0,"x_max":203,"o":"m 203 0 l 110 0 l 110 660 l 93 660 l 93 0 l 0 0 l 0 753 l 157 753 q 190 740 176 753 q 203 707 203 726 l 203 0 z "},"o":{"ha":219,"x_min":0,"x_max":203,"o":"m 203 46 q 189 13 203 26 q 156 0 175 0 l 46 0 q 13 13 26 0 q 0 46 0 26 l 0 706 q 13 739 0 725 q 46 753 26 753 l 156 753 q 189 739 175 753 q 203 706 203 725 l 203 46 m 110 660 l 93 660 l 93 93 l 110 93 l 110 660 z "},"p":{"ha":219,"x_min":0,"x_max":203,"o":"m 93 -219 l 0 -219 l 0 753 l 157 753 q 190 739 176 753 q 203 706 203 725 l 203 46 q 190 13 203 26 q 157 0 176 0 l 93 0 l 93 -219 m 93 93 l 110 93 l 110 660 l 93 660 l 93 93 z "},"q":{"ha":219,"x_min":0,"x_max":203,"o":"m 203 -219 l 110 -219 l 110 0 l 47 0 q 14 13 28 0 q 0 46 0 26 l 0 706 q 14 739 0 725 q 47 753 28 753 l 203 753 l 203 -219 m 93 93 l 110 93 l 110 660 l 93 660 l 93 93 z "},"r":{"ha":219,"x_min":0,"x_max":203,"o":"m 93 0 l 0 0 l 0 753 l 157 753 q 190 739 176 753 q 203 706 203 725 l 203 439 l 110 439 l 110 660 l 93 660 l 93 0 z "},"s":{"ha":219,"x_min":0,"x_max":203,"o":"m 157 0 l 46 0 q 13 13 26 0 q 0 46 0 26 l 0 313 l 93 313 l 93 93 l 110 93 l 110 329 l 46 329 q 13 343 26 329 q 0 376 0 357 l 0 706 q 13 739 0 725 q 46 753 26 753 l 157 753 q 190 739 176 753 q 203 706 203 725 l 203 439 l 110 439 l 110 660 l 93 660 l 93 422 l 157 422 q 190 409 176 422 q 203 376 203 396 l 203 46 q 190 13 203 26 q 157 0 176 0 z "},"t":{"ha":165,"x_min":0,"x_max":149,"o":"m 93 753 l 149 753 l 149 660 l 93 660 l 93 0 l 0 0 l 0 972 l 93 972 l 93 753 l 93 753 z "},"u":{"ha":219,"x_min":0,"x_max":203,"o":"m 110 753 l 203 753 l 203 46 q 189 13 203 26 q 156 0 175 0 l 46 0 q 13 13 26 0 q 0 46 0 26 l 0 753 l 93 753 l 93 93 l 110 93 l 110 753 z "},"v":{"ha":219,"x_min":0,"x_max":203,"o":"m 203 0 l 72 0 l 0 144 l 0 753 l 93 753 l 93 167 l 110 93 l 110 753 l 203 753 l 203 0 l 203 0 z "},"w":{"ha":329,"x_min":0,"x_max":313,"o":"m 46 0 q 13 13 26 0 q 0 46 0 26 l 0 753 l 93 753 l 93 93 l 110 93 l 110 753 l 203 753 l 203 93 l 219 93 l 219 753 l 313 753 l 313 0 l 46 0 z "},"x":{"ha":219,"x_min":0,"x_max":203,"o":"m 203 0 l 110 0 l 110 275 l 93 275 l 93 0 l 0 0 l 0 321 q 13 354 0 340 q 46 368 26 368 l 56 368 l 56 385 l 46 385 q 13 398 26 385 q 0 431 0 411 l 0 753 l 93 753 l 93 478 l 110 478 l 110 753 l 203 753 l 203 431 q 190 398 203 411 q 157 385 176 385 l 149 385 l 149 368 l 157 368 q 190 354 176 368 q 203 321 203 340 l 203 0 z "},"y":{"ha":219,"x_min":0,"x_max":203,"o":"m 110 753 l 203 753 l 203 -174 q 189 -206 203 -193 q 156 -219 175 -219 l 46 -219 q 13 -206 26 -219 q 0 -174 0 -193 l 0 -17 l 93 -17 l 93 -126 l 110 -126 l 110 0 l 46 0 q 13 13 26 0 q 0 46 0 26 l 0 753 l 93 753 l 93 93 l 110 93 l 110 753 z "},"z":{"ha":219,"x_min":0,"x_max":203,"o":"m 203 0 l 0 0 l 0 321 q 14 354 0 342 l 110 450 l 110 660 l 93 660 l 93 494 l 0 494 l 0 753 l 203 753 l 203 431 q 189 399 203 411 l 93 301 l 93 93 l 110 93 l 110 258 l 203 258 l 203 0 z "},"?":{"ha":219,"x_min":0,"x_max":203,"o":"m 157 972 q 190 959 176 972 q 203 926 203 946 l 203 486 q 190 453 203 467 q 157 440 176 440 l 93 440 l 93 219 l 0 219 l 0 486 q 13 519 0 506 q 46 533 26 533 l 110 533 l 110 879 l 93 879 l 93 550 l 0 550 l 0 926 q 13 959 0 946 q 46 972 26 972 l 157 972 m 0 203 l 93 203 l 93 0 l 0 0 l 0 203 z "},".":{"ha":110,"x_min":0,"x_max":93,"o":"m 0 0 l 0 203 l 93 203 l 93 0 l 0 0 l 0 0 z "},"!":{"ha":110,"x_min":0,"x_max":93,"o":"m 0 0 l 0 203 l 93 203 l 93 0 l 0 0 m 0 219 l 0 972 l 93 972 l 93 219 l 0 219 z "},"\"":{"ha":219,"x_min":0,"x_max":203,"o":"m 0 769 l 0 972 l 93 972 l 93 769 l 0 769 m 110 769 l 110 972 l 203 972 l 203 769 l 110 769 z "},"'":{"ha":110,"x_min":0,"x_max":93,"o":"m 0 769 l 0 972 l 93 972 l 93 769 l 0 769 l 0 769 z "},"-":{"ha":219,"x_min":0,"x_max":203,"o":"m 0 331 l 0 424 l 203 424 l 203 331 l 0 331 l 0 331 z "},"–":{"ha":329,"x_min":0,"x_max":313,"o":"m 0 331 l 0 424 l 313 424 l 313 331 l 0 331 l 0 331 z "},"c":{"ha":219,"x_min":0,"x_max":203,"o":"m 157 0 l 46 0 q 13 13 26 0 q 0 46 0 26 l 0 706 q 13 739 0 725 q 46 753 26 753 l 157 753 q 190 739 176 753 q 203 706 203 725 l 203 385 l 110 385 l 110 660 l 93 660 l 93 93 l 110 93 l 110 368 l 203 368 l 203 46 q 190 13 203 26 q 157 0 176 0 z "},"—":{"ha":439,"x_min":0,"x_max":422,"o":"m 0 331 l 0 424 l 422 424 l 422 331 l 0 331 l 0 331 z "},"(":{"ha":165,"x_min":0,"x_max":149,"o":"m 0 926 q 13 959 0 946 q 46 972 26 972 l 149 972 l 149 879 l 93 879 l 93 93 l 149 93 l 149 0 l 46 0 q 13 13 26 0 q 0 46 0 26 l 0 926 l 0 926 z "},")":{"ha":165,"x_min":0,"x_max":149,"o":"m 103 972 q 135 959 122 972 q 149 926 149 946 l 149 46 q 135 13 149 26 q 103 0 122 0 l 0 0 l 0 93 l 56 93 l 56 879 l 0 879 l 0 972 l 103 972 l 103 972 z "},"/":{"ha":219,"x_min":0,"x_max":203,"o":"m 203 972 l 203 706 q 201 694 203 699 l 93 261 l 93 0 l 0 0 l 0 267 q 1 278 0 274 l 110 711 l 110 972 l 203 972 z "},"[":{"ha":219,"x_min":0,"x_max":203,"o":"m 203 0 l 0 0 l 0 972 l 203 972 l 203 879 l 93 879 l 93 93 l 203 93 l 203 0 l 203 0 z "},"]":{"ha":219,"x_min":0,"x_max":203,"o":"m 203 0 l 0 0 l 0 93 l 110 93 l 110 879 l 0 879 l 0 972 l 203 972 l 203 0 l 203 0 z "},"_":{"ha":219,"x_min":0,"x_max":203,"o":"m 203 -110 l 0 -110 l 0 -17 l 203 -17 l 203 -110 l 203 -110 z "},"$":{"ha":329,"x_min":0,"x_max":313,"o":"m 267 863 q 299 849 286 863 q 313 815 313 835 l 313 550 l 219 550 l 219 769 l 203 769 l 203 533 l 267 533 q 299 519 286 533 q 313 486 313 506 l 313 157 q 299 124 313 138 q 267 110 286 110 l 203 110 l 203 0 l 110 0 l 110 110 l 46 110 q 13 124 26 110 q 0 157 0 138 l 0 422 l 93 422 l 93 203 l 110 203 l 110 440 l 46 440 q 13 453 26 440 q 0 486 0 467 l 0 815 q 13 849 0 835 q 46 863 26 863 l 110 863 l 110 972 l 203 972 l 203 863 l 267 863 m 203 440 l 203 203 l 219 203 l 219 440 l 203 440 m 110 769 l 93 769 l 93 533 l 110 533 l 110 769 z "},"\\":{"ha":219,"x_min":0,"x_max":203,"o":"m 93 972 l 93 711 l 201 278 q 203 267 203 274 l 203 0 l 110 0 l 110 261 l 1 694 q 0 706 0 699 l 0 972 l 93 972 z "},"{":{"ha":219,"x_min":0,"x_max":203,"o":"m 56 926 q 69 959 56 946 q 101 972 82 972 l 203 972 l 203 879 l 149 879 l 149 542 q 135 508 149 522 q 101 494 121 494 l 93 494 l 93 478 l 101 478 q 135 464 121 478 q 149 431 149 450 l 149 93 l 203 93 l 203 0 l 101 0 q 69 13 82 0 q 56 46 56 26 l 56 385 l 46 385 q 13 398 26 385 q 0 431 0 411 l 0 542 q 13 574 0 561 q 46 588 26 588 l 56 588 l 56 926 l 56 926 z "},"}":{"ha":219,"x_min":0,"x_max":203,"o":"m 149 926 l 149 588 l 157 588 q 190 574 176 588 q 203 542 203 561 l 203 431 q 190 398 203 411 q 157 385 176 385 l 149 385 l 149 46 q 135 13 149 26 q 101 0 121 0 l 0 0 l 0 93 l 56 93 l 56 431 q 69 464 56 450 q 101 478 82 478 l 110 478 l 110 494 l 101 494 q 69 508 82 494 q 56 542 56 522 l 56 879 l 0 879 l 0 972 l 101 972 q 135 959 121 972 q 149 926 149 946 z "},"|":{"ha":110,"x_min":0,"x_max":93,"o":"m 0 -110 l 0 1082 l 93 1082 l 93 -110 l 0 -110 l 0 -110 z "},"`":{"ha":219,"x_min":0,"x_max":203,"o":"m 203 769 l 46 769 q 13 783 26 769 q 0 815 0 796 l 0 972 l 93 972 l 93 863 l 203 863 l 203 769 z "},"à":{"ha":219,"x_min":0,"x_max":203,"o":"m 203 0 l 46 0 q 13 13 26 0 q 0 46 0 26 l 0 376 q 13 409 0 396 q 46 422 26 422 l 110 422 l 110 660 l 93 660 l 93 439 l 0 439 l 0 706 q 13 739 0 725 q 46 753 26 753 l 157 753 q 190 739 176 753 q 203 706 203 725 l 203 0 m 93 93 l 110 93 l 110 329 l 93 329 l 93 93 m 203 769 l 46 769 q 13 783 26 769 q 0 815 0 796 l 0 972 l 93 972 l 93 863 l 203 863 l 203 769 z "},"è":{"ha":219,"x_min":0,"x_max":203,"o":"m 157 0 l 46 0 q 13 13 26 0 q 0 46 0 26 l 0 706 q 13 739 0 725 q 46 753 26 753 l 157 753 q 190 739 176 753 q 203 706 203 725 l 203 329 l 93 329 l 93 93 l 110 93 l 110 313 l 203 313 l 203 46 q 190 13 203 26 q 157 0 176 0 m 93 422 l 110 422 l 110 660 l 93 660 l 93 422 m 203 769 l 46 769 q 13 783 26 769 q 0 815 0 796 l 0 972 l 93 972 l 93 863 l 203 863 l 203 769 z "},"ò":{"ha":219,"x_min":0,"x_max":203,"o":"m 203 46 q 189 13 203 26 q 156 0 175 0 l 46 0 q 13 13 26 0 q 0 46 0 26 l 0 706 q 13 739 0 725 q 46 753 26 753 l 156 753 q 189 739 175 753 q 203 706 203 725 l 203 46 m 110 660 l 93 660 l 93 93 l 110 93 l 110 660 m 203 769 l 46 769 q 13 783 26 769 q 0 815 0 796 l 0 972 l 93 972 l 93 863 l 203 863 l 203 769 z "},"ù":{"ha":219,"x_min":0,"x_max":203,"o":"m 110 753 l 203 753 l 203 46 q 189 13 203 26 q 156 0 175 0 l 46 0 q 13 13 26 0 q 0 46 0 26 l 0 753 l 93 753 l 93 93 l 110 93 l 110 753 m 203 769 l 46 769 q 13 783 26 769 q 0 815 0 796 l 0 972 l 93 972 l 93 863 l 203 863 l 203 769 z "},"´":{"ha":219,"x_min":0,"x_max":203,"o":"m 203 972 l 203 815 q 190 783 203 796 q 157 769 176 769 l 0 769 l 0 863 l 110 863 l 110 972 l 203 972 z "},"á":{"ha":219,"x_min":0,"x_max":203,"o":"m 203 0 l 46 0 q 13 13 26 0 q 0 46 0 26 l 0 376 q 13 409 0 396 q 46 422 26 422 l 110 422 l 110 660 l 93 660 l 93 439 l 0 439 l 0 706 q 13 739 0 725 q 46 753 26 753 l 157 753 q 190 739 176 753 q 203 706 203 725 l 203 0 m 93 93 l 110 93 l 110 329 l 93 329 l 93 93 m 203 972 l 203 815 q 190 783 203 796 q 157 769 176 769 l 0 769 l 0 863 l 110 863 l 110 972 l 203 972 z "},"é":{"ha":219,"x_min":0,"x_max":203,"o":"m 157 0 l 46 0 q 13 13 26 0 q 0 46 0 26 l 0 706 q 13 739 0 725 q 46 753 26 753 l 157 753 q 190 739 176 753 q 203 706 203 725 l 203 329 l 93 329 l 93 93 l 110 93 l 110 313 l 203 313 l 203 46 q 190 13 203 26 q 157 0 176 0 m 93 422 l 110 422 l 110 660 l 93 660 l 93 422 m 203 972 l 203 815 q 190 783 203 796 q 157 769 176 769 l 0 769 l 0 863 l 110 863 l 110 972 l 203 972 z "},"ó":{"ha":219,"x_min":0,"x_max":203,"o":"m 203 46 q 189 13 203 26 q 156 0 175 0 l 46 0 q 13 13 26 0 q 0 46 0 26 l 0 706 q 13 739 0 725 q 46 753 26 753 l 156 753 q 189 739 175 753 q 203 706 203 725 l 203 46 m 110 660 l 93 660 l 93 93 l 110 93 l 110 660 m 203 972 l 203 815 q 190 783 203 796 q 157 769 176 769 l 0 769 l 0 863 l 110 863 l 110 972 l 203 972 z "},"ú":{"ha":219,"x_min":0,"x_max":203,"o":"m 110 753 l 203 753 l 203 46 q 189 13 203 26 q 156 0 175 0 l 46 0 q 13 13 26 0 q 0 46 0 26 l 0 753 l 93 753 l 93 93 l 110 93 l 110 753 m 203 972 l 203 815 q 190 783 203 796 q 157 769 176 769 l 0 769 l 0 863 l 110 863 l 110 972 l 203 972 z "},"ˆ":{"ha":219,"x_min":0,"x_max":203,"o":"m 203 769 l 110 769 l 110 853 l 101 861 l 93 853 l 93 769 l 0 769 l 0 871 q 14 904 0 892 l 68 960 q 101 974 82 974 q 135 960 121 974 l 189 904 q 203 871 203 892 l 203 769 z "},"â":{"ha":219,"x_min":0,"x_max":203,"o":"m 203 0 l 46 0 q 13 13 26 0 q 0 46 0 26 l 0 376 q 13 409 0 396 q 46 422 26 422 l 110 422 l 110 660 l 93 660 l 93 439 l 0 439 l 0 706 q 13 739 0 725 q 46 753 26 753 l 157 753 q 190 739 176 753 q 203 706 203 725 l 203 0 m 93 93 l 110 93 l 110 329 l 93 329 l 93 93 m 203 769 l 110 769 l 110 853 l 101 861 l 93 853 l 93 769 l 0 769 l 0 871 q 14 904 0 892 l 68 960 q 101 974 82 974 q 135 960 121 974 l 189 904 q 203 871 203 892 l 203 769 z "},"ê":{"ha":219,"x_min":0,"x_max":203,"o":"m 157 0 l 46 0 q 13 13 26 0 q 0 46 0 26 l 0 706 q 13 739 0 725 q 46 753 26 753 l 157 753 q 190 739 176 753 q 203 706 203 725 l 203 329 l 93 329 l 93 93 l 110 93 l 110 313 l 203 313 l 203 46 q 190 13 203 26 q 157 0 176 0 m 93 422 l 110 422 l 110 660 l 93 660 l 93 422 m 203 769 l 110 769 l 110 853 l 101 861 l 93 853 l 93 769 l 0 769 l 0 871 q 14 904 0 892 l 68 960 q 101 974 82 974 q 135 960 121 974 l 189 904 q 203 871 203 892 l 203 769 z "},"ô":{"ha":219,"x_min":0,"x_max":203,"o":"m 203 46 q 189 13 203 26 q 156 0 175 0 l 46 0 q 13 13 26 0 q 0 46 0 26 l 0 706 q 13 739 0 725 q 46 753 26 753 l 156 753 q 189 739 175 753 q 203 706 203 725 l 203 46 m 110 660 l 93 660 l 93 93 l 110 93 l 110 660 m 203 769 l 110 769 l 110 853 l 101 861 l 93 853 l 93 769 l 0 769 l 0 871 q 14 904 0 892 l 68 960 q 101 974 82 974 q 135 960 121 974 l 189 904 q 203 871 203 892 l 203 769 z "},"û":{"ha":219,"x_min":0,"x_max":203,"o":"m 110 753 l 203 753 l 203 46 q 189 13 203 26 q 156 0 175 0 l 46 0 q 13 13 26 0 q 0 46 0 26 l 0 753 l 93 753 l 93 93 l 110 93 l 110 753 m 203 769 l 110 769 l 110 853 l 101 861 l 93 853 l 93 769 l 0 769 l 0 871 q 14 904 0 892 l 68 960 q 101 974 82 974 q 135 960 121 974 l 189 904 q 203 871 203 892 l 203 769 z "},"˚":{"ha":219,"x_min":0,"x_max":203,"o":"m 156 972 q 189 958 175 972 q 203 925 203 944 l 203 815 q 189 783 203 796 q 156 769 175 769 l 46 769 q 13 783 26 769 q 0 815 0 796 l 0 925 q 13 958 0 944 q 46 972 26 972 l 156 972 m 110 879 l 93 879 l 93 863 l 110 863 l 110 879 z "},"å":{"ha":219,"x_min":0,"x_max":203,"o":"m 203 0 l 46 0 q 13 13 26 0 q 0 46 0 26 l 0 376 q 13 409 0 396 q 46 422 26 422 l 110 422 l 110 660 l 93 660 l 93 439 l 0 439 l 0 706 q 13 739 0 725 q 46 753 26 753 l 157 753 q 190 739 176 753 q 203 706 203 725 l 203 0 m 93 93 l 110 93 l 110 329 l 93 329 l 93 93 m 156 972 q 189 958 175 972 q 203 925 203 944 l 203 815 q 189 783 203 796 q 156 769 175 769 l 46 769 q 13 783 26 769 q 0 815 0 796 l 0 925 q 13 958 0 944 q 46 972 26 972 l 156 972 m 110 879 l 93 879 l 93 863 l 110 863 l 110 879 z "},"¨":{"ha":219,"x_min":0,"x_max":203,"o":"m 203 972 l 203 769 l 110 769 l 110 769 l 110 769 l 110 972 l 203 972 m 93 972 l 93 769 l 0 769 l 0 972 l 93 972 l 93 972 l 93 972 z "},"ä":{"ha":219,"x_min":0,"x_max":203,"o":"m 203 0 l 46 0 q 13 13 26 0 q 0 46 0 26 l 0 376 q 13 409 0 396 q 46 422 26 422 l 110 422 l 110 660 l 93 660 l 93 439 l 0 439 l 0 706 q 13 739 0 725 q 46 753 26 753 l 157 753 q 190 739 176 753 q 203 706 203 725 l 203 0 m 93 93 l 110 93 l 110 329 l 93 329 l 93 93 m 203 972 l 203 769 l 110 769 l 110 769 l 110 769 l 110 972 l 203 972 m 93 972 l 93 769 l 0 769 l 0 972 l 93 972 l 93 972 l 93 972 z "},"ë":{"ha":219,"x_min":0,"x_max":203,"o":"m 157 0 l 46 0 q 13 13 26 0 q 0 46 0 26 l 0 706 q 13 739 0 725 q 46 753 26 753 l 157 753 q 190 739 176 753 q 203 706 203 725 l 203 329 l 93 329 l 93 93 l 110 93 l 110 313 l 203 313 l 203 46 q 190 13 203 26 q 157 0 176 0 m 93 422 l 110 422 l 110 660 l 93 660 l 93 422 m 203 972 l 203 769 l 110 769 l 110 769 l 110 769 l 110 972 l 203 972 m 93 972 l 93 769 l 0 769 l 0 972 l 93 972 l 93 972 l 93 972 z "},"ö":{"ha":219,"x_min":0,"x_max":203,"o":"m 203 46 q 189 13 203 26 q 156 0 175 0 l 46 0 q 13 13 26 0 q 0 46 0 26 l 0 706 q 13 739 0 725 q 46 753 26 753 l 156 753 q 189 739 175 753 q 203 706 203 725 l 203 46 m 110 660 l 93 660 l 93 93 l 110 93 l 110 660 m 203 972 l 203 769 l 110 769 l 110 769 l 110 769 l 110 972 l 203 972 m 93 972 l 93 769 l 0 769 l 0 972 l 93 972 l 93 972 l 93 972 z "},"ü":{"ha":219,"x_min":0,"x_max":203,"o":"m 110 753 l 203 753 l 203 46 q 189 13 203 26 q 156 0 175 0 l 46 0 q 13 13 26 0 q 0 46 0 26 l 0 753 l 93 753 l 93 93 l 110 93 l 110 753 m 203 972 l 203 769 l 110 769 l 110 769 l 110 769 l 110 972 l 203 972 m 93 972 l 93 769 l 0 769 l 0 972 l 93 972 l 93 972 l 93 972 z "},"ÿ":{"ha":219,"x_min":0,"x_max":203,"o":"m 110 753 l 203 753 l 203 -174 q 189 -206 203 -193 q 156 -219 175 -219 l 46 -219 q 13 -206 26 -219 q 0 -174 0 -193 l 0 -17 l 93 -17 l 93 -126 l 110 -126 l 110 0 l 46 0 q 13 13 26 0 q 0 46 0 26 l 0 753 l 93 753 l 93 93 l 110 93 l 110 753 m 203 972 l 203 769 l 110 769 l 110 769 l 110 769 l 110 972 l 203 972 m 93 972 l 93 769 l 0 769 l 0 972 l 93 972 l 93 972 l 93 972 z "},"©":{"ha":439,"x_min":0,"x_max":422,"o":"m 267 219 l 157 219 q 124 233 138 219 q 110 267 110 247 l 110 706 q 124 739 110 725 q 157 753 138 753 l 267 753 q 299 739 286 753 q 313 706 313 725 l 313 494 l 219 494 l 219 660 l 203 660 l 203 313 l 219 313 l 219 478 l 313 478 l 313 267 q 299 233 313 247 q 267 219 286 219 m 376 110 l 46 110 q 13 124 26 110 q 0 157 0 138 l 0 815 q 13 849 0 835 q 46 863 26 863 l 376 863 q 409 849 396 863 q 422 815 422 835 l 422 157 q 409 124 422 138 q 376 110 396 110 m 93 203 l 329 203 l 329 769 l 93 769 l 93 203 z "},"™":{"ha":658,"x_min":0,"x_max":642,"o":"m 642 439 l 549 439 l 549 879 l 532 879 l 532 439 l 439 439 l 439 879 l 422 879 l 422 439 l 329 439 l 329 972 l 596 972 q 628 958 615 972 q 642 925 642 944 l 642 439 m 203 439 l 110 439 l 110 879 l 93 879 l 93 714 l 0 714 l 0 972 l 313 972 l 313 714 l 219 714 l 219 879 l 203 879 l 203 439 z "},"®":{"ha":219,"x_min":0,"x_max":203,"o":"m 203 440 l 110 440 l 110 604 l 93 604 l 93 440 l 0 440 l 0 972 l 157 972 q 190 959 176 972 q 203 926 203 946 l 203 761 q 190 728 203 742 q 157 715 176 715 l 93 715 l 93 697 l 157 697 q 190 684 176 697 q 203 651 203 671 l 203 440 m 93 808 l 110 808 l 110 879 l 93 879 l 93 808 z "},"Æ":{"ha":329,"x_min":0,"x_max":313,"o":"m 313 0 l 110 0 l 110 439 l 93 439 l 93 0 l 0 0 l 0 925 q 13 958 0 944 q 46 972 26 972 l 313 972 l 313 550 l 219 550 l 219 879 l 203 879 l 203 532 l 313 532 l 313 439 l 203 439 l 203 93 l 219 93 l 219 422 l 313 422 l 313 0 m 93 532 l 110 532 l 110 879 l 93 879 l 93 532 z "},"æ":{"ha":329,"x_min":0,"x_max":313,"o":"m 267 0 l 46 0 q 13 13 26 0 q 0 46 0 26 l 0 376 q 13 409 0 396 q 46 422 26 422 l 110 422 l 110 660 l 93 660 l 93 439 l 0 439 l 0 706 q 13 739 0 725 q 46 753 26 753 l 267 753 q 299 739 286 753 q 313 706 313 725 l 313 329 l 203 329 l 203 93 l 219 93 l 219 313 l 313 313 l 313 46 q 299 13 313 26 q 267 0 286 0 m 203 422 l 219 422 l 219 660 l 203 660 l 203 422 m 93 93 l 110 93 l 110 329 l 93 329 l 93 93 z "},"˜":{"ha":219,"x_min":0,"x_max":203,"o":"m 203 972 l 203 871 q 190 838 203 851 q 157 824 176 824 l 93 824 l 93 769 l 0 769 l 0 871 q 13 903 0 890 q 46 917 26 917 l 110 917 l 110 972 l 203 972 z "},"ã":{"ha":219,"x_min":0,"x_max":203,"o":"m 203 0 l 46 0 q 13 13 26 0 q 0 46 0 26 l 0 376 q 13 409 0 396 q 46 422 26 422 l 110 422 l 110 660 l 93 660 l 93 439 l 0 439 l 0 706 q 13 739 0 725 q 46 753 26 753 l 157 753 q 190 739 176 753 q 203 706 203 725 l 203 0 m 93 93 l 110 93 l 110 329 l 93 329 l 93 93 m 203 972 l 203 871 q 190 838 203 851 q 157 824 176 824 l 93 824 l 93 769 l 0 769 l 0 871 q 13 903 0 890 q 46 917 26 917 l 110 917 l 110 972 l 203 972 z "},"ñ":{"ha":219,"x_min":0,"x_max":203,"o":"m 203 0 l 110 0 l 110 660 l 93 660 l 93 0 l 0 0 l 0 753 l 157 753 q 190 740 176 753 q 203 707 203 726 l 203 0 m 203 972 l 203 871 q 190 838 203 851 q 157 824 176 824 l 93 824 l 93 769 l 0 769 l 0 871 q 13 903 0 890 q 46 917 26 917 l 110 917 l 110 972 l 203 972 z "},"õ":{"ha":219,"x_min":0,"x_max":203,"o":"m 203 46 q 189 13 203 26 q 156 0 175 0 l 46 0 q 13 13 26 0 q 0 46 0 26 l 0 706 q 13 739 0 725 q 46 753 26 753 l 156 753 q 189 739 175 753 q 203 706 203 725 l 203 46 m 110 660 l 93 660 l 93 93 l 110 93 l 110 660 m 203 972 l 203 871 q 190 838 203 851 q 157 824 176 824 l 93 824 l 93 769 l 0 769 l 0 871 q 13 903 0 890 q 46 917 26 917 l 110 917 l 110 972 l 203 972 z "},"Œ":{"ha":329,"x_min":0,"x_max":313,"o":"m 313 0 l 46 0 q 13 14 26 0 q 0 47 0 28 l 0 926 q 13 959 0 946 q 46 972 26 972 l 313 972 l 313 550 l 219 550 l 219 879 l 203 879 l 203 533 l 313 533 l 313 440 l 203 440 l 203 93 l 219 93 l 219 424 l 313 424 l 313 0 m 93 93 l 110 93 l 110 879 l 93 879 l 93 93 z "},"œ":{"ha":329,"x_min":0,"x_max":313,"o":"m 46 0 q 13 13 26 0 q 0 46 0 26 l 0 706 q 13 739 0 725 q 46 753 26 753 l 267 753 q 299 739 286 753 q 313 706 313 725 l 313 329 l 203 329 l 203 93 l 219 93 l 219 313 l 313 313 l 313 46 q 299 13 313 26 q 267 0 286 0 l 46 0 m 110 660 l 93 660 l 93 93 l 110 93 l 110 660 m 219 422 l 219 660 l 203 660 l 203 422 l 219 422 z "},"¿":{"ha":219,"x_min":0,"x_max":203,"o":"m 46 0 q 13 13 26 0 q 0 46 0 26 l 0 486 q 13 519 0 506 q 46 532 26 532 l 110 532 l 110 753 l 203 753 l 203 486 q 190 453 203 467 q 157 439 176 439 l 93 439 l 93 93 l 110 93 l 110 422 l 203 422 l 203 46 q 190 13 203 26 q 157 0 176 0 l 46 0 m 203 769 l 110 769 l 110 972 l 203 972 l 203 769 z "},"¡":{"ha":110,"x_min":0,"x_max":93,"o":"m 0 972 l 0 769 l 93 769 l 93 972 l 0 972 m 0 753 l 0 0 l 93 0 l 93 753 l 0 753 z "},"€":{"ha":275,"x_min":0,"x_max":258,"o":"m 211 972 q 244 959 231 972 q 258 926 258 946 l 258 604 l 165 604 l 165 879 l 149 879 l 149 588 l 258 588 l 258 494 l 149 494 l 149 478 l 258 478 l 258 385 l 149 385 l 149 93 l 165 93 l 165 368 l 258 368 l 258 46 q 244 13 258 26 q 211 0 231 0 l 101 0 q 69 13 82 0 q 56 46 56 26 l 56 385 l 0 385 l 0 478 l 56 478 l 56 494 l 0 494 l 0 588 l 56 588 l 56 926 q 69 959 56 946 q 101 972 82 972 l 211 972 l 211 972 z "},"¥":{"ha":219,"x_min":0,"x_max":203,"o":"m 149 494 l 149 478 l 203 478 l 203 385 l 149 385 l 149 368 l 203 368 l 203 275 l 149 275 l 149 0 l 56 0 l 56 275 l 0 275 l 0 368 l 56 368 l 56 385 l 0 385 l 0 478 l 56 478 l 56 494 l 46 494 q 13 508 26 494 q 0 542 0 522 l 0 972 l 93 972 l 93 588 l 110 588 l 110 972 l 203 972 l 203 542 q 190 508 203 522 q 157 494 176 494 l 149 494 z "},"Ä":{"ha":219,"x_min":0,"x_max":203,"o":"m 157 753 q 190 739 176 753 q 203 706 203 725 l 203 0 l 110 0 l 110 329 l 93 329 l 93 0 l 0 0 l 0 706 q 13 739 0 725 q 46 753 26 753 l 157 753 m 110 422 l 110 660 l 93 660 l 93 422 l 110 422 m 203 769 l 110 769 l 110 972 l 203 972 l 203 769 m 93 769 l 0 769 l 0 972 l 93 972 l 93 769 z "},"Å":{"ha":219,"x_min":0,"x_max":203,"o":"m 157 753 q 190 739 176 753 q 203 706 203 725 l 203 0 l 110 0 l 110 329 l 93 329 l 93 0 l 0 0 l 0 706 q 13 739 0 725 q 46 753 26 753 l 157 753 m 110 422 l 110 660 l 93 660 l 93 422 l 110 422 m 156 972 q 189 958 175 972 q 203 925 203 944 l 203 815 q 189 783 203 796 q 156 769 175 769 l 46 769 q 13 783 26 769 q 0 815 0 796 l 0 925 q 13 958 0 944 q 46 972 26 972 l 156 972 m 110 879 l 93 879 l 93 863 l 110 863 l 110 879 z "},"Â":{"ha":219,"x_min":0,"x_max":203,"o":"m 157 753 l 46 753 q 13 739 26 753 q 0 706 0 725 l 0 0 l 93 0 l 93 329 l 110 329 l 110 0 l 203 0 l 203 706 q 190 739 203 725 q 157 753 176 753 m 93 422 l 93 660 l 110 660 l 110 422 l 93 422 m 203 769 l 110 769 l 110 853 l 101 861 l 93 853 l 93 769 l 0 769 l 0 871 q 14 904 0 892 l 68 960 q 101 974 82 974 q 135 960 121 974 l 189 904 q 203 871 203 892 l 203 769 z "},"Á":{"ha":219,"x_min":0,"x_max":203,"o":"m 157 753 q 190 739 176 753 q 203 706 203 725 l 203 0 l 110 0 l 110 329 l 93 329 l 93 0 l 0 0 l 0 706 q 13 739 0 725 q 46 753 26 753 l 157 753 m 110 422 l 110 660 l 93 660 l 93 422 l 110 422 m 203 972 l 203 815 q 190 783 203 796 q 157 769 176 769 l 0 769 l 0 863 l 110 863 l 110 972 l 203 972 z "},"É":{"ha":219,"x_min":0,"x_max":203,"o":"m 203 0 l 0 0 l 0 753 l 203 753 l 203 440 l 110 440 l 110 660 l 93 660 l 93 424 l 203 424 l 203 331 l 93 331 l 93 93 l 110 93 l 110 314 l 203 314 l 203 0 m 203 972 l 203 815 q 190 783 203 796 q 157 769 176 769 l 0 769 l 0 863 l 110 863 l 110 972 l 203 972 z "},"Ê":{"ha":219,"x_min":0,"x_max":203,"o":"m 203 0 l 0 0 l 0 753 l 203 753 l 203 440 l 110 440 l 110 660 l 93 660 l 93 424 l 203 424 l 203 331 l 93 331 l 93 93 l 110 93 l 110 314 l 203 314 l 203 0 m 203 769 l 110 769 l 110 853 l 101 861 l 93 853 l 93 769 l 0 769 l 0 871 q 14 904 0 892 l 68 960 q 101 974 82 974 q 135 960 121 974 l 189 904 q 203 871 203 892 l 203 769 z "},"Ë":{"ha":219,"x_min":0,"x_max":203,"o":"m 203 0 l 0 0 l 0 753 l 203 753 l 203 440 l 110 440 l 110 660 l 93 660 l 93 424 l 203 424 l 203 331 l 93 331 l 93 93 l 110 93 l 110 314 l 203 314 l 203 0 l 203 0 m 203 972 l 203 769 l 110 769 l 110 769 l 110 769 l 110 972 l 203 972 m 93 972 l 93 769 l 0 769 l 0 972 l 93 972 l 93 972 l 93 972 z "},"È":{"ha":219,"x_min":0,"x_max":203,"o":"m 203 0 l 0 0 l 0 753 l 203 753 l 203 440 l 110 440 l 110 660 l 93 660 l 93 424 l 203 424 l 203 331 l 93 331 l 93 93 l 110 93 l 110 314 l 203 314 l 203 0 m 203 769 l 46 769 q 13 783 26 769 q 0 815 0 796 l 0 972 l 93 972 l 93 863 l 203 863 l 203 769 z "},"À":{"ha":219,"x_min":0,"x_max":203,"o":"m 203 0 l 110 0 l 110 329 l 93 329 l 93 0 l 0 0 l 0 706 q 13 739 0 725 q 46 753 26 753 l 157 753 q 190 739 176 753 q 203 706 203 725 l 203 0 m 93 422 l 110 422 l 110 660 l 93 660 l 93 422 m 203 769 l 46 769 q 13 783 26 769 q 0 815 0 796 l 0 972 l 93 972 l 93 863 l 203 863 l 203 769 z "},"Ã":{"ha":219,"x_min":0,"x_max":203,"o":"m 157 753 q 190 739 176 753 q 203 706 203 725 l 203 0 l 110 0 l 110 329 l 93 329 l 93 0 l 0 0 l 0 706 q 13 739 0 725 q 46 753 26 753 l 157 753 m 110 422 l 110 660 l 93 660 l 93 422 l 110 422 m 203 972 l 203 871 q 190 838 203 851 q 157 824 176 824 l 93 824 l 93 769 l 0 769 l 0 871 q 13 903 0 890 q 46 917 26 917 l 110 917 l 110 972 l 203 972 z "},"ı":{"ha":110,"x_min":0,"x_max":93,"o":"m 0 0 l 0 753 l 93 753 l 93 0 l 0 0 l 0 0 z "},"í":{"ha":219,"x_min":0,"x_max":203,"o":"m 56 0 l 56 753 l 149 753 l 149 0 l 56 0 l 56 0 m 203 972 l 203 815 q 190 783 203 796 q 157 769 176 769 l 0 769 l 0 863 l 110 863 l 110 972 l 203 972 z "},"ì":{"ha":219,"x_min":0,"x_max":203,"o":"m 56 0 l 56 753 l 149 753 l 149 0 l 56 0 l 56 0 m 203 769 l 46 769 q 13 783 26 769 q 0 815 0 796 l 0 972 l 93 972 l 93 863 l 203 863 l 203 769 z "},"î":{"ha":219,"x_min":0,"x_max":203,"o":"m 56 0 l 56 753 l 149 753 l 149 0 l 56 0 l 56 0 m 203 769 l 110 769 l 110 853 l 101 861 l 93 853 l 93 769 l 0 769 l 0 871 q 14 904 0 892 l 68 960 q 101 974 82 974 q 135 960 121 974 l 189 904 q 203 871 203 892 l 203 769 z "},"ï":{"ha":219,"x_min":0,"x_max":203,"o":"m 56 0 l 56 753 l 149 753 l 149 0 l 56 0 l 56 0 m 203 972 l 203 769 l 110 769 l 110 769 l 110 769 l 110 972 l 203 972 m 93 972 l 93 769 l 0 769 l 0 972 l 93 972 l 93 972 l 93 972 z "},"Ö":{"ha":219,"x_min":0,"x_max":203,"o":"m 156 753 q 189 739 175 753 q 203 706 203 725 l 203 46 q 189 13 203 26 q 156 0 175 0 l 46 0 q 13 13 26 0 q 0 46 0 26 l 0 706 q 13 739 0 725 q 46 753 26 753 l 156 753 m 110 660 l 93 660 l 93 93 l 110 93 l 110 660 m 203 769 l 110 769 l 110 972 l 203 972 l 203 769 m 93 769 l 0 769 l 0 972 l 93 972 l 93 769 z "},"Õ":{"ha":219,"x_min":0,"x_max":203,"o":"m 156 753 q 189 739 175 753 q 203 706 203 725 l 203 46 q 189 13 203 26 q 156 0 175 0 l 46 0 q 13 13 26 0 q 0 46 0 26 l 0 706 q 13 739 0 725 q 46 753 26 753 l 156 753 m 110 660 l 93 660 l 93 93 l 110 93 l 110 660 m 203 972 l 203 871 q 190 838 203 851 q 157 824 176 824 l 93 824 l 93 769 l 0 769 l 0 871 q 13 903 0 890 q 46 917 26 917 l 110 917 l 110 972 l 203 972 z "},"Ó":{"ha":219,"x_min":0,"x_max":203,"o":"m 156 753 q 189 739 175 753 q 203 706 203 725 l 203 46 q 189 13 203 26 q 156 0 175 0 l 46 0 q 13 13 26 0 q 0 46 0 26 l 0 706 q 13 739 0 725 q 46 753 26 753 l 156 753 m 110 660 l 93 660 l 93 93 l 110 93 l 110 660 m 203 972 l 203 815 q 190 783 203 796 q 157 769 176 769 l 0 769 l 0 863 l 110 863 l 110 972 l 203 972 z "},"Ô":{"ha":219,"x_min":0,"x_max":203,"o":"m 156 753 l 46 753 q 13 739 26 753 q 0 706 0 725 l 0 46 q 13 13 0 26 q 46 0 26 0 l 156 0 q 189 13 175 0 q 203 46 203 26 l 203 706 q 189 739 203 725 q 156 753 175 753 m 110 93 l 93 93 l 93 660 l 110 660 l 110 93 m 203 769 l 110 769 l 110 853 l 101 861 l 93 853 l 93 769 l 0 769 l 0 871 q 14 904 0 892 l 68 960 q 101 974 82 974 q 135 960 121 974 l 189 904 q 203 871 203 892 l 203 769 z "},"Ò":{"ha":219,"x_min":0,"x_max":203,"o":"m 156 753 q 189 739 175 753 q 203 706 203 725 l 203 46 q 189 13 203 26 q 156 0 175 0 l 46 0 q 13 13 26 0 q 0 46 0 26 l 0 706 q 13 739 0 725 q 46 753 26 753 l 156 753 m 110 660 l 93 660 l 93 93 l 110 93 l 110 660 m 203 769 l 46 769 q 13 783 26 769 q 0 815 0 796 l 0 972 l 93 972 l 93 863 l 203 863 l 203 769 z "},"Ñ":{"ha":329,"x_min":0,"x_max":313,"o":"m 313 0 l 157 0 q 124 14 138 0 q 110 47 110 28 l 110 660 l 93 660 l 93 0 l 0 0 l 0 753 l 157 753 q 190 740 176 753 q 203 707 203 726 l 203 93 l 219 93 l 219 753 l 313 753 l 313 0 m 265 972 l 265 871 q 252 838 265 851 q 219 824 239 824 l 156 824 l 156 769 l 63 769 l 63 871 q 76 903 63 890 q 108 917 89 917 l 172 917 l 172 972 l 265 972 z "},"Ü":{"ha":219,"x_min":0,"x_max":203,"o":"m 110 753 l 203 753 l 203 46 q 189 13 203 26 q 156 0 175 0 l 46 0 q 13 13 26 0 q 0 46 0 26 l 0 753 l 93 753 l 93 93 l 110 93 l 110 753 m 203 769 l 110 769 l 110 972 l 203 972 l 203 769 m 93 769 l 0 769 l 0 972 l 93 972 l 93 769 z "},"Ú":{"ha":219,"x_min":0,"x_max":203,"o":"m 110 753 l 203 753 l 203 46 q 189 13 203 26 q 156 0 175 0 l 46 0 q 13 13 26 0 q 0 46 0 26 l 0 753 l 93 753 l 93 93 l 110 93 l 110 753 m 203 972 l 203 815 q 190 783 203 796 q 157 769 176 769 l 0 769 l 0 863 l 110 863 l 110 972 l 203 972 z "},"Û":{"ha":219,"x_min":0,"x_max":203,"o":"m 110 93 l 93 93 l 93 753 l 0 753 l 0 46 q 13 13 0 26 q 46 0 26 0 l 156 0 q 189 13 175 0 q 203 46 203 26 l 203 753 l 110 753 l 110 93 m 203 769 l 110 769 l 110 853 l 101 861 l 93 853 l 93 769 l 0 769 l 0 871 q 14 904 0 892 l 68 960 q 101 974 82 974 q 135 960 121 974 l 189 904 q 203 871 203 892 l 203 769 z "},"Ù":{"ha":219,"x_min":0,"x_max":203,"o":"m 110 753 l 203 753 l 203 46 q 189 13 203 26 q 156 0 175 0 l 46 0 q 13 13 26 0 q 0 46 0 26 l 0 753 l 93 753 l 93 93 l 110 93 l 110 753 m 203 769 l 46 769 q 13 783 26 769 q 0 815 0 796 l 0 972 l 93 972 l 93 863 l 203 863 l 203 769 z "},"Ÿ":{"ha":219,"x_min":0,"x_max":203,"o":"m 203 753 l 203 376 q 189 343 203 357 q 156 329 175 329 l 147 329 l 147 0 l 54 0 l 54 329 l 46 329 q 13 343 26 329 q 0 376 0 357 l 0 753 l 93 753 l 93 422 l 110 422 l 110 753 l 203 753 m 203 769 l 110 769 l 110 972 l 203 972 l 203 769 m 93 769 l 0 769 l 0 972 l 93 972 l 93 769 z "},"@":{"ha":329,"x_min":0,"x_max":313,"o":"m 219 313 l 219 660 l 203 660 l 203 313 l 219 313 m 313 110 l 47 110 q 14 124 28 110 q 0 157 0 138 l 0 815 q 14 849 0 835 q 47 863 28 863 l 267 863 q 299 849 286 863 q 313 815 313 835 l 313 219 l 157 219 q 124 233 138 219 q 110 267 110 247 l 110 706 q 124 739 110 725 q 157 753 138 753 l 219 753 l 219 769 l 93 769 l 93 203 l 313 203 l 313 110 z "},"„":{"ha":329,"x_min":0,"x_max":313,"o":"m 54 203 l 147 203 l 147 46 q 134 13 147 26 q 101 0 121 0 l 0 0 l 0 93 l 54 93 l 54 203 m 219 203 l 313 203 l 313 46 q 299 13 313 26 q 267 0 286 0 l 164 0 l 164 93 l 219 93 l 219 203 z "},"‚":{"ha":164,"x_min":0,"x_max":147,"o":"m 54 203 l 147 203 l 147 46 q 134 13 147 26 q 101 0 121 0 l 0 0 l 0 93 l 54 93 l 54 203 z "},"“":{"ha":329,"x_min":0,"x_max":313,"o":"m 93 769 l 0 769 l 0 926 q 13 959 0 946 q 46 972 26 972 l 147 972 l 147 879 l 93 879 l 93 769 m 257 769 l 164 769 l 164 926 q 178 959 164 946 q 211 972 192 972 l 313 972 l 313 879 l 257 879 l 257 769 z "},"”":{"ha":329,"x_min":0,"x_max":313,"o":"m 54 972 l 147 972 l 147 815 q 134 783 147 796 q 101 769 121 769 l 0 769 l 0 863 l 54 863 l 54 972 m 219 972 l 313 972 l 313 815 q 299 783 313 796 q 267 769 286 769 l 164 769 l 164 863 l 219 863 l 219 972 z "},"‘":{"ha":164,"x_min":0,"x_max":147,"o":"m 93 769 l 0 769 l 0 926 q 13 959 0 946 q 46 972 26 972 l 147 972 l 147 879 l 93 879 l 93 769 z "},"’":{"ha":164,"x_min":0,"x_max":147,"o":"m 54 972 l 147 972 l 147 815 q 134 783 147 796 q 101 769 121 769 l 0 769 l 0 863 l 54 863 l 54 972 z "},"…":{"ha":329,"x_min":0,"x_max":313,"o":"m 0 0 l 0 203 l 93 203 l 93 0 l 0 0 m 110 0 l 110 203 l 203 203 l 203 0 l 110 0 m 219 0 l 219 203 l 313 203 l 313 0 l 219 0 z "},"¸":{"ha":110,"x_min":0,"x_max":149,"o":"m 93 93 l 93 -17 l 101 -17 q 135 -31 121 -17 q 149 -64 149 -44 l 149 -174 q 135 -206 149 -193 q 101 -219 121 -219 l 0 -219 l 0 -126 l 56 -126 l 56 -110 l 46 -110 q 13 -97 26 -110 q 0 -64 0 -83 l 0 93 l 93 93 z "},"Ç":{"ha":219,"x_min":0,"x_max":203,"o":"m 46 0 q 13 13 26 0 q 0 46 0 26 l 0 925 q 13 958 0 944 q 46 972 26 972 l 157 972 q 190 958 176 972 q 203 925 203 944 l 203 494 l 110 494 l 110 879 l 93 879 l 93 93 l 110 93 l 110 478 l 203 478 l 203 46 q 190 13 203 26 q 157 0 176 0 l 147 0 l 147 -17 l 156 -17 q 189 -31 175 -17 q 203 -64 203 -44 l 203 -174 q 189 -206 203 -193 q 156 -219 175 -219 l 54 -219 l 54 -126 l 110 -126 l 110 -110 l 100 -110 q 67 -97 81 -110 q 54 -64 54 -83 l 54 0 l 46 0 l 46 0 z "},"ç":{"ha":219,"x_min":0,"x_max":203,"o":"m 157 0 l 147 0 l 147 -17 l 156 -17 q 189 -31 175 -17 q 203 -64 203 -44 l 203 -174 q 189 -206 203 -193 q 156 -219 175 -219 l 54 -219 l 54 -126 l 110 -126 l 110 -110 l 100 -110 q 67 -97 81 -110 q 54 -64 54 -83 l 54 0 l 46 0 q 13 13 26 0 q 0 46 0 26 l 0 706 q 13 739 0 725 q 46 753 26 753 l 157 753 q 190 739 176 753 q 203 706 203 725 l 203 385 l 110 385 l 110 660 l 93 660 l 93 93 l 110 93 l 110 368 l 203 368 l 203 46 q 190 13 203 26 q 157 0 176 0 z "},"ß":{"ha":275,"x_min":0,"x_max":258,"o":"m 211 478 q 244 464 231 478 q 258 431 258 450 l 258 46 q 244 13 258 26 q 211 0 231 0 l 110 0 l 110 93 l 165 93 l 165 385 l 93 385 l 93 0 l 0 0 l 0 926 q 13 959 0 946 q 46 972 26 972 l 157 972 q 190 959 176 972 q 203 926 203 946 l 203 542 q 190 508 203 522 q 157 494 176 494 l 93 494 l 93 478 l 211 478 m 93 588 l 110 588 l 110 879 l 93 879 l 93 588 z "},"Ø":{"ha":329,"x_min":0,"x_max":313,"o":"m 267 863 q 299 849 286 863 q 313 815 313 835 l 313 157 q 299 124 313 138 q 267 110 286 110 l 203 110 l 203 0 l 110 0 l 110 110 l 46 110 q 13 124 26 110 q 0 157 0 138 l 0 815 q 13 849 0 835 q 46 863 26 863 l 110 863 l 110 972 l 203 972 l 203 863 l 267 863 m 110 203 l 110 769 l 93 769 l 93 203 l 110 203 m 219 769 l 203 769 l 203 203 l 219 203 l 219 769 z "},"ø":{"ha":331,"x_min":0,"x_max":314,"o":"m 267 753 q 300 739 286 753 q 314 706 314 725 l 314 46 q 300 13 314 26 q 267 0 286 0 l 204 0 l 204 -110 l 111 -110 l 111 0 l 47 0 q 14 13 28 0 q 0 46 0 26 l 0 706 q 14 739 0 725 q 47 753 28 753 l 111 753 l 111 863 l 204 863 l 204 753 l 267 753 m 111 93 l 111 660 l 93 660 l 93 93 l 111 93 m 221 660 l 204 660 l 204 93 l 221 93 l 221 660 z "},":":{"ha":110,"x_min":0,"x_max":93,"o":"m 93 313 l 93 110 l 0 110 l 0 313 l 93 313 m 93 643 l 93 440 l 0 440 l 0 643 l 93 643 z "},";":{"ha":165,"x_min":0,"x_max":149,"o":"m 56 313 l 149 313 l 149 46 q 135 13 149 26 q 103 0 122 0 l 0 0 l 0 93 l 56 93 l 56 313 m 149 643 l 149 440 l 56 440 l 56 643 l 149 643 z "},",":{"ha":110,"x_min":-54,"x_max":93,"o":"m 0 203 l 93 203 l 93 -64 q 80 -97 93 -83 q 47 -110 67 -110 l -54 -110 l -54 -17 l 0 -17 l 0 203 z "},"+":{"ha":329,"x_min":0,"x_max":313,"o":"m 203 533 l 203 422 l 313 422 l 313 329 l 203 329 l 203 219 l 110 219 l 110 329 l 0 329 l 0 422 l 110 422 l 110 533 l 203 533 l 203 533 z "},"=":{"ha":275,"x_min":0,"x_max":258,"o":"m 0 275 l 0 368 l 258 368 l 258 275 l 0 275 m 0 385 l 0 478 l 258 478 l 258 385 l 0 385 z "},"£":{"ha":329,"x_min":0,"x_max":313,"o":"m 313 0 l 0 0 l 0 156 q 14 189 0 175 q 47 203 28 203 l 110 203 l 110 439 l 0 439 l 0 532 l 110 532 l 110 925 q 124 958 110 944 q 157 972 138 972 l 267 972 q 299 958 286 972 q 313 925 313 944 l 313 549 l 219 549 l 219 879 l 203 879 l 203 532 l 313 532 l 313 439 l 203 439 l 203 156 q 190 123 203 136 q 157 110 176 110 l 93 110 l 93 93 l 313 93 l 313 0 z "},"§":{"ha":219,"x_min":0,"x_max":203,"o":"m 157 0 l 0 0 l 0 313 l 93 313 l 93 93 l 110 93 l 110 329 l 46 329 q 13 343 26 329 q 0 376 0 357 l 0 925 q 13 958 0 944 q 46 972 26 972 l 203 972 l 203 658 l 110 658 l 110 879 l 93 879 l 93 642 l 157 642 q 190 628 176 642 q 203 596 203 615 l 203 46 q 190 13 203 26 q 157 0 176 0 m 93 422 l 110 422 l 110 549 l 93 549 l 93 422 z "},"•":{"ha":110,"x_min":0,"x_max":93,"o":"m 0 478 l 93 478 l 93 275 l 0 275 l 0 478 l 0 478 z "},"~":{"ha":275,"x_min":0,"x_max":258,"o":"m 165 478 l 258 478 l 258 376 q 244 343 258 357 q 211 329 231 329 l 93 329 l 93 275 l 0 275 l 0 376 q 13 409 0 396 q 46 422 26 422 l 165 422 l 165 478 z "},"°":{"ha":219,"x_min":0,"x_max":203,"o":"m 157 972 q 190 959 176 972 q 203 926 203 946 l 203 596 q 190 563 203 576 q 157 550 176 550 l 46 550 q 13 563 26 550 q 0 596 0 576 l 0 926 q 13 959 0 946 q 46 972 26 972 l 157 972 m 110 879 l 93 879 l 93 643 l 110 643 l 110 879 z "},"#":{"ha":329,"x_min":0,"x_max":313,"o":"m 313 494 l 257 494 l 257 478 l 313 478 l 313 385 l 257 385 l 257 0 l 164 0 l 164 385 l 147 385 l 147 0 l 54 0 l 54 385 l 0 385 l 0 478 l 54 478 l 54 494 l 0 494 l 0 588 l 54 588 l 54 972 l 147 972 l 147 588 l 164 588 l 164 972 l 257 972 l 257 588 l 313 588 l 313 494 m 164 478 l 164 494 l 147 494 l 147 478 l 164 478 z "},"^":{"ha":219,"x_min":0,"x_max":203,"o":"m 203 769 l 110 769 l 110 851 l 101 860 l 93 851 l 93 769 l 0 769 l 0 871 q 14 904 0 890 l 68 958 q 101 972 82 972 q 135 958 121 972 l 189 904 q 203 871 203 890 l 203 769 z "},"ˇ":{"ha":219,"x_min":0,"x_max":203,"o":"m 0 972 l 93 972 l 93 889 l 101 881 l 110 889 l 110 972 l 203 972 l 203 871 q 189 838 203 850 l 135 782 q 101 768 121 768 q 68 782 82 768 l 14 838 q 0 871 0 850 l 0 972 z "},"˝":{"ha":219,"x_min":0,"x_max":203,"o":"m 203 769 l 110 769 l 110 972 l 203 972 l 203 769 m 93 769 l 0 769 l 0 972 l 93 972 l 93 769 z "},"˘":{"ha":219,"x_min":0,"x_max":203,"o":"m 0 972 l 93 972 l 93 863 l 110 863 l 110 972 l 203 972 l 203 817 q 190 783 203 797 q 157 769 176 769 l 46 769 q 13 783 26 769 q 0 817 0 797 l 0 972 z "},"č":{"ha":219,"x_min":0,"x_max":203,"o":"m 157 0 l 46 0 q 13 13 26 0 q 0 46 0 26 l 0 706 q 13 739 0 725 q 46 753 26 753 l 157 753 q 190 739 176 753 q 203 706 203 725 l 203 385 l 110 385 l 110 660 l 93 660 l 93 93 l 110 93 l 110 368 l 203 368 l 203 46 q 190 13 203 26 q 157 0 176 0 m 0 972 l 93 972 l 93 889 l 101 881 l 110 889 l 110 972 l 203 972 l 203 871 q 189 838 203 850 l 135 782 q 101 768 121 768 q 68 782 82 768 l 14 838 q 0 871 0 850 l 0 972 z "},"ć":{"ha":219,"x_min":0,"x_max":203,"o":"m 157 0 l 46 0 q 13 13 26 0 q 0 46 0 26 l 0 706 q 13 739 0 725 q 46 753 26 753 l 157 753 q 190 739 176 753 q 203 706 203 725 l 203 385 l 110 385 l 110 660 l 93 660 l 93 93 l 110 93 l 110 368 l 203 368 l 203 46 q 190 13 203 26 q 157 0 176 0 m 203 972 l 203 815 q 190 783 203 796 q 157 769 176 769 l 0 769 l 0 863 l 110 863 l 110 972 l 203 972 z "},"ź":{"ha":219,"x_min":0,"x_max":203,"o":"m 203 0 l 0 0 l 0 321 q 14 354 0 342 l 110 450 l 110 660 l 93 660 l 93 494 l 0 494 l 0 753 l 203 753 l 203 431 q 189 399 203 411 l 93 301 l 93 93 l 110 93 l 110 258 l 203 258 l 203 0 m 203 972 l 203 815 q 190 783 203 796 q 157 769 176 769 l 0 769 l 0 863 l 110 863 l 110 972 l 203 972 z "},"ě":{"ha":219,"x_min":0,"x_max":203,"o":"m 157 0 l 46 0 q 13 13 26 0 q 0 46 0 26 l 0 706 q 13 739 0 725 q 46 753 26 753 l 157 753 q 190 739 176 753 q 203 706 203 725 l 203 329 l 93 329 l 93 93 l 110 93 l 110 313 l 203 313 l 203 46 q 190 13 203 26 q 157 0 176 0 m 93 422 l 110 422 l 110 660 l 93 660 l 93 422 m 0 972 l 93 972 l 93 889 l 101 881 l 110 889 l 110 972 l 203 972 l 203 871 q 189 838 203 850 l 135 782 q 101 768 121 768 q 68 782 82 768 l 14 838 q 0 871 0 850 l 0 972 z "},"Ě":{"ha":219,"x_min":0,"x_max":203,"o":"m 203 0 l 0 0 l 0 753 l 203 753 l 203 440 l 110 440 l 110 660 l 93 660 l 93 424 l 203 424 l 203 331 l 93 331 l 93 93 l 110 93 l 110 314 l 203 314 l 203 0 m 0 972 l 93 972 l 93 889 l 101 881 l 110 889 l 110 972 l 203 972 l 203 871 q 189 838 203 850 l 135 782 q 101 768 121 768 q 68 782 82 768 l 14 838 q 0 871 0 850 l 0 972 z "},"ő":{"ha":219,"x_min":0,"x_max":203,"o":"m 203 46 q 189 13 203 26 q 156 0 175 0 l 46 0 q 13 13 26 0 q 0 46 0 26 l 0 706 q 13 739 0 725 q 46 753 26 753 l 156 753 q 189 739 175 753 q 203 706 203 725 l 203 46 m 110 660 l 93 660 l 93 93 l 110 93 l 110 660 m 203 769 l 110 769 l 110 972 l 203 972 l 203 769 m 93 769 l 0 769 l 0 972 l 93 972 l 93 769 z "},"ń":{"ha":219,"x_min":0,"x_max":203,"o":"m 203 0 l 110 0 l 110 660 l 93 660 l 93 0 l 0 0 l 0 753 l 157 753 q 190 740 176 753 q 203 707 203 726 l 203 0 m 203 972 l 203 815 q 190 783 203 796 q 157 769 176 769 l 0 769 l 0 863 l 110 863 l 110 972 l 203 972 z "},"ř":{"ha":219,"x_min":0,"x_max":203,"o":"m 93 0 l 0 0 l 0 753 l 157 753 q 190 739 176 753 q 203 706 203 725 l 203 439 l 110 439 l 110 660 l 93 660 l 93 0 m 0 972 l 93 972 l 93 889 l 101 881 l 110 889 l 110 972 l 203 972 l 203 871 q 189 838 203 850 l 135 782 q 101 768 121 768 q 68 782 82 768 l 14 838 q 0 871 0 850 l 0 972 z "},"š":{"ha":219,"x_min":0,"x_max":203,"o":"m 157 0 l 46 0 q 13 13 26 0 q 0 46 0 26 l 0 313 l 93 313 l 93 93 l 110 93 l 110 329 l 46 329 q 13 343 26 329 q 0 376 0 357 l 0 706 q 13 739 0 725 q 46 753 26 753 l 157 753 q 190 739 176 753 q 203 706 203 725 l 203 439 l 110 439 l 110 660 l 93 660 l 93 422 l 157 422 q 190 409 176 422 q 203 376 203 396 l 203 46 q 190 13 203 26 q 157 0 176 0 m 0 972 l 93 972 l 93 889 l 101 881 l 110 889 l 110 972 l 203 972 l 203 871 q 189 838 203 850 l 135 782 q 101 768 121 768 q 68 782 82 768 l 14 838 q 0 871 0 850 l 0 972 z "},"ś":{"ha":219,"x_min":0,"x_max":203,"o":"m 157 0 l 46 0 q 13 13 26 0 q 0 46 0 26 l 0 313 l 93 313 l 93 93 l 110 93 l 110 329 l 46 329 q 13 343 26 329 q 0 376 0 357 l 0 706 q 13 739 0 725 q 46 753 26 753 l 157 753 q 190 739 176 753 q 203 706 203 725 l 203 439 l 110 439 l 110 660 l 93 660 l 93 422 l 157 422 q 190 409 176 422 q 203 376 203 396 l 203 46 q 190 13 203 26 q 157 0 176 0 m 203 972 l 203 815 q 190 783 203 796 q 157 769 176 769 l 0 769 l 0 863 l 110 863 l 110 972 l 203 972 z "},"ů":{"ha":219,"x_min":0,"x_max":203,"o":"m 110 753 l 203 753 l 203 46 q 189 13 203 26 q 156 0 175 0 l 46 0 q 13 13 26 0 q 0 46 0 26 l 0 753 l 93 753 l 93 93 l 110 93 l 110 753 m 156 972 q 189 958 175 972 q 203 925 203 944 l 203 815 q 189 783 203 796 q 156 769 175 769 l 46 769 q 13 783 26 769 q 0 815 0 796 l 0 925 q 13 958 0 944 q 46 972 26 972 l 156 972 m 110 879 l 93 879 l 93 863 l 110 863 l 110 879 z "},"ű":{"ha":219,"x_min":0,"x_max":203,"o":"m 110 753 l 203 753 l 203 46 q 189 13 203 26 q 156 0 175 0 l 46 0 q 13 13 26 0 q 0 46 0 26 l 0 753 l 93 753 l 93 93 l 110 93 l 110 753 m 203 769 l 110 769 l 110 972 l 203 972 l 203 769 m 93 769 l 0 769 l 0 972 l 93 972 l 93 769 z "},"ý":{"ha":219,"x_min":0,"x_max":203,"o":"m 110 753 l 203 753 l 203 -174 q 189 -206 203 -193 q 156 -219 175 -219 l 46 -219 q 13 -206 26 -219 q 0 -174 0 -193 l 0 -17 l 93 -17 l 93 -126 l 110 -126 l 110 0 l 46 0 q 13 13 26 0 q 0 46 0 26 l 0 753 l 93 753 l 93 93 l 110 93 l 110 753 m 203 972 l 203 815 q 190 783 203 796 q 157 769 176 769 l 0 769 l 0 863 l 110 863 l 110 972 l 203 972 z "},"ž":{"ha":219,"x_min":0,"x_max":203,"o":"m 203 0 l 0 0 l 0 321 q 14 354 0 342 l 110 450 l 110 660 l 93 660 l 93 494 l 0 494 l 0 753 l 203 753 l 203 431 q 189 399 203 411 l 93 301 l 93 93 l 110 93 l 110 258 l 203 258 l 203 0 m 0 972 l 93 972 l 93 889 l 101 881 l 110 889 l 110 972 l 203 972 l 203 871 q 189 838 203 850 l 135 782 q 101 768 121 768 q 68 782 82 768 l 14 838 q 0 871 0 850 l 0 972 z "},"ŕ":{"ha":219,"x_min":0,"x_max":203,"o":"m 93 0 l 0 0 l 0 753 l 157 753 q 190 739 176 753 q 203 706 203 725 l 203 439 l 110 439 l 110 660 l 93 660 l 93 0 m 203 972 l 203 815 q 190 783 203 796 q 157 769 176 769 l 0 769 l 0 863 l 110 863 l 110 972 l 203 972 z "},"ň":{"ha":219,"x_min":0,"x_max":203,"o":"m 203 0 l 110 0 l 110 660 l 93 660 l 93 0 l 0 0 l 0 753 l 157 753 q 190 740 176 753 q 203 707 203 726 l 203 0 m 0 972 l 93 972 l 93 889 l 101 881 l 110 889 l 110 972 l 203 972 l 203 871 q 189 838 203 850 l 135 782 q 101 768 121 768 q 68 782 82 768 l 14 838 q 0 871 0 850 l 0 972 z "},"Ő":{"ha":219,"x_min":0,"x_max":203,"o":"m 156 753 q 189 739 175 753 q 203 706 203 725 l 203 46 q 189 13 203 26 q 156 0 175 0 l 46 0 q 13 13 26 0 q 0 46 0 26 l 0 706 q 13 739 0 725 q 46 753 26 753 l 156 753 m 110 660 l 93 660 l 93 93 l 110 93 l 110 660 m 203 769 l 110 769 l 110 972 l 203 972 l 203 769 m 93 769 l 0 769 l 0 972 l 93 972 l 93 769 z "},"Ű":{"ha":219,"x_min":0,"x_max":203,"o":"m 110 753 l 203 753 l 203 46 q 189 13 203 26 q 156 0 175 0 l 46 0 q 13 13 26 0 q 0 46 0 26 l 0 753 l 93 753 l 93 93 l 110 93 l 110 753 m 203 769 l 110 769 l 110 972 l 203 972 l 203 769 m 93 769 l 0 769 l 0 972 l 93 972 l 93 769 z "},"Ů":{"ha":219,"x_min":0,"x_max":203,"o":"m 110 753 l 203 753 l 203 46 q 189 13 203 26 q 156 0 175 0 l 46 0 q 13 13 26 0 q 0 46 0 26 l 0 753 l 93 753 l 93 93 l 110 93 l 110 753 m 156 972 q 189 958 175 972 q 203 925 203 944 l 203 815 q 189 783 203 796 q 156 769 175 769 l 46 769 q 13 783 26 769 q 0 815 0 796 l 0 925 q 13 958 0 944 q 46 972 26 972 l 156 972 m 110 879 l 93 879 l 93 863 l 110 863 l 110 879 z "},"Ý":{"ha":219,"x_min":0,"x_max":203,"o":"m 203 753 l 203 376 q 189 343 203 357 q 156 329 175 329 l 147 329 l 147 0 l 54 0 l 54 329 l 46 329 q 13 343 26 329 q 0 376 0 357 l 0 753 l 93 753 l 93 422 l 110 422 l 110 753 l 203 753 m 203 972 l 203 815 q 190 783 203 796 q 157 769 176 769 l 0 769 l 0 863 l 110 863 l 110 972 l 203 972 z "},"ă":{"ha":219,"x_min":0,"x_max":203,"o":"m 203 0 l 46 0 q 13 13 26 0 q 0 46 0 26 l 0 376 q 13 409 0 396 q 46 422 26 422 l 110 422 l 110 660 l 93 660 l 93 439 l 0 439 l 0 706 q 13 739 0 725 q 46 753 26 753 l 157 753 q 190 739 176 753 q 203 706 203 725 l 203 0 m 93 93 l 110 93 l 110 329 l 93 329 l 93 93 m 0 972 l 93 972 l 93 863 l 110 863 l 110 972 l 203 972 l 203 817 q 190 783 203 797 q 157 769 176 769 l 46 769 q 13 783 26 769 q 0 817 0 797 l 0 972 z "},"Ă":{"ha":219,"x_min":0,"x_max":203,"o":"m 157 753 q 190 739 176 753 q 203 706 203 725 l 203 0 l 110 0 l 110 329 l 93 329 l 93 0 l 0 0 l 0 706 q 13 739 0 725 q 46 753 26 753 l 157 753 m 110 422 l 110 660 l 93 660 l 93 422 l 110 422 m 0 972 l 93 972 l 93 863 l 110 863 l 110 972 l 203 972 l 203 817 q 190 783 203 797 q 157 769 176 769 l 46 769 q 13 783 26 769 q 0 817 0 797 l 0 972 z "},"Ń":{"ha":329,"x_min":0,"x_max":313,"o":"m 313 0 l 157 0 q 124 14 138 0 q 110 47 110 28 l 110 660 l 93 660 l 93 0 l 0 0 l 0 753 l 157 753 q 190 740 176 753 q 203 707 203 726 l 203 93 l 219 93 l 219 753 l 313 753 l 313 0 m 257 972 l 257 815 q 244 783 257 796 q 211 769 231 769 l 54 769 l 54 863 l 164 863 l 164 972 l 257 972 z "},"Ň":{"ha":329,"x_min":0,"x_max":313,"o":"m 313 0 l 157 0 q 124 14 138 0 q 110 47 110 28 l 110 660 l 93 660 l 93 0 l 0 0 l 0 753 l 157 753 q 190 740 176 753 q 203 707 203 726 l 203 93 l 219 93 l 219 753 l 313 753 l 313 0 m 54 972 l 147 972 l 147 889 l 156 881 l 164 889 l 164 972 l 257 972 l 257 871 q 243 838 257 850 l 189 782 q 156 768 175 768 q 122 782 136 768 l 68 838 q 54 871 54 850 l 54 972 z "},"˙":{"ha":110,"x_min":0,"x_max":93,"o":"m 0 972 l 93 972 l 93 769 l 0 769 l 0 972 z "},"ż":{"ha":219,"x_min":0,"x_max":203,"o":"m 203 0 l 0 0 l 0 321 q 14 354 0 342 l 110 450 l 110 660 l 93 660 l 93 494 l 0 494 l 0 753 l 203 753 l 203 431 q 189 399 203 411 l 93 301 l 93 93 l 110 93 l 110 258 l 203 258 l 203 0 m 56 972 l 149 972 l 149 769 l 56 769 l 56 972 z "},"ė":{"ha":219,"x_min":0,"x_max":203,"o":"m 157 0 l 46 0 q 13 13 26 0 q 0 46 0 26 l 0 706 q 13 739 0 725 q 46 753 26 753 l 157 753 q 190 739 176 753 q 203 706 203 725 l 203 329 l 93 329 l 93 93 l 110 93 l 110 313 l 203 313 l 203 46 q 190 13 203 26 q 157 0 176 0 m 93 422 l 110 422 l 110 660 l 93 660 l 93 422 m 56 972 l 149 972 l 149 769 l 56 769 l 56 972 z "},"Ş":{"ha":219,"x_min":0,"x_max":203,"o":"m 46 0 q 13 13 26 0 q 0 46 0 26 l 0 422 l 93 422 l 93 93 l 110 93 l 110 440 l 46 440 q 13 453 26 440 q 0 486 0 467 l 0 926 q 13 959 0 946 q 46 972 26 972 l 157 972 q 190 959 176 972 q 203 926 203 946 l 203 550 l 110 550 l 110 879 l 93 879 l 93 533 l 157 533 q 190 519 176 533 q 203 486 203 506 l 203 46 q 190 13 203 26 q 157 0 176 0 l 147 0 l 147 -17 l 156 -17 q 189 -31 175 -17 q 203 -64 203 -44 l 203 -174 q 189 -206 203 -193 q 156 -219 175 -219 l 54 -219 l 54 -126 l 110 -126 l 110 -110 l 100 -110 q 67 -97 81 -110 q 54 -64 54 -83 l 54 0 l 46 0 l 46 0 z "},"ğ":{"ha":219,"x_min":0,"x_max":203,"o":"m 157 -219 l 46 -219 q 13 -206 26 -219 q 0 -174 0 -193 l 0 -17 l 93 -17 l 93 -126 l 110 -126 l 110 0 l 46 0 q 13 13 26 0 q 0 46 0 26 l 0 706 q 13 739 0 725 q 46 753 26 753 l 203 753 l 203 -174 q 190 -206 203 -193 q 157 -219 176 -219 m 93 93 l 110 93 l 110 660 l 93 660 l 93 93 m 0 972 l 93 972 l 93 863 l 110 863 l 110 972 l 203 972 l 203 817 q 190 783 203 797 q 157 769 176 769 l 46 769 q 13 783 26 769 q 0 817 0 797 l 0 972 z "},"ċ":{"ha":219,"x_min":0,"x_max":203,"o":"m 157 0 l 46 0 q 13 13 26 0 q 0 46 0 26 l 0 706 q 13 739 0 725 q 46 753 26 753 l 157 753 q 190 739 176 753 q 203 706 203 725 l 203 385 l 110 385 l 110 660 l 93 660 l 93 93 l 110 93 l 110 368 l 203 368 l 203 46 q 190 13 203 26 q 157 0 176 0 m 56 972 l 149 972 l 149 769 l 56 769 l 56 972 z "},"ĉ":{"ha":219,"x_min":0,"x_max":203,"o":"m 157 0 l 46 0 q 13 13 26 0 q 0 46 0 26 l 0 706 q 13 739 0 725 q 46 753 26 753 l 157 753 q 190 739 176 753 q 203 706 203 725 l 203 385 l 110 385 l 110 660 l 93 660 l 93 93 l 110 93 l 110 368 l 203 368 l 203 46 q 190 13 203 26 q 157 0 176 0 m 203 769 l 110 769 l 110 853 l 101 861 l 93 853 l 93 769 l 0 769 l 0 871 q 14 904 0 892 l 68 960 q 101 974 82 974 q 135 960 121 974 l 189 904 q 203 871 203 892 l 203 769 z "},"ŭ":{"ha":219,"x_min":0,"x_max":203,"o":"m 110 753 l 203 753 l 203 46 q 189 13 203 26 q 156 0 175 0 l 46 0 q 13 13 26 0 q 0 46 0 26 l 0 753 l 93 753 l 93 93 l 110 93 l 110 753 m 0 972 l 93 972 l 93 863 l 110 863 l 110 972 l 203 972 l 203 817 q 190 783 203 797 q 157 769 176 769 l 46 769 q 13 783 26 769 q 0 817 0 797 l 0 972 z "},"ŝ":{"ha":219,"x_min":0,"x_max":203,"o":"m 157 0 l 46 0 q 13 13 26 0 q 0 46 0 26 l 0 313 l 93 313 l 93 93 l 110 93 l 110 329 l 46 329 q 13 343 26 329 q 0 376 0 357 l 0 706 q 13 739 0 725 q 46 753 26 753 l 157 753 q 190 739 176 753 q 203 706 203 725 l 203 439 l 110 439 l 110 660 l 93 660 l 93 422 l 157 422 q 190 409 176 422 q 203 376 203 396 l 203 46 q 190 13 203 26 q 157 0 176 0 m 203 769 l 110 769 l 110 853 l 101 861 l 93 853 l 93 769 l 0 769 l 0 871 q 14 904 0 892 l 68 960 q 101 974 82 974 q 135 960 121 974 l 189 904 q 203 871 203 892 l 203 769 z "},"ĝ":{"ha":219,"x_min":0,"x_max":203,"o":"m 157 -219 l 46 -219 q 13 -206 26 -219 q 0 -174 0 -193 l 0 -17 l 93 -17 l 93 -126 l 110 -126 l 110 0 l 46 0 q 13 13 26 0 q 0 46 0 26 l 0 706 q 13 739 0 725 q 46 753 26 753 l 203 753 l 203 -174 q 190 -206 203 -193 q 157 -219 176 -219 m 93 93 l 110 93 l 110 660 l 93 660 l 93 93 m 203 769 l 110 769 l 110 853 l 101 861 l 93 853 l 93 769 l 0 769 l 0 871 q 14 904 0 892 l 68 960 q 101 974 82 974 q 135 960 121 974 l 189 904 q 203 871 203 892 l 203 769 z "},"ġ":{"ha":219,"x_min":0,"x_max":203,"o":"m 157 -219 l 46 -219 q 13 -206 26 -219 q 0 -174 0 -193 l 0 -17 l 93 -17 l 93 -126 l 110 -126 l 110 0 l 46 0 q 13 13 26 0 q 0 46 0 26 l 0 706 q 13 739 0 725 q 46 753 26 753 l 203 753 l 203 -174 q 190 -206 203 -193 q 157 -219 176 -219 m 93 93 l 110 93 l 110 660 l 93 660 l 93 93 m 56 972 l 149 972 l 149 769 l 56 769 l 56 972 z "},"ũ":{"ha":219,"x_min":0,"x_max":203,"o":"m 110 753 l 203 753 l 203 46 q 189 13 203 26 q 156 0 175 0 l 46 0 q 13 13 26 0 q 0 46 0 26 l 0 753 l 93 753 l 93 93 l 110 93 l 110 753 m 203 972 l 203 871 q 190 838 203 851 q 157 824 176 824 l 93 824 l 93 769 l 0 769 l 0 871 q 13 903 0 890 q 46 917 26 917 l 110 917 l 110 972 l 203 972 z "},"¢":{"ha":329,"x_min":0,"x_max":313,"o":"m 203 -110 l 110 -110 l 110 0 l 46 0 q 13 13 26 0 q 0 46 0 26 l 0 706 q 13 739 0 725 q 46 753 26 753 l 110 753 l 110 863 l 203 863 l 203 753 l 267 753 q 299 739 286 753 q 313 706 313 725 l 313 385 l 219 385 l 219 660 l 203 660 l 203 93 l 219 93 l 219 368 l 313 368 l 313 46 q 299 13 313 26 q 267 0 286 0 l 203 0 l 203 -110 m 93 93 l 110 93 l 110 660 l 93 660 l 93 93 z "},"&":{"ha":275,"x_min":0,"x_max":258,"o":"m 157 0 l 46 0 q 13 13 26 0 q 0 46 0 26 l 0 486 q 14 519 0 506 l 36 542 l 14 563 q 0 596 0 576 l 0 925 q 13 958 0 944 q 46 972 26 972 l 157 972 q 190 958 176 972 q 203 925 203 944 l 203 596 q 189 563 203 576 l 101 475 l 93 467 l 93 93 l 110 93 l 110 431 q 124 464 110 450 q 157 478 138 478 l 258 478 l 258 385 l 203 385 l 203 46 q 190 13 203 26 q 157 0 176 0 m 93 615 l 101 607 l 110 615 l 110 879 l 93 879 l 93 615 z "},"ş":{"ha":219,"x_min":0,"x_max":203,"o":"m 157 0 l 147 0 l 147 -17 l 156 -17 q 189 -31 175 -17 q 203 -64 203 -44 l 203 -174 q 189 -206 203 -193 q 156 -219 175 -219 l 54 -219 l 54 -126 l 110 -126 l 110 -110 l 100 -110 q 67 -97 81 -110 q 54 -64 54 -83 l 54 0 l 46 0 q 13 13 26 0 q 0 46 0 26 l 0 313 l 93 313 l 93 93 l 110 93 l 110 329 l 46 329 q 13 343 26 329 q 0 376 0 357 l 0 706 q 13 739 0 725 q 46 753 26 753 l 157 753 q 190 739 176 753 q 203 706 203 725 l 203 439 l 110 439 l 110 660 l 93 660 l 93 422 l 157 422 q 190 409 176 422 q 203 376 203 396 l 203 46 q 190 13 203 26 q 157 0 176 0 z "},"Ĵ":{"ha":219,"x_min":0,"x_max":203,"o":"m 157 0 l 46 0 q 13 13 26 0 q 0 46 0 26 l 0 478 l 93 478 l 93 93 l 110 93 l 110 753 l 203 753 l 203 46 q 190 13 203 26 q 157 0 176 0 m 203 769 l 110 769 l 110 853 l 101 861 l 93 853 l 93 769 l 0 769 l 0 871 q 14 904 0 892 l 68 960 q 101 974 82 974 q 135 960 121 974 l 189 904 q 203 871 203 892 l 203 769 z "},"ā":{"ha":219,"x_min":0,"x_max":203,"o":"m 203 0 l 46 0 q 13 13 26 0 q 0 46 0 26 l 0 376 q 13 409 0 396 q 46 422 26 422 l 110 422 l 110 660 l 93 660 l 93 439 l 0 439 l 0 706 q 13 739 0 725 q 46 753 26 753 l 157 753 q 190 739 176 753 q 203 706 203 725 l 203 0 m 93 93 l 110 93 l 110 329 l 93 329 l 93 93 m 203 769 l 0 769 l 0 863 l 203 863 l 203 769 l 203 769 z "},"˛":{"ha":165,"x_min":0,"x_max":149,"o":"m 46 -110 q 13 -97 26 -110 q 0 -64 0 -83 l 0 93 l 93 93 l 93 -17 l 149 -17 l 149 -110 l 46 -110 z "},"ą":{"ha":219,"x_min":0,"x_max":257,"o":"m 156 -110 q 123 -97 136 -110 q 110 -64 110 -83 l 110 0 l 46 0 q 13 13 26 0 q 0 46 0 26 l 0 376 q 13 409 0 396 q 46 422 26 422 l 110 422 l 110 660 l 93 660 l 93 439 l 0 439 l 0 706 q 13 739 0 725 q 46 753 26 753 l 157 753 q 190 739 176 753 q 203 706 203 725 l 203 -17 l 257 -17 l 257 -110 l 156 -110 m 93 93 l 110 93 l 110 329 l 93 329 l 93 93 z "},"Ą":{"ha":219,"x_min":0,"x_max":257,"o":"m 156 -110 q 123 -97 136 -110 q 110 -64 110 -83 l 110 439 l 93 439 l 93 0 l 0 0 l 0 925 q 13 958 0 944 q 46 972 26 972 l 157 972 q 190 958 176 972 q 203 925 203 944 l 203 -17 l 257 -17 l 257 -110 l 156 -110 m 110 532 l 110 879 l 93 879 l 93 532 l 110 532 z "},"Č":{"ha":219,"x_min":0,"x_max":203,"o":"m 46 0 l 156 0 q 189 13 175 0 q 203 46 203 26 l 203 376 l 110 376 l 110 93 l 93 93 l 93 660 l 110 660 l 110 393 l 203 393 l 203 706 q 189 739 203 725 q 156 753 175 753 l 46 753 q 13 739 26 753 q 0 706 0 725 l 0 46 q 13 13 0 26 q 46 0 26 0 m 0 972 l 93 972 l 93 889 l 101 881 l 110 889 l 110 972 l 203 972 l 203 871 q 189 838 203 850 l 135 782 q 101 768 121 768 q 68 782 82 768 l 14 838 q 0 871 0 850 l 0 972 z "},"Ć":{"ha":219,"x_min":0,"x_max":203,"o":"m 46 0 q 13 13 26 0 q 0 46 0 26 l 0 706 q 13 739 0 725 q 46 753 26 753 l 156 753 q 189 739 175 753 q 203 706 203 725 l 203 393 l 110 393 l 110 660 l 93 660 l 93 93 l 110 93 l 110 376 l 203 376 l 203 46 q 189 13 203 26 q 156 0 175 0 l 46 0 m 203 972 l 203 815 q 190 783 203 796 q 157 769 176 769 l 0 769 l 0 863 l 110 863 l 110 972 l 203 972 z "},"Ę":{"ha":219,"x_min":0,"x_max":203,"o":"m 203 -110 l 101 -110 q 69 -96 82 -110 q 56 -62 56 -82 l 56 0 l 0 0 l 0 972 l 203 972 l 203 549 l 110 549 l 110 879 l 93 879 l 93 532 l 203 532 l 203 439 l 93 439 l 93 93 l 110 93 l 110 422 l 203 422 l 203 0 l 149 0 l 149 -17 l 203 -17 l 203 -110 z "},"ę":{"ha":219,"x_min":0,"x_max":203,"o":"m 101 -110 q 69 -97 82 -110 q 56 -64 56 -83 l 56 0 l 46 0 q 13 13 26 0 q 0 46 0 26 l 0 706 q 13 739 0 725 q 46 753 26 753 l 157 753 q 190 739 176 753 q 203 706 203 725 l 203 329 l 93 329 l 93 93 l 110 93 l 110 313 l 203 313 l 203 46 q 190 13 203 26 q 157 0 176 0 l 149 0 l 149 -17 l 203 -17 l 203 -110 l 101 -110 m 93 422 l 110 422 l 110 660 l 93 660 l 93 422 z "},"ľ":{"ha":219,"x_min":0,"x_max":203,"o":"m 0 0 l 0 972 l 93 972 l 93 0 l 0 0 l 0 0 m 110 769 l 110 972 l 203 972 l 203 769 l 110 769 l 110 769 z "},"ť":{"ha":219,"x_min":0,"x_max":203,"o":"m 93 753 l 149 753 l 149 660 l 93 660 l 93 0 l 0 0 l 0 972 l 93 972 l 93 753 l 93 753 m 110 769 l 110 972 l 203 972 l 203 769 l 110 769 l 110 769 z "},"ď":{"ha":329,"x_min":0,"x_max":313,"o":"m 46 0 q 13 13 26 0 q 0 46 0 26 l 0 706 q 13 739 0 725 q 46 753 26 753 l 110 753 l 110 972 l 203 972 l 203 0 l 46 0 m 110 660 l 93 660 l 93 93 l 110 93 l 110 660 m 219 769 l 219 972 l 313 972 l 313 769 l 219 769 l 219 769 z "},"Ľ":{"ha":219,"x_min":0,"x_max":203,"o":"m 203 0 l 0 0 l 0 972 l 93 972 l 93 93 l 110 93 l 110 478 l 203 478 l 203 0 l 203 0 m 110 769 l 110 972 l 203 972 l 203 769 l 110 769 l 110 769 z "},"Ĺ":{"ha":219,"x_min":0,"x_max":203,"o":"m 203 0 l 0 0 l 0 753 l 93 753 l 93 93 l 110 93 l 110 478 l 203 478 l 203 0 m 203 972 l 203 815 q 190 783 203 796 q 157 769 176 769 l 0 769 l 0 863 l 110 863 l 110 972 l 203 972 z "},"ĺ":{"ha":219,"x_min":0,"x_max":203,"o":"m 58 863 l 149 863 l 149 0 l 58 0 l 58 863 m 203 1082 l 203 925 q 190 892 203 906 q 157 879 176 879 l 0 879 l 0 972 l 110 972 l 110 1082 l 203 1082 z "},"Ė":{"ha":219,"x_min":0,"x_max":203,"o":"m 203 0 l 0 0 l 0 753 l 203 753 l 203 440 l 110 440 l 110 660 l 93 660 l 93 424 l 203 424 l 203 331 l 93 331 l 93 93 l 110 93 l 110 314 l 203 314 l 203 0 l 203 0 m 56 972 l 149 972 l 149 769 l 56 769 l 56 972 z "},"Ņ":{"ha":329,"x_min":0,"x_max":313,"o":"m 110 -126 l 56 -126 l 56 -219 l 157 -219 q 190 -206 176 -219 q 203 -174 203 -193 l 203 -17 l 110 -17 l 110 -126 m 313 0 l 157 0 q 124 14 138 0 q 110 47 110 28 l 110 879 l 93 879 l 93 0 l 0 0 l 0 972 l 157 972 q 190 959 176 972 q 203 926 203 946 l 203 93 l 219 93 l 219 972 l 313 972 l 313 0 z "},"ņ":{"ha":219,"x_min":0,"x_max":203,"o":"m 54 -126 l 0 -126 l 0 -219 l 101 -219 q 134 -206 121 -219 q 147 -174 147 -193 l 147 -17 l 54 -17 l 54 -126 m 203 0 l 110 0 l 110 660 l 93 660 l 93 0 l 0 0 l 0 753 l 157 753 q 190 740 176 753 q 203 707 203 726 l 203 0 z "},"Ų":{"ha":219,"x_min":0,"x_max":203,"o":"m 46 0 q 13 13 26 0 q 0 46 0 26 l 0 972 l 93 972 l 93 93 l 110 93 l 110 972 l 203 972 l 203 46 q 190 13 203 26 q 157 0 176 0 l 149 0 l 149 -17 l 203 -17 l 203 -110 l 101 -110 q 69 -97 82 -110 q 56 -64 56 -83 l 56 0 l 46 0 l 46 0 z "},"ų":{"ha":219,"x_min":0,"x_max":257,"o":"m 156 -110 q 123 -97 136 -110 q 110 -64 110 -83 l 110 0 l 46 0 q 13 13 26 0 q 0 46 0 26 l 0 750 l 93 750 l 93 93 l 110 93 l 110 750 l 203 750 l 203 -17 l 257 -17 l 257 -110 l 156 -110 z "},"Ļ":{"ha":219,"x_min":0,"x_max":203,"o":"m 54 -126 l 0 -126 l 0 -219 l 101 -219 q 134 -206 121 -219 q 147 -174 147 -193 l 147 -17 l 54 -17 l 54 -126 m 203 0 l 0 0 l 0 972 l 93 972 l 93 93 l 110 93 l 110 478 l 203 478 l 203 0 z "},"ļ":{"ha":110,"x_min":-54,"x_max":93,"o":"m 0 -17 l 93 -17 l 93 -174 q 80 -206 93 -193 q 47 -219 67 -219 l -54 -219 l -54 -126 l 0 -126 l 0 -17 m 0 972 l 93 972 l 93 0 l 0 0 l 0 972 z "},"ģ":{"ha":219,"x_min":0,"x_max":203,"o":"m 147 769 l 54 769 l 54 926 q 67 959 54 946 q 100 972 81 972 l 203 972 l 203 879 l 147 879 l 147 769 m 157 -219 l 46 -219 q 13 -206 26 -219 q 0 -174 0 -193 l 0 -17 l 93 -17 l 93 -126 l 110 -126 l 110 0 l 46 0 q 13 13 26 0 q 0 46 0 26 l 0 706 q 13 739 0 725 q 46 753 26 753 l 203 753 l 203 -174 q 190 -206 203 -193 q 157 -219 176 -219 m 93 93 l 110 93 l 110 660 l 93 660 l 93 93 z "},"Į":{"ha":329,"x_min":0,"x_max":313,"o":"m 258 -110 l 157 -110 q 124 -96 138 -110 q 110 -62 110 -82 l 110 0 l 0 0 l 0 476 l 93 476 l 93 93 l 110 93 l 110 879 l 93 879 l 93 494 l 0 494 l 0 972 l 313 972 l 313 494 l 219 494 l 219 879 l 203 879 l 203 93 l 219 93 l 219 476 l 313 476 l 313 0 l 203 0 l 203 -17 l 258 -17 l 258 -110 z "},"į":{"ha":110,"x_min":0,"x_max":147,"o":"m 46 -110 q 13 -97 26 -110 q 0 -64 0 -83 l 0 753 l 93 753 l 93 -17 l 147 -17 l 147 -110 l 46 -110 m 93 769 l 0 769 l 0 972 l 93 972 l 93 769 z "},"Ģ":{"ha":275,"x_min":0,"x_max":258,"o":"m 54 -126 l 0 -126 l 0 -219 l 101 -219 q 134 -206 121 -219 q 147 -174 147 -193 l 147 -17 l 54 -17 l 54 -126 m 203 0 l 47 0 q 14 14 28 0 q 0 47 0 28 l 0 926 q 14 959 0 946 q 47 972 28 972 l 157 972 q 190 959 176 972 q 203 926 203 946 l 203 494 l 110 494 l 110 879 l 93 879 l 93 93 l 110 93 l 110 478 l 258 478 l 258 385 l 203 385 l 203 0 z "},"Ŗ":{"ha":219,"x_min":0,"x_max":203,"o":"m 54 -126 l 0 -126 l 0 -219 l 101 -219 q 134 -206 121 -219 q 147 -174 147 -193 l 147 -17 l 54 -17 l 54 -126 m 203 0 l 110 0 l 110 385 l 93 385 l 93 0 l 0 0 l 0 972 l 157 972 q 190 959 176 972 q 203 926 203 946 l 203 542 q 190 508 203 522 q 157 494 176 494 l 93 494 l 93 478 l 157 478 q 190 464 176 478 q 203 431 203 450 l 203 0 m 93 588 l 110 588 l 110 879 l 93 879 l 93 588 z "},"ŗ":{"ha":219,"x_min":-54,"x_max":203,"o":"m 0 -126 l -54 -126 l -54 -219 l 47 -219 q 80 -206 67 -219 q 93 -174 93 -193 l 93 -17 l 0 -17 l 0 -126 m 93 0 l 0 0 l 0 753 l 157 753 q 190 739 176 753 q 203 706 203 725 l 203 439 l 110 439 l 110 660 l 93 660 l 93 0 z "},"ķ":{"ha":219,"x_min":0,"x_max":203,"o":"m 54 -126 l 0 -126 l 0 -219 l 101 -219 q 134 -206 121 -219 q 147 -174 147 -193 l 147 -17 l 54 -17 l 54 -126 m 203 0 l 110 0 l 110 275 l 93 275 l 93 0 l 0 0 l 0 972 l 93 972 l 93 478 l 110 478 l 110 753 l 203 753 l 203 431 q 190 398 203 411 q 157 385 176 385 l 93 385 l 93 368 l 157 368 q 190 354 176 368 q 203 321 203 340 l 203 0 z "},"ē":{"ha":219,"x_min":0,"x_max":203,"o":"m 157 0 l 46 0 q 13 13 26 0 q 0 46 0 26 l 0 706 q 13 739 0 725 q 46 753 26 753 l 157 753 q 190 739 176 753 q 203 706 203 725 l 203 329 l 93 329 l 93 93 l 110 93 l 110 313 l 203 313 l 203 46 q 190 13 203 26 q 157 0 176 0 m 93 422 l 110 422 l 110 660 l 93 660 l 93 422 m 203 769 l 0 769 l 0 863 l 203 863 l 203 769 l 203 769 z "},"ī":{"ha":219,"x_min":0,"x_max":203,"o":"m 54 0 l 54 753 l 147 753 l 147 0 l 54 0 l 54 0 m 203 769 l 0 769 l 0 863 l 203 863 l 203 769 l 203 769 z "},"ō":{"ha":219,"x_min":0,"x_max":203,"o":"m 203 46 q 189 13 203 26 q 156 0 175 0 l 46 0 q 13 13 26 0 q 0 46 0 26 l 0 706 q 13 739 0 725 q 46 753 26 753 l 156 753 q 189 739 175 753 q 203 706 203 725 l 203 46 m 110 660 l 93 660 l 93 93 l 110 93 l 110 660 m 203 769 l 0 769 l 0 863 l 203 863 l 203 769 l 203 769 z "},"ū":{"ha":219,"x_min":0,"x_max":203,"o":"m 110 753 l 203 753 l 203 46 q 189 13 203 26 q 156 0 175 0 l 46 0 q 13 13 26 0 q 0 46 0 26 l 0 753 l 93 753 l 93 93 l 110 93 l 110 753 m 203 769 l 0 769 l 0 863 l 203 863 l 203 769 l 203 769 z "},"Ź":{"ha":219,"x_min":0,"x_max":203,"o":"m 203 0 l 0 0 l 0 321 q 14 354 0 342 l 110 450 l 110 660 l 93 660 l 93 494 l 0 494 l 0 753 l 203 753 l 203 431 q 189 399 203 411 l 93 301 l 93 93 l 110 93 l 110 258 l 203 258 l 203 0 m 203 972 l 203 815 q 190 783 203 796 q 157 769 176 769 l 0 769 l 0 863 l 110 863 l 110 972 l 203 972 z "},"Ž":{"ha":219,"x_min":0,"x_max":203,"o":"m 203 0 l 0 0 l 0 321 q 14 354 0 342 l 110 450 l 110 660 l 93 660 l 93 494 l 0 494 l 0 753 l 203 753 l 203 431 q 189 399 203 411 l 93 301 l 93 93 l 110 93 l 110 258 l 203 258 l 203 0 m 0 972 l 93 972 l 93 889 l 101 881 l 110 889 l 110 972 l 203 972 l 203 871 q 189 838 203 850 l 135 782 q 101 768 121 768 q 68 782 82 768 l 14 838 q 0 871 0 850 l 0 972 z "},"Ż":{"ha":219,"x_min":0,"x_max":203,"o":"m 203 0 l 0 0 l 0 321 q 14 354 0 342 l 110 450 l 110 660 l 93 660 l 93 494 l 0 494 l 0 753 l 203 753 l 203 431 q 189 399 203 411 l 93 301 l 93 93 l 110 93 l 110 258 l 203 258 l 203 0 m 56 972 l 149 972 l 149 769 l 56 769 l 56 972 z "},"Š":{"ha":219,"x_min":0,"x_max":203,"o":"m 156 0 l 46 0 q 13 13 26 0 q 0 46 0 26 l 0 313 l 93 313 l 93 93 l 110 93 l 110 329 l 46 329 q 13 343 26 329 q 0 376 0 357 l 0 706 q 13 739 0 725 q 46 753 26 753 l 156 753 q 189 739 175 753 q 203 706 203 725 l 203 439 l 110 439 l 110 660 l 93 660 l 93 422 l 156 422 q 189 409 175 422 q 203 376 203 396 l 203 46 q 189 13 203 26 q 156 0 175 0 m 0 972 l 93 972 l 93 889 l 101 881 l 110 889 l 110 972 l 203 972 l 203 871 q 189 838 203 850 l 135 782 q 101 768 121 768 q 68 782 82 768 l 14 838 q 0 871 0 850 l 0 972 z "},"Ś":{"ha":219,"x_min":0,"x_max":203,"o":"m 156 0 l 46 0 q 13 13 26 0 q 0 46 0 26 l 0 313 l 93 313 l 93 93 l 110 93 l 110 329 l 46 329 q 13 343 26 329 q 0 376 0 357 l 0 706 q 13 739 0 725 q 46 753 26 753 l 156 753 q 189 739 175 753 q 203 706 203 725 l 203 439 l 110 439 l 110 660 l 93 660 l 93 422 l 156 422 q 189 409 175 422 q 203 376 203 396 l 203 46 q 189 13 203 26 q 156 0 175 0 m 203 972 l 203 815 q 190 783 203 796 q 157 769 176 769 l 0 769 l 0 863 l 110 863 l 110 972 l 203 972 z "},"Ŝ":{"ha":219,"x_min":0,"x_max":203,"o":"m 156 0 l 46 0 q 13 13 26 0 q 0 46 0 26 l 0 313 l 93 313 l 93 93 l 110 93 l 110 329 l 46 329 q 13 343 26 329 q 0 376 0 357 l 0 706 q 13 739 0 725 q 46 753 26 753 l 156 753 q 189 739 175 753 q 203 706 203 725 l 203 439 l 110 439 l 110 660 l 93 660 l 93 422 l 156 422 q 189 409 175 422 q 203 376 203 396 l 203 46 q 189 13 203 26 q 156 0 175 0 m 203 769 l 110 769 l 110 853 l 101 861 l 93 853 l 93 769 l 0 769 l 0 871 q 14 904 0 892 l 68 960 q 101 974 82 974 q 135 960 121 974 l 189 904 q 203 871 203 892 l 203 769 z "},"Ď":{"ha":329,"x_min":0,"x_max":313,"o":"m 267 0 l 0 0 l 0 368 l 93 368 l 93 93 l 110 93 l 110 660 l 93 660 l 93 385 l 0 385 l 0 753 l 267 753 q 299 740 286 753 q 313 707 313 726 l 313 47 q 299 14 313 28 q 267 0 286 0 m 203 93 l 219 93 l 219 660 l 203 660 l 203 93 m 54 972 l 147 972 l 147 889 l 156 881 l 164 889 l 164 972 l 257 972 l 257 871 q 243 838 257 850 l 189 782 q 156 768 175 768 q 122 782 136 768 l 68 838 q 54 871 54 850 l 54 972 z "},"Đ":{"ha":329,"x_min":0,"x_max":313,"o":"m 267 0 l 0 0 l 0 422 l 93 422 l 93 93 l 110 93 l 110 439 l 0 439 l 0 532 l 110 532 l 110 879 l 93 879 l 93 550 l 0 550 l 0 972 l 267 972 q 299 958 286 972 q 313 925 313 944 l 313 46 q 299 13 313 26 q 267 0 286 0 m 203 93 l 219 93 l 219 439 l 203 439 l 203 93 m 203 532 l 219 532 l 219 879 l 203 879 l 203 532 z "},"đ":{"ha":275,"x_min":0,"x_max":258,"o":"m 203 0 l 46 0 q 13 14 26 0 q 0 47 0 28 l 0 707 q 13 740 0 726 q 46 753 26 753 l 110 753 l 110 769 l 56 769 l 56 863 l 110 863 l 110 972 l 203 972 l 203 863 l 258 863 l 258 769 l 203 769 l 203 0 m 93 93 l 110 93 l 110 660 l 93 660 l 93 93 z "},"ţ":{"ha":165,"x_min":-54,"x_max":149,"o":"m 0 -17 l 93 -17 l 93 -174 q 80 -206 93 -193 q 47 -219 67 -219 l -54 -219 l -54 -126 l 0 -126 l 0 -17 m 149 753 l 149 660 l 93 660 l 93 0 l 0 0 l 0 972 l 93 972 l 93 753 l 149 753 z "},"Ţ":{"ha":329,"x_min":0,"x_max":313,"o":"m 110 -126 l 56 -126 l 56 -219 l 157 -219 q 190 -206 176 -219 q 203 -174 203 -193 l 203 -17 l 110 -17 l 110 -126 m 203 0 l 110 0 l 110 879 l 93 879 l 93 494 l 0 494 l 0 972 l 313 972 l 313 494 l 219 494 l 219 879 l 203 879 l 203 0 z "},"Ŕ":{"ha":219,"x_min":0,"x_max":203,"o":"m 203 0 l 110 0 l 110 275 l 93 275 l 93 0 l 0 0 l 0 753 l 157 753 q 190 739 176 753 q 203 706 203 725 l 203 431 q 190 398 203 411 q 157 385 176 385 l 93 385 l 93 368 l 157 368 q 190 354 176 368 q 203 321 203 340 l 203 0 m 93 478 l 110 478 l 110 660 l 93 660 l 93 478 m 203 972 l 203 815 q 190 783 203 796 q 157 769 176 769 l 0 769 l 0 863 l 110 863 l 110 972 l 203 972 z "},"Ř":{"ha":219,"x_min":0,"x_max":203,"o":"m 203 0 l 110 0 l 110 275 l 93 275 l 93 0 l 0 0 l 0 753 l 157 753 q 190 739 176 753 q 203 706 203 725 l 203 431 q 190 398 203 411 q 157 385 176 385 l 93 385 l 93 368 l 157 368 q 190 354 176 368 q 203 321 203 340 l 203 0 m 93 478 l 110 478 l 110 660 l 93 660 l 93 478 m 0 972 l 93 972 l 93 889 l 101 881 l 110 889 l 110 972 l 203 972 l 203 871 q 189 838 203 850 l 135 782 q 101 768 121 768 q 68 782 82 768 l 14 838 q 0 871 0 850 l 0 972 z "},"ŧ":{"ha":219,"x_min":0,"x_max":203,"o":"m 0 643 l 54 643 l 54 972 l 147 972 l 147 753 l 203 753 l 203 660 l 147 660 l 147 643 l 203 643 l 203 550 l 147 550 l 147 0 l 54 0 l 54 550 l 0 550 l 0 643 z "},"Ŧ":{"ha":329,"x_min":0,"x_max":313,"o":"m 203 0 l 110 0 l 110 440 l 0 440 l 0 533 l 110 533 l 110 879 l 93 879 l 93 550 l 0 550 l 0 972 l 313 972 l 313 550 l 219 550 l 219 879 l 203 879 l 203 533 l 313 533 l 313 440 l 203 440 l 203 0 l 203 0 z "},"ĩ":{"ha":219,"x_min":0,"x_max":203,"o":"m 56 0 l 56 753 l 149 753 l 149 0 l 56 0 l 56 0 m 203 972 l 203 871 q 190 838 203 851 q 157 824 176 824 l 93 824 l 93 769 l 0 769 l 0 871 q 13 903 0 890 q 46 917 26 917 l 110 917 l 110 972 l 203 972 z "},"Ð":{"ha":329,"x_min":0,"x_max":313,"o":"m 267 0 l 0 0 l 0 422 l 93 422 l 93 93 l 110 93 l 110 439 l 0 439 l 0 532 l 110 532 l 110 879 l 93 879 l 93 550 l 0 550 l 0 972 l 267 972 q 299 958 286 972 q 313 925 313 944 l 313 46 q 299 13 313 26 q 267 0 286 0 m 203 93 l 219 93 l 219 439 l 203 439 l 203 93 m 203 532 l 219 532 l 219 879 l 203 879 l 203 532 z "},"ð":{"ha":275,"x_min":0,"x_max":258,"o":"m 203 0 l 46 0 q 13 14 26 0 q 0 47 0 28 l 0 707 q 13 740 0 726 q 46 753 26 753 l 110 753 l 110 769 l 56 769 l 56 863 l 110 863 l 110 972 l 203 972 l 203 863 l 258 863 l 258 769 l 203 769 l 203 0 m 93 93 l 110 93 l 110 660 l 93 660 l 93 93 z "},"ﬁ":{"ha":329,"x_min":0,"x_max":313,"o":"m 219 550 l 93 550 l 93 0 l 0 0 l 0 926 q 13 959 0 946 q 46 972 26 972 l 157 972 q 190 959 176 972 q 203 926 203 946 l 203 660 l 110 660 l 110 879 l 93 879 l 93 643 l 219 643 l 219 753 l 313 753 l 313 0 l 219 0 l 219 550 m 313 769 l 219 769 l 219 972 l 313 972 l 313 769 z "},"ﬂ":{"ha":329,"x_min":0,"x_max":313,"o":"m 313 0 l 219 0 l 219 972 l 313 972 l 313 0 m 93 0 l 0 0 l 0 926 q 13 959 0 946 q 46 972 26 972 l 157 972 q 190 959 176 972 q 203 926 203 946 l 203 660 l 110 660 l 110 879 l 93 879 l 93 643 l 203 643 l 203 550 l 93 550 l 93 0 z "},"Ț":{"ha":329,"x_min":0,"x_max":313,"o":"m 110 -126 l 56 -126 l 56 -219 l 157 -219 q 190 -206 176 -219 q 203 -174 203 -193 l 203 -17 l 110 -17 l 110 -126 m 203 0 l 110 0 l 110 879 l 93 879 l 93 494 l 0 494 l 0 972 l 313 972 l 313 494 l 219 494 l 219 879 l 203 879 l 203 0 z "},"ț":{"ha":165,"x_min":-54,"x_max":149,"o":"m 0 -17 l 93 -17 l 93 -174 q 80 -206 93 -193 q 47 -219 67 -219 l -54 -219 l -54 -126 l 0 -126 l 0 -17 m 149 753 l 149 660 l 93 660 l 93 0 l 0 0 l 0 972 l 93 972 l 93 753 l 149 753 z "},"Ș":{"ha":219,"x_min":0,"x_max":203,"o":"m 54 -17 l 147 -17 l 147 -174 q 134 -206 147 -193 q 101 -219 121 -219 l 0 -219 l 0 -126 l 54 -126 l 54 -17 m 46 0 q 13 13 26 0 q 0 46 0 26 l 0 422 l 93 422 l 93 93 l 110 93 l 110 440 l 46 440 q 13 453 26 440 q 0 486 0 467 l 0 926 q 13 959 0 946 q 46 972 26 972 l 157 972 q 190 959 176 972 q 203 926 203 946 l 203 550 l 110 550 l 110 879 l 93 879 l 93 533 l 157 533 q 190 519 176 533 q 203 486 203 506 l 203 46 q 190 13 203 26 q 157 0 176 0 l 46 0 z "},"ș":{"ha":219,"x_min":0,"x_max":203,"o":"m 54 -126 l 0 -126 l 0 -219 l 101 -219 q 134 -206 121 -219 q 147 -174 147 -193 l 147 -17 l 54 -17 l 54 -126 m 157 0 l 46 0 q 13 13 26 0 q 0 46 0 26 l 0 313 l 93 313 l 93 93 l 110 93 l 110 329 l 46 329 q 13 343 26 329 q 0 376 0 357 l 0 706 q 13 739 0 725 q 46 753 26 753 l 157 753 q 190 739 176 753 q 203 706 203 725 l 203 439 l 110 439 l 110 660 l 93 660 l 93 422 l 157 422 q 190 409 176 422 q 203 376 203 396 l 203 46 q 190 13 203 26 q 157 0 176 0 z "},"Ē":{"ha":219,"x_min":0,"x_max":203,"o":"m 203 0 l 0 0 l 0 863 l 203 863 l 203 494 l 110 494 l 110 769 l 93 769 l 93 478 l 203 478 l 203 385 l 93 385 l 93 93 l 110 93 l 110 368 l 203 368 l 203 0 l 203 0 m 203 879 l 0 879 l 0 972 l 203 972 l 203 879 l 203 879 z "},"Ō":{"ha":219,"x_min":0,"x_max":203,"o":"m 157 863 l 46 863 q 13 849 26 863 q 0 815 0 835 l 0 46 q 13 13 0 26 q 46 0 26 0 l 157 0 q 190 13 176 0 q 203 46 203 26 l 203 815 q 190 849 203 835 q 157 863 176 863 m 110 93 l 93 93 l 93 769 l 110 769 l 110 93 m 203 879 l 0 879 l 0 972 l 203 972 l 203 879 z "},"%":{"ha":329,"x_min":0,"x_max":313,"o":"m 267 0 l 157 0 q 124 13 138 0 q 110 46 110 26 l 110 376 q 124 409 110 396 q 157 422 138 422 l 267 422 q 299 409 286 422 q 313 376 313 396 l 313 46 q 299 13 313 26 q 267 0 286 0 m 203 93 l 219 93 l 219 329 l 203 329 l 203 93 m 93 0 l 0 0 l 0 486 q 13 519 0 506 q 46 532 26 532 l 219 532 l 219 972 l 313 972 l 313 486 q 299 453 313 467 q 267 439 286 439 l 93 439 l 93 0 m 157 550 l 46 550 q 13 563 26 550 q 0 596 0 576 l 0 925 q 13 958 0 944 q 46 972 26 972 l 157 972 q 190 958 176 972 q 203 925 203 944 l 203 596 q 190 563 203 576 q 157 550 176 550 m 93 643 l 110 643 l 110 879 l 93 879 l 93 643 z "},"*":{"ha":329,"x_min":0,"x_max":313,"o":"m 203 660 l 110 660 l 110 769 l 0 769 l 0 863 l 110 863 l 110 972 l 203 972 l 203 863 l 313 863 l 313 769 l 203 769 l 203 660 l 203 660 z "},"<":{"ha":275,"x_min":0,"x_max":258,"o":"m 258 219 l 157 219 q 124 233 138 219 l 14 343 q 0 376 0 357 q 14 410 0 394 l 124 519 q 157 532 136 532 l 258 532 l 258 439 l 175 439 l 113 376 l 175 313 l 258 313 l 258 219 z "},">":{"ha":275,"x_min":0,"x_max":258,"o":"m 101 532 q 135 519 119 532 l 244 410 q 258 376 258 394 q 244 343 258 357 l 135 233 q 101 219 118 219 l 0 219 l 0 313 l 82 313 l 146 376 l 82 439 l 0 439 l 0 532 l 101 532 z "},"¤":{"ha":329,"x_min":0,"x_max":313,"o":"m 203 111 l 110 111 l 110 221 l 101 221 q 69 235 82 221 q 56 268 56 249 l 56 440 l 0 440 l 0 533 l 56 533 l 56 707 q 69 740 56 726 q 101 754 82 754 l 110 754 l 110 864 l 203 864 l 203 754 l 211 754 q 244 740 231 754 q 258 707 258 726 l 258 533 l 313 533 l 313 440 l 258 440 l 258 268 q 244 235 258 249 q 211 221 231 221 l 203 221 l 203 111 m 149 314 l 165 314 l 165 661 l 149 661 l 149 314 z "},"¦":{"ha":110,"x_min":0,"x_max":93,"o":"m 93 -110 l 0 -110 l 0 424 l 93 424 l 93 -110 l 93 -110 m 93 550 l 0 550 l 0 1082 l 93 1082 l 93 550 l 93 550 z "},"ª":{"ha":219,"x_min":0,"x_max":203,"o":"m 203 550 l 46 550 q 13 563 26 550 q 0 596 0 576 l 0 761 q 13 794 0 781 q 46 807 26 807 l 110 807 l 110 879 l 93 879 l 93 825 l 0 825 l 0 926 q 13 959 0 946 q 46 972 26 972 l 157 972 q 190 959 176 972 q 203 926 203 946 l 203 550 m 93 643 l 110 643 l 110 714 l 93 714 l 93 643 z "},"«":{"ha":329,"x_min":0,"x_max":313,"o":"m 313 221 l 211 221 q 178 234 192 221 q 165 267 165 247 l 165 486 q 178 519 165 506 q 211 533 192 533 l 313 533 l 313 440 l 258 440 l 258 314 l 313 314 l 313 221 m 149 221 l 46 221 q 13 234 26 221 q 0 267 0 247 l 0 486 q 13 519 0 506 q 46 533 26 533 l 149 533 l 149 440 l 93 440 l 93 314 l 149 314 l 149 221 z "},"¬":{"ha":329,"x_min":0,"x_max":313,"o":"m 313 221 l 219 221 l 219 331 l 0 331 l 0 424 l 313 424 l 313 221 l 313 221 z "},"±":{"ha":329,"x_min":0,"x_max":313,"o":"m 313 165 l 0 165 l 0 258 l 313 258 l 313 165 l 313 165 m 203 275 l 110 275 l 110 385 l 0 385 l 0 478 l 110 478 l 110 589 l 203 589 l 203 478 l 313 478 l 313 385 l 203 385 l 203 275 l 203 275 z "},"»":{"ha":329,"x_min":0,"x_max":313,"o":"m 0 314 l 54 314 l 54 440 l 0 440 l 0 533 l 101 533 q 134 519 121 533 q 147 486 147 506 l 147 267 q 134 234 147 247 q 101 221 121 221 l 0 221 l 0 314 m 164 314 l 219 314 l 219 440 l 164 440 l 164 533 l 267 533 q 299 519 286 533 q 313 486 313 506 l 313 267 q 299 234 313 247 q 267 221 286 221 l 164 221 l 164 314 z "},"¯":{"ha":219,"x_min":0,"x_max":203,"o":"m 203 769 l 0 769 l 0 863 l 203 863 l 203 769 l 203 769 z "},"Þ":{"ha":219,"x_min":0,"x_max":203,"o":"m 93 0 l 0 0 l 0 972 l 93 972 l 93 863 l 157 863 q 190 849 176 863 q 203 817 203 836 l 203 157 q 190 124 203 138 q 157 111 176 111 l 93 111 l 93 0 m 93 204 l 110 204 l 110 769 l 93 769 l 93 204 z "},"þ":{"ha":219,"x_min":0,"x_max":203,"o":"m 93 -219 l 0 -219 l 0 972 l 93 972 l 93 753 l 157 753 q 190 739 176 753 q 203 706 203 725 l 203 46 q 190 13 203 26 q 157 0 176 0 l 93 0 l 93 -219 m 93 93 l 110 93 l 110 660 l 93 660 l 93 93 z "},"Ĉ":{"ha":219,"x_min":0,"x_max":203,"o":"m 157 0 l 46 0 q 13 13 26 0 q 0 46 0 26 l 0 707 q 13 740 0 726 q 46 753 26 753 l 157 753 q 190 740 176 753 q 203 707 203 726 l 203 383 l 110 383 l 110 658 l 93 658 l 93 93 l 110 93 l 110 367 l 203 367 l 203 46 q 190 13 203 26 q 157 0 176 0 m 203 769 l 110 769 l 110 853 l 101 861 l 93 853 l 93 769 l 0 769 l 0 871 q 14 904 0 892 l 68 960 q 101 974 82 974 q 135 960 121 974 l 189 904 q 203 871 203 892 l 203 769 z "},"Ċ":{"ha":219,"x_min":0,"x_max":203,"o":"m 157 0 l 46 0 q 13 13 26 0 q 0 46 0 26 l 0 707 q 13 740 0 726 q 46 753 26 753 l 157 753 q 190 740 176 753 q 203 707 203 726 l 203 385 l 110 385 l 110 660 l 93 660 l 93 94 l 110 94 l 110 368 l 203 368 l 203 46 q 190 13 203 26 q 157 0 176 0 m 56 972 l 149 972 l 149 769 l 56 769 l 56 972 z "},"ĕ":{"ha":219,"x_min":0,"x_max":203,"o":"m 157 0 l 46 0 q 13 13 26 0 q 0 46 0 26 l 0 706 q 13 739 0 725 q 46 753 26 753 l 157 753 q 190 739 176 753 q 203 706 203 725 l 203 329 l 93 329 l 93 93 l 110 93 l 110 313 l 203 313 l 203 46 q 190 13 203 26 q 157 0 176 0 m 93 422 l 110 422 l 110 660 l 93 660 l 93 422 m 0 972 l 93 972 l 93 863 l 110 863 l 110 972 l 203 972 l 203 817 q 190 783 203 797 q 157 769 176 769 l 46 769 q 13 783 26 769 q 0 817 0 797 l 0 972 z "},"Ĕ":{"ha":219,"x_min":0,"x_max":203,"o":"m 203 0 l 0 0 l 0 753 l 203 753 l 203 440 l 110 440 l 110 660 l 93 660 l 93 424 l 203 424 l 203 331 l 93 331 l 93 93 l 110 93 l 110 314 l 203 314 l 203 0 m 0 972 l 93 972 l 93 863 l 110 863 l 110 972 l 203 972 l 203 817 q 190 783 203 797 q 157 769 176 769 l 46 769 q 13 783 26 769 q 0 817 0 797 l 0 972 z "},"Ĝ":{"ha":275,"x_min":0,"x_max":258,"o":"m 203 0 l 46 0 q 13 13 26 0 q 0 46 0 26 l 0 706 q 13 739 0 725 q 46 753 26 753 l 157 753 q 190 739 176 753 q 203 706 203 725 l 203 385 l 110 385 l 110 660 l 93 660 l 93 93 l 110 93 l 110 368 l 258 368 l 258 275 l 203 275 l 203 0 m 203 769 l 110 769 l 110 853 l 101 861 l 93 853 l 93 769 l 0 769 l 0 871 q 14 904 0 892 l 68 960 q 101 974 82 974 q 135 960 121 974 l 189 904 q 203 871 203 892 l 203 769 z "},"Ğ":{"ha":275,"x_min":0,"x_max":258,"o":"m 203 0 l 46 0 q 13 13 26 0 q 0 46 0 26 l 0 706 q 13 739 0 725 q 46 753 26 753 l 157 753 q 190 739 176 753 q 203 706 203 725 l 203 385 l 110 385 l 110 660 l 93 660 l 93 93 l 110 93 l 110 368 l 258 368 l 258 275 l 203 275 l 203 0 m 0 972 l 93 972 l 93 863 l 110 863 l 110 972 l 203 972 l 203 817 q 190 783 203 797 q 157 769 176 769 l 46 769 q 13 783 26 769 q 0 817 0 797 l 0 972 z "},"Ġ":{"ha":275,"x_min":0,"x_max":258,"o":"m 203 0 l 46 0 q 13 13 26 0 q 0 46 0 26 l 0 706 q 13 739 0 725 q 46 753 26 753 l 157 753 q 190 739 176 753 q 203 706 203 725 l 203 385 l 110 385 l 110 660 l 93 660 l 93 93 l 110 93 l 110 368 l 258 368 l 258 275 l 203 275 l 203 0 m 56 972 l 149 972 l 149 769 l 56 769 l 56 972 z "},"Ĥ":{"ha":219,"x_min":0,"x_max":203,"o":"m 203 0 l 110 0 l 110 329 l 93 329 l 93 0 l 0 0 l 0 753 l 93 753 l 93 422 l 110 422 l 110 753 l 203 753 l 203 0 m 203 769 l 110 769 l 110 853 l 101 861 l 93 853 l 93 769 l 0 769 l 0 871 q 14 904 0 892 l 68 960 q 101 974 82 974 q 135 960 121 974 l 189 904 q 203 871 203 892 l 203 769 z "},"ĥ":{"ha":219,"x_min":0,"x_max":203,"o":"m 203 0 l 110 0 l 110 550 l 93 550 l 93 0 l 0 0 l 0 753 l 93 753 l 93 643 l 157 643 q 190 629 176 643 q 203 596 203 615 l 203 0 m 203 769 l 110 769 l 110 853 l 101 861 l 93 853 l 93 769 l 0 769 l 0 871 q 14 904 0 892 l 68 960 q 101 974 82 974 q 135 960 121 974 l 189 904 q 203 871 203 892 l 203 769 z "},"Ħ":{"ha":329,"x_min":0,"x_max":313,"o":"m 258 0 l 165 0 l 165 439 l 149 439 l 149 0 l 56 0 l 56 660 l 0 660 l 0 753 l 56 753 l 56 972 l 149 972 l 149 753 l 165 753 l 165 972 l 258 972 l 258 753 l 313 753 l 313 660 l 258 660 l 258 0 l 258 0 m 149 532 l 165 532 l 165 660 l 149 660 l 149 532 l 149 532 z "},"ħ":{"ha":275,"x_min":0,"x_max":258,"o":"m 258 0 l 165 0 l 165 660 l 149 660 l 149 0 l 56 0 l 56 769 l 0 769 l 0 863 l 56 863 l 56 972 l 149 972 l 149 863 l 203 863 l 203 769 l 149 769 l 149 753 l 211 753 q 244 739 231 753 q 258 706 258 725 l 258 0 z "},"ĭ":{"ha":219,"x_min":0,"x_max":203,"o":"m 56 0 l 56 753 l 149 753 l 149 0 l 56 0 l 56 0 m 0 972 l 93 972 l 93 863 l 110 863 l 110 972 l 203 972 l 203 817 q 190 783 203 797 q 157 769 176 769 l 46 769 q 13 783 26 769 q 0 817 0 797 l 0 972 z "},"·":{"ha":110,"x_min":0,"x_max":93,"o":"m 93 275 l 0 275 l 0 478 l 93 478 l 93 275 l 93 275 z "},"º":{"ha":219,"x_min":0,"x_max":203,"o":"m 157 550 l 47 550 q 14 563 28 550 q 0 596 0 576 l 0 925 q 14 958 0 944 q 47 972 28 972 l 157 972 q 190 958 176 972 q 203 925 203 944 l 203 596 q 190 563 203 576 q 157 550 176 550 m 93 643 l 110 643 l 110 879 l 93 879 l 93 643 z "},"Ì":{"ha":329,"x_min":0,"x_max":313,"o":"m 313 0 l 0 0 l 0 368 l 93 368 l 93 93 l 110 93 l 110 660 l 93 660 l 93 385 l 0 385 l 0 753 l 313 753 l 313 385 l 219 385 l 219 660 l 203 660 l 203 93 l 219 93 l 219 368 l 313 368 l 313 0 m 257 769 l 100 769 q 67 783 81 769 q 54 815 54 796 l 54 972 l 147 972 l 147 863 l 257 863 l 257 769 z "},"Í":{"ha":329,"x_min":0,"x_max":313,"o":"m 313 0 l 0 0 l 0 368 l 93 368 l 93 93 l 110 93 l 110 660 l 93 660 l 93 385 l 0 385 l 0 753 l 313 753 l 313 385 l 219 385 l 219 660 l 203 660 l 203 93 l 219 93 l 219 368 l 313 368 l 313 0 m 257 972 l 257 815 q 244 783 257 796 q 211 769 231 769 l 54 769 l 54 863 l 164 863 l 164 972 l 257 972 z "},"Î":{"ha":329,"x_min":0,"x_max":313,"o":"m 313 0 l 0 0 l 0 368 l 93 368 l 93 93 l 110 93 l 110 660 l 93 660 l 93 385 l 0 385 l 0 753 l 313 753 l 313 385 l 219 385 l 219 660 l 203 660 l 203 93 l 219 93 l 219 368 l 313 368 l 313 0 m 257 769 l 164 769 l 164 853 l 156 861 l 147 853 l 147 769 l 54 769 l 54 871 q 68 904 54 892 l 122 960 q 156 974 136 974 q 189 960 175 974 l 243 904 q 257 871 257 892 l 257 769 z "},"Ï":{"ha":329,"x_min":0,"x_max":313,"o":"m 313 0 l 0 0 l 0 368 l 93 368 l 93 93 l 110 93 l 110 660 l 93 660 l 93 385 l 0 385 l 0 753 l 313 753 l 313 385 l 219 385 l 219 660 l 203 660 l 203 93 l 219 93 l 219 368 l 313 368 l 313 0 m 257 972 l 257 769 l 164 769 l 164 769 l 164 769 l 164 972 l 257 972 m 147 972 l 147 769 l 54 769 l 54 972 l 147 972 l 147 972 l 147 972 z "},"Ā":{"ha":219,"x_min":0,"x_max":203,"o":"m 157 863 l 46 863 q 13 849 26 863 q 0 815 0 835 l 0 478 l 0 385 l 0 0 l 93 0 l 93 385 l 110 385 l 110 0 l 203 0 l 203 385 l 203 478 l 203 815 q 190 849 203 835 q 157 863 176 863 m 93 478 l 93 769 l 110 769 l 110 478 l 93 478 m 203 879 l 0 879 l 0 972 l 203 972 l 203 879 z "},"Ĩ":{"ha":329,"x_min":0,"x_max":313,"o":"m 313 0 l 0 0 l 0 368 l 93 368 l 93 93 l 110 93 l 110 660 l 93 660 l 93 385 l 0 385 l 0 753 l 313 753 l 313 385 l 219 385 l 219 660 l 203 660 l 203 93 l 219 93 l 219 368 l 313 368 l 313 0 m 257 972 l 257 871 q 244 838 257 851 q 211 824 231 824 l 147 824 l 147 769 l 54 769 l 54 871 q 67 903 54 890 q 100 917 81 917 l 164 917 l 164 972 l 257 972 z "},"Ī":{"ha":329,"x_min":0,"x_max":313,"o":"m 313 0 l 0 0 l 0 424 l 93 424 l 93 93 l 110 93 l 110 769 l 93 769 l 93 440 l 0 440 l 0 863 l 313 863 l 313 440 l 219 440 l 219 769 l 203 769 l 203 93 l 219 93 l 219 424 l 313 424 l 313 0 l 313 0 m 258 879 l 56 879 l 56 972 l 258 972 l 258 879 l 258 879 z "},"Ĭ":{"ha":329,"x_min":0,"x_max":313,"o":"m 313 0 l 0 0 l 0 368 l 93 368 l 93 93 l 110 93 l 110 660 l 93 660 l 93 385 l 0 385 l 0 753 l 313 753 l 313 385 l 219 385 l 219 660 l 203 660 l 203 93 l 219 93 l 219 368 l 313 368 l 313 0 m 54 972 l 147 972 l 147 863 l 164 863 l 164 972 l 257 972 l 257 817 q 244 783 257 797 q 211 769 231 769 l 100 769 q 67 783 81 769 q 54 817 54 797 l 54 972 z "},"İ":{"ha":329,"x_min":0,"x_max":313,"o":"m 313 0 l 0 0 l 0 368 l 93 368 l 93 93 l 110 93 l 110 660 l 93 660 l 93 385 l 0 385 l 0 753 l 313 753 l 313 385 l 219 385 l 219 660 l 203 660 l 203 93 l 219 93 l 219 368 l 313 368 l 313 0 m 110 972 l 203 972 l 203 769 l 110 769 l 110 972 z "},"Ĳ":{"ha":329,"x_min":0,"x_max":313,"o":"m 0 972 l 93 972 l 93 0 l 0 0 l 0 972 m 267 0 l 157 0 q 124 14 138 0 q 110 47 110 28 l 110 478 l 203 478 l 203 93 l 219 93 l 219 879 l 203 879 l 203 769 l 110 769 l 110 972 l 313 972 l 313 47 q 299 14 313 28 q 267 0 286 0 z "},"ĳ":{"ha":219,"x_min":0,"x_max":203,"o":"m 0 0 l 0 753 l 93 753 l 93 0 l 0 0 m 93 972 l 93 769 l 0 769 l 0 972 l 93 972 m 203 -172 q 190 -206 203 -192 q 157 -219 176 -219 l 46 -219 q 13 -206 26 -219 q 0 -172 0 -192 l 0 -17 l 93 -17 l 93 -126 l 110 -126 l 110 753 l 203 753 l 203 -172 m 110 972 l 203 972 l 203 771 l 110 771 l 110 972 z "},"ĵ":{"ha":219,"x_min":0,"x_max":203,"o":"m 203 -172 l 203 753 l 110 753 l 110 -126 l 93 -126 l 93 -15 l 0 -15 l 0 -172 q 13 -206 0 -192 q 46 -219 26 -219 l 157 -219 q 190 -206 176 -219 q 203 -172 203 -192 m 203 771 l 110 771 l 110 854 l 101 863 l 93 854 l 93 771 l 0 771 l 0 872 q 14 906 0 893 l 68 961 q 101 975 82 975 q 135 961 121 975 l 189 906 q 203 872 203 893 l 203 771 z "},"Ķ":{"ha":219,"x_min":0,"x_max":203,"o":"m 54 -17 l 147 -17 l 147 -174 q 134 -206 147 -193 q 101 -219 121 -219 l 0 -219 l 0 -126 l 54 -126 l 54 -17 m 93 0 l 0 0 l 0 385 l 0 478 l 0 494 l 0 588 l 0 972 l 93 972 l 93 588 l 110 588 l 110 972 l 203 972 l 203 542 q 190 508 203 522 q 157 494 176 494 l 93 494 l 93 478 l 157 478 q 190 464 176 478 q 203 431 203 450 l 203 0 l 110 0 l 110 385 l 93 385 l 93 0 z "},"ĸ":{"ha":219,"x_min":0,"x_max":203,"o":"m 203 0 l 110 0 l 110 275 l 93 275 l 93 0 l 0 0 l 0 753 l 93 753 l 93 478 l 110 478 l 110 753 l 203 753 l 203 431 q 190 398 203 411 q 157 385 176 385 l 93 385 l 93 368 l 157 368 q 190 354 176 368 q 203 321 203 340 l 203 0 z "},"Ŀ":{"ha":219,"x_min":0,"x_max":203,"o":"m 203 0 l 0 0 l 0 972 l 93 972 l 93 93 l 110 93 l 110 368 l 203 368 l 203 0 l 203 0 m 203 385 l 110 385 l 110 588 l 203 588 l 203 385 l 203 385 z "},"ŀ":{"ha":219,"x_min":0,"x_max":203,"o":"m 0 0 l 0 972 l 93 972 l 93 0 l 0 0 l 0 0 m 203 385 l 110 385 l 110 588 l 203 588 l 203 385 l 203 385 z "},"Ł":{"ha":275,"x_min":0,"x_max":258,"o":"m 258 0 l 56 0 l 56 494 l 0 494 l 0 588 l 56 588 l 56 972 l 149 972 l 149 588 l 203 588 l 203 494 l 149 494 l 149 93 l 165 93 l 165 478 l 258 478 l 258 0 l 258 0 z "},"ł":{"ha":221,"x_min":0,"x_max":204,"o":"m 149 0 l 56 0 l 56 496 l 0 496 l 0 589 l 56 589 l 56 972 l 149 972 l 149 589 l 204 589 l 204 496 l 149 496 l 149 0 l 149 0 z "},"ŉ":{"ha":219,"x_min":0,"x_max":203,"o":"m 203 0 l 110 0 l 110 660 l 93 660 l 93 0 l 0 0 l 0 753 l 157 753 q 190 740 176 753 q 203 707 203 726 l 203 0 m 54 972 l 147 972 l 147 815 q 134 783 147 796 q 101 769 121 769 l 0 769 l 0 863 l 54 863 l 54 972 z "},"Ŋ":{"ha":219,"x_min":0,"x_max":203,"o":"m 157 -110 l 56 -110 l 56 -17 l 110 -17 l 110 879 l 93 879 l 93 0 l 0 0 l 0 972 l 157 972 q 190 958 176 972 q 203 925 203 944 l 203 -62 q 190 -96 203 -82 q 157 -110 176 -110 z "},"ŋ":{"ha":219,"x_min":0,"x_max":203,"o":"m 157 -110 l 56 -110 l 56 -17 l 110 -17 l 110 660 l 93 660 l 93 0 l 0 0 l 0 753 l 157 753 q 190 740 176 753 q 203 707 203 726 l 203 -64 q 190 -97 203 -83 q 157 -110 176 -110 z "},"Ŏ":{"ha":219,"x_min":0,"x_max":203,"o":"m 157 753 q 190 739 176 753 q 203 706 203 725 l 203 46 q 190 13 203 26 q 157 0 176 0 l 46 0 q 13 13 26 0 q 0 46 0 26 l 0 706 q 13 739 0 725 q 46 753 26 753 l 157 753 m 110 660 l 93 660 l 93 93 l 110 93 l 110 660 m 0 972 l 93 972 l 93 863 l 110 863 l 110 972 l 203 972 l 203 817 q 190 783 203 797 q 157 769 176 769 l 46 769 q 13 783 26 769 q 0 817 0 797 l 0 972 z "},"ŏ":{"ha":219,"x_min":0,"x_max":203,"o":"m 203 46 q 189 13 203 26 q 156 0 175 0 l 46 0 q 13 13 26 0 q 0 46 0 26 l 0 706 q 13 739 0 725 q 46 753 26 753 l 156 753 q 189 739 175 753 q 203 706 203 725 l 203 46 m 110 660 l 93 660 l 93 93 l 110 93 l 110 660 m 0 972 l 93 972 l 93 863 l 110 863 l 110 972 l 203 972 l 203 817 q 190 783 203 797 q 157 769 176 769 l 46 769 q 13 783 26 769 q 0 817 0 797 l 0 972 z "},"Ť":{"ha":329,"x_min":0,"x_max":313,"o":"m 203 0 l 110 0 l 110 660 l 93 660 l 93 385 l 0 385 l 0 753 l 313 753 l 313 385 l 219 385 l 219 660 l 203 660 l 203 0 m 56 972 l 149 972 l 149 889 l 157 881 l 165 889 l 165 972 l 258 972 l 258 871 q 244 838 258 850 l 190 782 q 157 768 176 768 q 124 782 138 768 l 69 838 q 56 871 56 850 l 56 972 z "},"Ũ":{"ha":219,"x_min":0,"x_max":203,"o":"m 110 753 l 203 753 l 203 46 q 189 13 203 26 q 156 0 175 0 l 46 0 q 13 13 26 0 q 0 46 0 26 l 0 753 l 93 753 l 93 93 l 110 93 l 110 753 m 203 972 l 203 871 q 190 838 203 851 q 157 824 176 824 l 93 824 l 93 769 l 0 769 l 0 871 q 13 903 0 890 q 46 917 26 917 l 110 917 l 110 972 l 203 972 z "},"Ū":{"ha":219,"x_min":0,"x_max":203,"o":"m 46 0 l 157 0 q 190 13 176 0 q 203 46 203 26 l 203 863 l 110 863 l 110 93 l 93 93 l 93 863 l 0 863 l 0 46 q 13 13 0 26 q 46 0 26 0 m 203 879 l 0 879 l 0 972 l 203 972 l 203 879 z "},"Ŭ":{"ha":219,"x_min":0,"x_max":203,"o":"m 110 753 l 203 753 l 203 46 q 189 13 203 26 q 156 0 175 0 l 46 0 q 13 13 26 0 q 0 46 0 26 l 0 753 l 93 753 l 93 93 l 110 93 l 110 753 m 0 972 l 93 972 l 93 863 l 110 863 l 110 972 l 203 972 l 203 817 q 190 783 203 797 q 157 769 176 769 l 46 769 q 13 783 26 769 q 0 817 0 797 l 0 972 z "},"Ŵ":{"ha":329,"x_min":0,"x_max":313,"o":"m 46 0 q 13 14 26 0 q 0 47 0 28 l 0 753 l 93 753 l 93 93 l 110 93 l 110 753 l 203 753 l 203 93 l 219 93 l 219 753 l 313 753 l 313 0 l 46 0 m 258 769 l 165 769 l 165 853 l 157 861 l 149 853 l 149 769 l 56 769 l 56 871 q 69 904 56 892 l 124 960 q 157 974 138 974 q 190 960 176 974 l 244 904 q 258 871 258 892 l 258 769 z "},"ŵ":{"ha":329,"x_min":0,"x_max":313,"o":"m 46 0 q 13 13 26 0 q 0 46 0 26 l 0 753 l 93 753 l 93 93 l 110 93 l 110 753 l 203 753 l 203 93 l 219 93 l 219 753 l 313 753 l 313 0 l 46 0 m 258 769 l 165 769 l 165 853 l 157 861 l 149 853 l 149 769 l 56 769 l 56 871 q 69 904 56 892 l 124 960 q 157 974 138 974 q 190 960 176 974 l 244 904 q 258 871 258 892 l 258 769 z "},"Ŷ":{"ha":219,"x_min":0,"x_max":203,"o":"m 149 0 l 56 0 l 56 329 l 47 329 q 14 343 28 329 q 0 376 0 357 l 0 753 l 93 753 l 93 422 l 110 422 l 110 753 l 203 753 l 203 376 q 190 343 203 357 q 157 329 176 329 l 149 329 l 149 0 m 203 769 l 110 769 l 110 853 l 101 861 l 93 853 l 93 769 l 0 769 l 0 871 q 14 904 0 892 l 68 960 q 101 974 82 974 q 135 960 121 974 l 189 904 q 203 871 203 892 l 203 769 z "},"ŷ":{"ha":219,"x_min":0,"x_max":203,"o":"m 110 753 l 203 753 l 203 -174 q 189 -206 203 -193 q 156 -219 175 -219 l 46 -219 q 13 -206 26 -219 q 0 -174 0 -193 l 0 -17 l 93 -17 l 93 -126 l 110 -126 l 110 0 l 46 0 q 13 13 26 0 q 0 46 0 26 l 0 753 l 93 753 l 93 93 l 110 93 l 110 753 m 203 769 l 110 769 l 110 853 l 101 861 l 93 853 l 93 769 l 0 769 l 0 871 q 14 904 0 892 l 68 960 q 101 974 82 974 q 135 960 121 974 l 189 904 q 203 871 203 892 l 203 769 z "},"ſ":{"ha":275,"x_min":0,"x_max":258,"o":"m 149 0 l 56 0 l 56 550 l 0 550 l 0 643 l 56 643 l 56 925 q 69 958 56 944 q 101 972 82 972 l 211 972 q 244 958 231 972 q 258 925 258 944 l 258 660 l 165 660 l 165 879 l 149 879 l 149 0 z "},"Ǻ":{"ha":219,"x_min":0,"x_max":203,"o":"m 203 0 l 110 0 l 110 275 l 93 275 l 93 0 l 0 0 l 0 596 q 14 629 0 615 q 47 643 28 643 l 157 643 q 190 629 176 643 q 203 596 203 615 l 203 0 m 94 368 l 111 368 l 111 550 l 94 550 l 94 368 m 156 863 l 46 863 q 13 849 26 863 q 0 815 0 835 l 0 706 q 13 673 0 686 q 46 660 26 660 l 156 660 q 189 673 175 660 q 203 706 203 686 l 203 815 q 189 849 203 835 q 156 863 175 863 m 110 753 l 93 753 l 93 769 l 110 769 l 110 753 m 203 879 l 0 879 l 0 972 l 203 972 l 203 879 z "},"ǻ":{"ha":219,"x_min":0,"x_max":203,"o":"m 203 0 l 46 0 q 13 14 26 0 q 0 47 0 28 l 0 322 q 13 355 0 342 q 46 368 26 368 l 110 368 l 110 550 l 93 550 l 93 385 l 0 385 l 0 597 q 13 630 0 617 q 46 643 26 643 l 157 643 q 190 630 176 643 q 203 597 203 617 l 203 0 m 93 93 l 110 93 l 110 275 l 93 275 l 93 93 m 156 863 l 46 863 q 13 849 26 863 q 0 815 0 835 l 0 706 q 13 673 0 686 q 46 660 26 660 l 156 660 q 189 673 175 660 q 203 706 203 686 l 203 815 q 189 849 203 835 q 156 863 175 863 m 110 753 l 93 753 l 93 769 l 110 769 l 110 753 m 203 879 l 0 879 l 0 972 l 203 972 l 203 879 z "},"Ǽ":{"ha":329,"x_min":0,"x_max":313,"o":"m 313 0 l 110 0 l 110 329 l 93 329 l 93 0 l 0 0 l 0 706 q 13 739 0 725 q 46 753 26 753 l 313 753 l 313 439 l 219 439 l 219 660 l 203 660 l 203 422 l 313 422 l 313 329 l 203 329 l 203 93 l 219 93 l 219 313 l 313 313 l 313 0 m 93 422 l 110 422 l 110 660 l 93 660 l 93 422 m 258 972 l 258 815 q 245 783 258 796 q 213 769 232 769 l 56 769 l 56 863 l 165 863 l 165 972 l 258 972 z "},"ǽ":{"ha":329,"x_min":0,"x_max":313,"o":"m 267 0 l 46 0 q 13 13 26 0 q 0 46 0 26 l 0 376 q 13 409 0 396 q 46 422 26 422 l 110 422 l 110 660 l 93 660 l 93 439 l 0 439 l 0 706 q 13 739 0 725 q 46 753 26 753 l 267 753 q 299 739 286 753 q 313 706 313 725 l 313 329 l 203 329 l 203 93 l 219 93 l 219 313 l 313 313 l 313 46 q 299 13 313 26 q 267 0 286 0 m 203 422 l 219 422 l 219 660 l 203 660 l 203 422 m 93 93 l 110 93 l 110 329 l 93 329 l 93 93 m 257 972 l 257 815 q 244 783 257 796 q 211 769 231 769 l 54 769 l 54 863 l 164 863 l 164 972 l 257 972 z "},"Ǿ":{"ha":331,"x_min":0,"x_max":314,"o":"m 204 0 l 111 0 l 111 110 l 47 110 q 14 124 28 110 q 0 157 0 138 l 0 706 q 14 739 0 725 q 47 753 28 753 l 267 753 q 300 739 286 753 q 314 706 314 725 l 314 157 q 300 124 314 138 q 267 110 286 110 l 204 110 l 204 0 m 204 203 l 221 203 l 221 660 l 204 660 l 204 203 m 93 203 l 111 203 l 111 660 l 93 660 l 93 203 m 258 972 l 258 815 q 245 783 258 796 q 213 769 232 769 l 56 769 l 56 863 l 165 863 l 165 972 l 258 972 z "},"ǿ":{"ha":331,"x_min":0,"x_max":314,"o":"m 267 753 q 300 739 286 753 q 314 706 314 725 l 314 46 q 300 13 314 26 q 267 0 286 0 l 204 0 l 204 -110 l 111 -110 l 111 0 l 47 0 q 14 13 28 0 q 0 46 0 26 l 0 706 q 14 739 0 725 q 47 753 28 753 l 267 753 m 111 93 l 111 660 l 93 660 l 93 93 l 111 93 m 221 660 l 204 660 l 204 93 l 221 93 l 221 660 m 258 972 l 258 815 q 245 783 258 796 q 213 769 232 769 l 56 769 l 56 863 l 165 863 l 165 972 l 258 972 z "},"Ẁ":{"ha":329,"x_min":0,"x_max":313,"o":"m 46 0 q 13 13 26 0 q 0 46 0 26 l 0 753 l 93 753 l 93 93 l 110 93 l 110 753 l 203 753 l 203 93 l 219 93 l 219 753 l 313 753 l 313 0 l 46 0 m 258 769 l 101 769 q 69 783 82 769 q 56 815 56 796 l 56 972 l 149 972 l 149 863 l 258 863 l 258 769 z "},"ẁ":{"ha":329,"x_min":0,"x_max":313,"o":"m 46 0 q 13 13 26 0 q 0 46 0 26 l 0 753 l 93 753 l 93 93 l 110 93 l 110 753 l 203 753 l 203 93 l 219 93 l 219 753 l 313 753 l 313 0 l 46 0 m 258 769 l 101 769 q 69 783 82 769 q 56 815 56 796 l 56 972 l 149 972 l 149 863 l 258 863 l 258 769 z "},"Ẃ":{"ha":329,"x_min":0,"x_max":313,"o":"m 46 0 q 13 13 26 0 q 0 46 0 26 l 0 753 l 93 753 l 93 93 l 110 93 l 110 753 l 203 753 l 203 93 l 219 93 l 219 753 l 313 753 l 313 0 l 46 0 m 258 972 l 258 815 q 245 783 258 796 q 213 769 232 769 l 56 769 l 56 863 l 165 863 l 165 972 l 258 972 z "},"ẃ":{"ha":329,"x_min":0,"x_max":313,"o":"m 46 0 q 13 13 26 0 q 0 46 0 26 l 0 753 l 93 753 l 93 93 l 110 93 l 110 753 l 203 753 l 203 93 l 219 93 l 219 753 l 313 753 l 313 0 l 46 0 m 258 972 l 258 815 q 245 783 258 796 q 213 769 232 769 l 56 769 l 56 863 l 165 863 l 165 972 l 258 972 z "},"Ẅ":{"ha":329,"x_min":0,"x_max":313,"o":"m 46 0 q 13 13 26 0 q 0 46 0 26 l 0 753 l 93 753 l 93 93 l 110 93 l 110 753 l 203 753 l 203 93 l 219 93 l 219 753 l 313 753 l 313 0 l 46 0 m 258 769 l 165 769 l 165 972 l 258 972 l 258 769 m 149 769 l 56 769 l 56 972 l 149 972 l 149 769 z "},"ẅ":{"ha":329,"x_min":0,"x_max":313,"o":"m 46 0 q 13 13 26 0 q 0 46 0 26 l 0 753 l 93 753 l 93 93 l 110 93 l 110 753 l 203 753 l 203 93 l 219 93 l 219 753 l 313 753 l 313 0 l 46 0 m 258 972 l 258 769 l 165 769 l 165 769 l 165 769 l 165 972 l 258 972 m 149 972 l 149 769 l 56 769 l 56 972 l 149 972 l 149 972 l 149 972 z "},"ỳ":{"ha":219,"x_min":0,"x_max":203,"o":"m 110 753 l 203 753 l 203 -174 q 189 -206 203 -193 q 156 -219 175 -219 l 46 -219 q 13 -206 26 -219 q 0 -174 0 -193 l 0 -17 l 93 -17 l 93 -126 l 110 -126 l 110 0 l 46 0 q 13 13 26 0 q 0 46 0 26 l 0 753 l 93 753 l 93 93 l 110 93 l 110 753 m 203 769 l 46 769 q 13 783 26 769 q 0 815 0 796 l 0 972 l 93 972 l 93 863 l 203 863 l 203 769 z "},"Ỳ":{"ha":219,"x_min":0,"x_max":203,"o":"m 149 0 l 56 0 l 56 331 l 46 331 q 13 344 26 331 q 0 376 0 357 l 0 753 l 93 753 l 93 424 l 110 424 l 110 753 l 203 753 l 203 376 q 190 344 203 357 q 157 331 176 331 l 149 331 l 149 0 m 203 769 l 46 769 q 13 783 26 769 q 0 815 0 796 l 0 972 l 93 972 l 93 863 l 203 863 l 203 769 z "},"‹":{"ha":165,"x_min":0,"x_max":149,"o":"m 149 221 l 46 221 q 13 234 26 221 q 0 267 0 247 l 0 486 q 13 519 0 506 q 46 533 26 533 l 149 533 l 149 440 l 93 440 l 93 314 l 149 314 l 149 221 z "},"›":{"ha":164,"x_min":0,"x_max":147,"o":"m 101 221 l 0 221 l 0 314 l 54 314 l 54 440 l 0 440 l 0 533 l 101 533 q 134 519 121 533 q 147 486 147 506 l 147 267 q 134 234 147 247 q 101 221 121 221 z "},"№":{"ha":550,"x_min":0,"x_max":533,"o":"m 488 972 q 520 959 507 972 q 533 926 533 946 l 533 596 q 520 563 533 576 q 488 550 507 550 l 376 550 q 344 563 357 550 q 331 596 331 576 l 331 926 q 344 959 331 946 q 376 972 357 972 l 488 972 m 440 879 l 424 879 l 424 643 l 440 643 l 440 879 m 331 440 l 331 533 l 533 533 l 533 440 l 331 440 l 331 440 m 313 0 l 157 0 q 124 14 138 0 q 110 47 110 28 l 110 879 l 93 879 l 93 0 l 0 0 l 0 972 l 157 972 q 190 959 176 972 q 203 926 203 946 l 203 93 l 219 93 l 219 972 l 313 972 l 313 0 z "},"B":{"ha":219,"x_min":0,"x_max":203,"o":"m 157 0 l 0 0 l 0 972 l 157 972 q 190 958 176 972 q 203 925 203 944 l 203 540 q 190 508 203 521 q 157 494 176 494 l 93 494 l 93 476 l 157 476 q 190 463 176 476 q 203 431 203 450 l 203 46 q 190 13 203 26 q 157 0 176 0 m 93 93 l 110 93 l 110 383 l 93 383 l 93 93 m 93 588 l 110 588 l 110 879 l 93 879 l 93 588 z "},"\u0001":{"ha":0,"x_min":0,"x_max":0,"o":""},"\r":{"ha":694,"x_min":0,"x_max":0,"o":""},"C":{"ha":219,"x_min":0,"x_max":203,"o":"m 46 0 q 13 13 26 0 q 0 46 0 26 l 0 925 q 13 958 0 944 q 46 972 26 972 l 157 972 q 190 958 176 972 q 203 925 203 944 l 203 494 l 110 494 l 110 879 l 93 879 l 93 93 l 110 93 l 110 478 l 203 478 l 203 46 q 190 13 203 26 q 157 0 176 0 l 46 0 l 46 0 z "}," ":{"ha":110,"x_min":0,"x_max":0,"o":""},"Ѐ":{"ha":219,"x_min":0,"x_max":203,"o":"m 203 0 l 0 0 l 0 753 l 203 753 l 203 440 l 110 440 l 110 660 l 93 660 l 93 424 l 203 424 l 203 331 l 93 331 l 93 93 l 110 93 l 110 314 l 203 314 l 203 0 m 203 769 l 46 769 q 13 783 26 769 q 0 815 0 796 l 0 972 l 93 972 l 93 863 l 203 863 l 203 769 z "},"Ё":{"ha":219,"x_min":0,"x_max":203,"o":"m 203 0 l 0 0 l 0 753 l 203 753 l 203 440 l 110 440 l 110 660 l 93 660 l 93 424 l 203 424 l 203 331 l 93 331 l 93 93 l 110 93 l 110 314 l 203 314 l 203 0 l 203 0 m 203 972 l 203 769 l 110 769 l 110 769 l 110 769 l 110 972 l 203 972 m 93 972 l 93 769 l 0 769 l 0 972 l 93 972 l 93 972 l 93 972 z "},"Ђ":{"ha":329,"x_min":0,"x_max":313,"o":"m 313 972 l 313 660 l 219 660 l 219 879 l 203 879 l 203 643 l 267 643 q 299 629 286 643 q 313 596 313 615 l 313 -64 q 299 -97 313 -83 q 267 -110 286 -110 l 165 -110 l 165 -17 l 219 -17 l 219 550 l 203 550 l 203 0 l 110 0 l 110 879 l 93 879 l 93 660 l 0 660 l 0 972 l 313 972 z "},"Ѓ":{"ha":219,"x_min":0,"x_max":203,"o":"m 93 0 l 0 0 l 0 753 l 203 753 l 203 660 l 93 660 l 93 0 m 203 972 l 203 815 q 190 783 203 796 q 157 769 176 769 l 0 769 l 0 863 l 110 863 l 110 972 l 203 972 z "},"Є":{"ha":219,"x_min":0,"x_max":203,"o":"m 46 0 q 13 13 26 0 q 0 46 0 26 l 0 439 l 0 532 l 0 925 q 13 958 0 944 q 46 972 26 972 l 157 972 q 190 958 176 972 q 203 925 203 944 l 203 550 l 110 550 l 110 879 l 93 879 l 93 532 l 203 532 l 203 439 l 93 439 l 93 93 l 110 93 l 110 422 l 203 422 l 203 46 q 190 13 203 26 q 157 0 176 0 l 46 0 l 46 0 z "},"Ѕ":{"ha":219,"x_min":0,"x_max":203,"o":"m 46 0 q 13 13 26 0 q 0 46 0 26 l 0 422 l 93 422 l 93 93 l 110 93 l 110 440 l 46 440 q 13 453 26 440 q 0 486 0 467 l 0 926 q 13 959 0 946 q 46 972 26 972 l 157 972 q 190 959 176 972 q 203 926 203 946 l 203 550 l 110 550 l 110 879 l 93 879 l 93 533 l 157 533 q 190 519 176 533 q 203 486 203 506 l 203 46 q 190 13 203 26 q 157 0 176 0 l 46 0 l 46 0 z "},"І":{"ha":329,"x_min":1,"x_max":314,"o":"m 314 0 l 1 0 l 1 478 l 94 478 l 94 93 l 111 93 l 111 879 l 94 879 l 94 494 l 1 494 l 1 972 l 314 972 l 314 494 l 221 494 l 221 879 l 204 879 l 204 93 l 221 93 l 221 478 l 314 478 l 314 0 z "},"Ї":{"ha":329,"x_min":0,"x_max":313,"o":"m 313 0 l 0 0 l 0 368 l 93 368 l 93 93 l 110 93 l 110 660 l 93 660 l 93 385 l 0 385 l 0 753 l 313 753 l 313 385 l 219 385 l 219 660 l 203 660 l 203 93 l 219 93 l 219 368 l 313 368 l 313 0 m 257 972 l 257 769 l 164 769 l 164 769 l 164 769 l 164 972 l 257 972 m 147 972 l 147 769 l 54 769 l 54 972 l 147 972 l 147 972 l 147 972 z "},"Ј":{"ha":219,"x_min":0,"x_max":203,"o":"m 157 0 l 47 0 q 14 14 28 0 q 0 47 0 28 l 0 478 l 93 478 l 93 93 l 110 93 l 110 879 l 93 879 l 93 769 l 0 769 l 0 972 l 203 972 l 203 47 q 190 14 203 28 q 157 0 176 0 z "},"Љ":{"ha":439,"x_min":0,"x_max":422,"o":"m 376 0 l 267 0 q 233 14 247 0 q 219 47 219 28 l 219 879 l 203 879 l 203 47 q 190 14 203 28 q 157 0 176 0 l 46 0 q 13 14 26 0 q 0 47 0 28 l 0 478 l 93 478 l 93 93 l 110 93 l 110 879 l 93 879 l 93 769 l 0 769 l 0 972 l 313 972 l 313 643 l 376 643 q 409 630 396 643 q 422 597 422 617 l 422 47 q 409 14 422 28 q 376 0 396 0 m 313 93 l 329 93 l 329 550 l 313 550 l 313 93 z "},"Њ":{"ha":329,"x_min":0,"x_max":313,"o":"m 93 0 l 0 0 l 0 972 l 93 972 l 93 532 l 110 532 l 110 972 l 203 972 l 203 643 l 267 643 q 299 629 286 643 q 313 596 313 615 l 313 46 q 299 13 313 26 q 267 0 286 0 l 110 0 l 110 439 l 93 439 l 93 0 m 203 93 l 219 93 l 219 550 l 203 550 l 203 93 z "},"Ћ":{"ha":329,"x_min":0,"x_max":313,"o":"m 313 0 l 219 0 l 219 550 l 203 550 l 203 0 l 110 0 l 110 879 l 93 879 l 93 660 l 0 660 l 0 972 l 313 972 l 313 660 l 219 660 l 219 879 l 203 879 l 203 643 l 267 643 q 299 629 286 643 q 313 596 313 615 l 313 0 z "},"Ќ":{"ha":219,"x_min":0,"x_max":203,"o":"m 203 0 l 110 0 l 110 275 l 93 275 l 93 0 l 0 0 l 0 753 l 93 753 l 93 478 l 110 478 l 110 753 l 203 753 l 203 431 q 190 398 203 411 q 157 385 176 385 l 93 385 l 93 368 l 157 368 q 190 354 176 368 q 203 321 203 340 l 203 0 m 203 972 l 203 815 q 190 783 203 796 q 157 769 176 769 l 0 769 l 0 863 l 110 863 l 110 972 l 203 972 z "},"Ѝ":{"ha":329,"x_min":0,"x_max":313,"o":"m 313 0 l 157 0 q 124 14 138 0 q 110 47 110 28 l 110 660 l 93 660 l 93 0 l 0 0 l 0 753 l 157 753 q 190 740 176 753 q 203 707 203 726 l 203 93 l 219 93 l 219 753 l 313 753 l 313 0 m 258 769 l 101 769 q 69 783 82 769 q 56 815 56 796 l 56 972 l 149 972 l 149 863 l 258 863 l 258 769 z "},"Ў":{"ha":219,"x_min":0,"x_max":203,"o":"m 157 0 l 46 0 q 13 14 26 0 q 0 47 0 28 l 0 314 l 93 314 l 93 93 l 110 93 l 110 331 l 46 331 q 13 344 26 331 q 0 376 0 357 l 0 753 l 93 753 l 93 424 l 110 424 l 110 753 l 203 753 l 203 47 q 190 14 203 28 q 157 0 176 0 m 0 972 l 93 972 l 93 863 l 110 863 l 110 972 l 203 972 l 203 817 q 190 783 203 797 q 157 769 176 769 l 46 769 q 13 783 26 769 q 0 817 0 797 l 0 972 z "},"Џ":{"ha":219,"x_min":0,"x_max":203,"o":"m 149 -110 l 56 -110 l 56 0 l 0 0 l 0 972 l 93 972 l 93 93 l 110 93 l 110 972 l 203 972 l 203 0 l 149 0 l 149 -110 l 149 -110 z "},"А":{"ha":219,"x_min":0,"x_max":203,"o":"m 157 972 q 190 958 176 972 q 203 925 203 944 l 203 532 l 203 439 l 203 0 l 110 0 l 110 439 l 93 439 l 93 0 l 0 0 l 0 439 l 0 532 l 0 925 q 13 958 0 944 q 46 972 26 972 l 157 972 m 110 532 l 110 879 l 93 879 l 93 532 l 110 532 z "},"Б":{"ha":219,"x_min":0,"x_max":203,"o":"m 157 0 l 46 0 q 13 14 26 0 q 0 47 0 28 l 0 926 q 13 959 0 946 q 46 972 26 972 l 203 972 l 203 879 l 93 879 l 93 751 l 157 751 q 190 738 176 751 q 203 706 203 725 l 203 47 q 190 14 203 28 q 157 0 176 0 m 93 93 l 110 93 l 110 658 l 93 658 l 93 93 z "},"В":{"ha":219,"x_min":0,"x_max":203,"o":"m 157 0 l 0 0 l 0 972 l 157 972 q 190 958 176 972 q 203 925 203 944 l 203 540 q 190 508 203 521 q 157 494 176 494 l 93 494 l 93 476 l 157 476 q 190 463 176 476 q 203 431 203 450 l 203 46 q 190 13 203 26 q 157 0 176 0 m 93 93 l 110 93 l 110 383 l 93 383 l 93 93 m 93 588 l 110 588 l 110 879 l 93 879 l 93 588 z "},"Г":{"ha":219,"x_min":0,"x_max":203,"o":"m 93 0 l 0 0 l 0 972 l 203 972 l 203 879 l 93 879 l 93 0 l 93 0 z "},"Д":{"ha":329,"x_min":0,"x_max":313,"o":"m 313 -110 l 219 -110 l 219 0 l 93 0 l 93 -110 l 0 -110 l 0 47 l 0 56 l 56 381 l 56 972 l 258 972 l 258 93 l 267 93 q 299 80 286 93 q 313 47 313 67 l 313 -110 m 101 93 l 165 93 l 165 879 l 149 879 l 149 376 q 148 372 149 374 q 147 368 147 371 l 101 93 z "},"Е":{"ha":219,"x_min":0,"x_max":203,"o":"m 203 0 l 0 0 l 0 972 l 203 972 l 203 550 l 110 550 l 110 879 l 93 879 l 93 533 l 203 533 l 203 440 l 93 440 l 93 93 l 110 93 l 110 422 l 203 422 l 203 0 l 203 0 z "},"Ж":{"ha":329,"x_min":0,"x_max":313,"o":"m 313 0 l 219 0 l 219 385 l 203 385 l 203 0 l 110 0 l 110 385 l 93 385 l 93 0 l 0 0 l 0 431 q 13 464 0 450 q 46 478 26 478 l 110 478 l 110 494 l 46 494 q 13 508 26 494 q 0 542 0 522 l 0 972 l 93 972 l 93 588 l 110 588 l 110 972 l 203 972 l 203 588 l 219 588 l 219 972 l 313 972 l 313 542 q 299 508 313 522 q 267 494 286 494 l 203 494 l 203 478 l 267 478 q 299 464 286 478 q 313 431 313 450 l 313 0 z "},"З":{"ha":219,"x_min":0,"x_max":203,"o":"m 157 972 q 190 959 176 972 q 203 926 203 946 l 203 533 l 203 440 l 203 46 q 190 13 203 26 q 157 0 176 0 l 46 0 q 13 13 26 0 q 0 46 0 26 l 0 422 l 93 422 l 93 93 l 110 93 l 110 440 l 0 440 l 0 533 l 110 533 l 110 879 l 93 879 l 93 550 l 0 550 l 0 926 q 13 959 0 946 q 46 972 26 972 l 157 972 l 157 972 z "},"И":{"ha":329,"x_min":0,"x_max":313,"o":"m 0 0 l 156 0 q 189 14 175 0 q 203 47 203 28 l 203 879 l 219 879 l 219 0 l 313 0 l 313 972 l 156 972 q 123 959 136 972 q 110 926 110 946 l 110 93 l 93 93 l 93 972 l 0 972 l 0 0 z "},"Й":{"ha":329,"x_min":0,"x_max":313,"o":"m 313 0 l 157 0 q 124 14 138 0 q 110 47 110 28 l 110 660 l 93 660 l 93 0 l 0 0 l 0 753 l 157 753 q 190 740 176 753 q 203 707 203 726 l 203 93 l 219 93 l 219 753 l 313 753 l 313 0 m 56 972 l 149 972 l 149 863 l 165 863 l 165 972 l 258 972 l 258 817 q 245 783 258 797 q 213 769 232 769 l 101 769 q 69 783 82 769 q 56 817 56 797 l 56 972 z "},"К":{"ha":219,"x_min":0,"x_max":203,"o":"m 93 0 l 0 0 l 0 385 l 0 478 l 0 494 l 0 588 l 0 972 l 93 972 l 93 588 l 110 588 l 110 972 l 203 972 l 203 542 q 190 508 203 522 q 157 494 176 494 l 93 494 l 93 478 l 157 478 q 190 464 176 478 q 203 431 203 450 l 203 0 l 110 0 l 110 385 l 93 385 l 93 0 z "},"Л":{"ha":275,"x_min":0,"x_max":258,"o":"m 258 0 l 165 0 l 165 879 l 149 879 l 149 47 q 135 14 149 28 q 101 0 121 0 l 0 0 l 0 93 l 56 93 l 56 972 l 258 972 l 258 0 z "},"М":{"ha":329,"x_min":0,"x_max":313,"o":"m 313 0 l 219 0 l 219 879 l 203 879 l 203 0 l 110 0 l 110 879 l 93 879 l 93 0 l 0 0 l 0 972 l 267 972 q 299 959 286 972 q 313 926 313 946 l 313 0 z "},"Н":{"ha":219,"x_min":0,"x_max":203,"o":"m 93 439 l 93 0 l 0 0 l 0 439 l 0 532 l 0 972 l 93 972 l 93 532 l 110 532 l 110 972 l 203 972 l 203 532 l 203 439 l 203 0 l 110 0 l 110 439 l 93 439 l 93 439 z "},"О":{"ha":219,"x_min":0,"x_max":203,"o":"m 46 0 q 13 13 26 0 q 0 46 0 26 l 0 926 q 13 959 0 946 q 46 972 26 972 l 157 972 q 190 959 176 972 q 203 926 203 946 l 203 46 q 190 13 203 26 q 157 0 176 0 l 46 0 m 93 93 l 110 93 l 110 879 l 93 879 l 93 93 z "},"П":{"ha":219,"x_min":0,"x_max":203,"o":"m 203 0 l 110 0 l 110 879 l 93 879 l 93 0 l 0 0 l 0 972 l 203 972 l 203 0 l 203 0 z "},"Р":{"ha":219,"x_min":0,"x_max":203,"o":"m 93 0 l 0 0 l 0 972 l 157 972 q 190 959 176 972 q 203 926 203 946 l 203 486 q 190 453 203 467 q 157 440 176 440 l 93 440 l 93 0 m 93 533 l 110 533 l 110 879 l 93 879 l 93 533 z "},"С":{"ha":219,"x_min":0,"x_max":203,"o":"m 46 0 q 13 13 26 0 q 0 46 0 26 l 0 925 q 13 958 0 944 q 46 972 26 972 l 157 972 q 190 958 176 972 q 203 925 203 944 l 203 494 l 110 494 l 110 879 l 93 879 l 93 93 l 110 93 l 110 478 l 203 478 l 203 46 q 190 13 203 26 q 157 0 176 0 l 46 0 l 46 0 z "},"Т":{"ha":329,"x_min":0,"x_max":313,"o":"m 203 0 l 110 0 l 110 879 l 93 879 l 93 494 l 0 494 l 0 972 l 313 972 l 313 494 l 219 494 l 219 879 l 203 879 l 203 0 l 203 0 z "},"У":{"ha":219,"x_min":0,"x_max":203,"o":"m 157 0 l 46 0 q 13 13 26 0 q 0 46 0 26 l 0 313 l 93 313 l 93 93 l 110 93 l 110 329 l 46 329 q 13 343 26 329 q 0 376 0 357 l 0 972 l 93 972 l 93 422 l 110 422 l 110 972 l 203 972 l 203 46 q 190 13 203 26 q 157 0 176 0 z "},"Ф":{"ha":329,"x_min":0,"x_max":313,"o":"m 267 863 q 299 849 286 863 q 313 815 313 835 l 313 157 q 299 124 313 138 q 267 110 286 110 l 203 110 l 203 0 l 110 0 l 110 110 l 46 110 q 13 124 26 110 q 0 157 0 138 l 0 815 q 13 849 0 835 q 46 863 26 863 l 110 863 l 110 972 l 203 972 l 203 863 l 267 863 m 110 203 l 110 769 l 93 769 l 93 203 l 110 203 m 219 769 l 203 769 l 203 203 l 219 203 l 219 769 z "},"Х":{"ha":219,"x_min":0,"x_max":203,"o":"m 110 972 l 203 972 l 203 542 q 190 508 203 522 q 157 494 176 494 l 149 494 l 149 478 l 157 478 q 190 464 176 478 q 203 431 203 450 l 203 0 l 110 0 l 110 385 l 93 385 l 93 0 l 0 0 l 0 431 q 13 464 0 450 q 46 478 26 478 l 56 478 l 56 494 l 46 494 q 13 508 26 494 q 0 542 0 522 l 0 972 l 93 972 l 93 588 l 110 588 l 110 972 z "},"Ц":{"ha":275,"x_min":0,"x_max":258,"o":"m 258 -110 l 165 -110 l 165 0 l 0 0 l 0 972 l 93 972 l 93 93 l 110 93 l 110 972 l 203 972 l 203 93 l 211 93 q 244 79 231 93 q 258 46 258 65 l 258 -110 z "},"Ч":{"ha":219,"x_min":0,"x_max":203,"o":"m 110 0 l 110 329 l 46 329 q 13 343 26 329 q 0 376 0 357 l 0 972 l 93 972 l 93 422 l 110 422 l 110 972 l 203 972 l 203 0 l 110 0 z "},"Ш":{"ha":329,"x_min":0,"x_max":313,"o":"m 313 0 l 0 0 l 0 972 l 93 972 l 93 93 l 110 93 l 110 972 l 203 972 l 203 93 l 219 93 l 219 972 l 313 972 l 313 0 l 313 0 z "},"Щ":{"ha":385,"x_min":0,"x_max":368,"o":"m 368 -110 l 275 -110 l 275 0 l 0 0 l 0 972 l 93 972 l 93 93 l 110 93 l 110 972 l 203 972 l 203 93 l 219 93 l 219 972 l 313 972 l 313 93 l 321 93 q 354 79 340 93 q 368 46 368 65 l 368 -110 z "},"Ъ":{"ha":275,"x_min":0,"x_max":258,"o":"m 211 0 l 56 0 l 56 879 l 0 879 l 0 972 l 149 972 l 149 753 l 211 753 q 244 739 231 753 q 258 706 258 725 l 258 46 q 244 13 258 26 q 211 0 231 0 m 149 93 l 165 93 l 165 660 l 149 660 l 149 93 z "},"Ы":{"ha":329,"x_min":0,"x_max":313,"o":"m 157 0 l 0 0 l 0 972 l 93 972 l 93 753 l 157 753 q 190 739 176 753 q 203 706 203 725 l 203 46 q 190 13 203 26 q 157 0 176 0 m 93 93 l 110 93 l 110 660 l 93 660 l 93 93 m 219 0 l 219 972 l 313 972 l 313 0 l 219 0 l 219 0 z "},"Ь":{"ha":219,"x_min":0,"x_max":203,"o":"m 157 0 l 0 0 l 0 972 l 93 972 l 93 753 l 157 753 q 190 739 176 753 q 203 706 203 725 l 203 46 q 190 13 203 26 q 157 0 176 0 m 93 93 l 110 93 l 110 660 l 93 660 l 93 93 z "},"Э":{"ha":219,"x_min":0,"x_max":203,"o":"m 157 0 q 190 13 176 0 q 203 46 203 26 l 203 439 l 203 532 l 203 925 q 190 958 203 944 q 157 972 176 972 l 46 972 q 13 958 26 972 q 0 925 0 944 l 0 550 l 93 550 l 93 879 l 110 879 l 110 532 l 0 532 l 0 439 l 110 439 l 110 93 l 93 93 l 93 422 l 0 422 l 0 46 q 13 13 0 26 q 46 0 26 0 l 157 0 l 157 0 z "},"Ю":{"ha":329,"x_min":0,"x_max":313,"o":"m 267 0 l 157 0 q 124 13 138 0 q 110 46 110 26 l 110 439 l 93 439 l 93 0 l 0 0 l 0 972 l 93 972 l 93 532 l 110 532 l 110 925 q 124 958 110 944 q 157 972 138 972 l 267 972 q 299 958 286 972 q 313 925 313 944 l 313 46 q 299 13 313 26 q 267 0 286 0 m 203 93 l 219 93 l 219 879 l 203 879 l 203 93 z "},"Я":{"ha":219,"x_min":0,"x_max":203,"o":"m 0 0 l 93 0 l 93 385 l 110 385 l 110 0 l 203 0 l 203 972 l 46 972 q 13 959 26 972 q 0 926 0 946 l 0 542 q 13 508 0 522 q 46 494 26 494 l 110 494 l 110 478 l 46 478 q 13 464 26 478 q 0 431 0 450 l 0 0 m 110 588 l 93 588 l 93 879 l 110 879 l 110 588 z "},"а":{"ha":219,"x_min":0,"x_max":203,"o":"m 203 0 l 46 0 q 13 13 26 0 q 0 46 0 26 l 0 376 q 13 409 0 396 q 46 422 26 422 l 110 422 l 110 660 l 93 660 l 93 439 l 0 439 l 0 706 q 13 739 0 725 q 46 753 26 753 l 157 753 q 190 739 176 753 q 203 706 203 725 l 203 0 m 93 93 l 110 93 l 110 329 l 93 329 l 93 93 z "},"б":{"ha":219,"x_min":0,"x_max":203,"o":"m 157 0 l 46 0 q 13 13 26 0 q 0 46 0 26 l 0 925 q 13 958 0 944 q 46 972 26 972 l 203 972 l 203 879 l 93 879 l 93 751 l 157 751 q 190 738 176 751 q 203 706 203 725 l 203 46 q 190 13 203 26 q 157 0 176 0 m 93 93 l 110 93 l 110 658 l 93 658 l 93 93 z "},"в":{"ha":219,"x_min":0,"x_max":203,"o":"m 157 0 l 0 0 l 0 753 l 157 753 q 190 739 176 753 q 203 706 203 725 l 203 431 q 190 398 203 411 q 157 385 176 385 l 93 385 l 93 368 l 157 368 q 190 354 176 368 q 203 321 203 340 l 203 46 q 190 13 203 26 q 157 0 176 0 m 93 93 l 110 93 l 110 275 l 93 275 l 93 93 m 93 478 l 110 478 l 110 660 l 93 660 l 93 478 z "},"г":{"ha":219,"x_min":0,"x_max":203,"o":"m 93 0 l 0 0 l 0 753 l 203 753 l 203 660 l 93 660 l 93 0 l 93 0 z "},"д":{"ha":329,"x_min":0,"x_max":313,"o":"m 313 -110 l 219 -110 l 219 0 l 93 0 l 93 -110 l 0 -110 l 0 46 l 0 47 l 0 56 l 56 381 l 56 753 l 258 753 l 258 93 l 267 93 q 299 79 286 93 q 313 46 313 65 l 313 -110 m 101 93 l 165 93 l 165 660 l 149 660 l 149 376 q 148 372 149 374 q 147 368 147 371 l 101 93 z "},"е":{"ha":219,"x_min":0,"x_max":203,"o":"m 157 0 l 46 0 q 13 13 26 0 q 0 46 0 26 l 0 706 q 13 739 0 725 q 46 753 26 753 l 157 753 q 190 739 176 753 q 203 706 203 725 l 203 329 l 93 329 l 93 93 l 110 93 l 110 313 l 203 313 l 203 46 q 190 13 203 26 q 157 0 176 0 m 93 422 l 110 422 l 110 660 l 93 660 l 93 422 z "},"ж":{"ha":329,"x_min":0,"x_max":313,"o":"m 313 0 l 219 0 l 219 275 l 203 275 l 203 0 l 110 0 l 110 275 l 93 275 l 93 0 l 0 0 l 0 321 q 13 354 0 340 q 46 368 26 368 l 110 368 l 110 385 l 46 385 q 13 399 26 385 q 0 432 0 413 l 0 753 l 93 753 l 93 478 l 110 478 l 110 753 l 203 753 l 203 478 l 219 478 l 219 753 l 313 753 l 313 432 q 299 399 313 413 q 267 385 286 385 l 203 385 l 203 368 l 267 368 q 299 354 286 368 q 313 321 313 340 l 313 0 z "},"з":{"ha":219,"x_min":0,"x_max":203,"o":"m 157 0 l 46 0 q 13 13 26 0 q 0 46 0 26 l 0 313 l 93 313 l 93 93 l 110 93 l 110 329 l 0 329 l 0 422 l 110 422 l 110 660 l 93 660 l 93 439 l 0 439 l 0 707 q 13 740 0 726 q 46 753 26 753 l 157 753 q 190 740 176 753 q 203 707 203 726 l 203 46 q 190 13 203 26 q 157 0 176 0 z "},"и":{"ha":329,"x_min":0,"x_max":313,"o":"m 313 0 l 219 0 l 219 660 l 203 660 l 203 46 q 189 13 203 26 q 156 0 175 0 l 0 0 l 0 753 l 93 753 l 93 93 l 110 93 l 110 707 q 123 740 110 726 q 156 753 136 753 l 313 753 l 313 0 z "},"й":{"ha":329,"x_min":0,"x_max":313,"o":"m 313 0 l 219 0 l 219 660 l 203 660 l 203 46 q 189 13 203 26 q 156 0 175 0 l 0 0 l 0 753 l 93 753 l 93 93 l 110 93 l 110 707 q 123 740 110 726 q 156 753 136 753 l 313 753 l 313 0 m 56 972 l 149 972 l 149 863 l 165 863 l 165 972 l 258 972 l 258 817 q 245 783 258 797 q 213 769 232 769 l 101 769 q 69 783 82 769 q 56 817 56 797 l 56 972 z "},"к":{"ha":219,"x_min":0,"x_max":203,"o":"m 203 0 l 110 0 l 110 275 l 93 275 l 93 0 l 0 0 l 0 753 l 93 753 l 93 478 l 110 478 l 110 753 l 203 753 l 203 432 q 190 399 203 413 q 157 385 176 385 l 93 385 l 93 368 l 157 368 q 190 354 176 368 q 203 321 203 340 l 203 0 z "},"л":{"ha":274,"x_min":0,"x_max":257,"o":"m 257 0 l 164 0 l 164 660 l 147 660 l 147 46 q 134 13 147 26 q 101 0 121 0 l 0 0 l 0 93 l 54 93 l 54 753 l 257 753 l 257 0 z "},"м":{"ha":329,"x_min":0,"x_max":313,"o":"m 313 0 l 219 0 l 219 660 l 203 660 l 203 0 l 110 0 l 110 660 l 93 660 l 93 0 l 0 0 l 0 753 l 267 753 q 299 740 286 753 q 313 707 313 726 l 313 0 z "},"н":{"ha":219,"x_min":0,"x_max":203,"o":"m 203 0 l 110 0 l 110 329 l 93 329 l 93 0 l 0 0 l 0 753 l 93 753 l 93 422 l 110 422 l 110 753 l 203 753 l 203 0 l 203 0 z "},"о":{"ha":219,"x_min":0,"x_max":203,"o":"m 203 46 q 189 13 203 26 q 156 0 175 0 l 46 0 q 13 13 26 0 q 0 46 0 26 l 0 706 q 13 739 0 725 q 46 753 26 753 l 156 753 q 189 739 175 753 q 203 706 203 725 l 203 46 m 110 660 l 93 660 l 93 93 l 110 93 l 110 660 z "},"п":{"ha":219,"x_min":0,"x_max":203,"o":"m 203 0 l 110 0 l 110 660 l 93 660 l 93 0 l 0 0 l 0 753 l 203 753 l 203 0 l 203 0 z "},"р":{"ha":219,"x_min":0,"x_max":203,"o":"m 93 -219 l 0 -219 l 0 753 l 157 753 q 190 739 176 753 q 203 706 203 725 l 203 46 q 190 13 203 26 q 157 0 176 0 l 93 0 l 93 -219 m 93 93 l 110 93 l 110 660 l 93 660 l 93 93 z "},"с":{"ha":219,"x_min":0,"x_max":203,"o":"m 157 0 l 46 0 q 13 13 26 0 q 0 46 0 26 l 0 706 q 13 739 0 725 q 46 753 26 753 l 157 753 q 190 739 176 753 q 203 706 203 725 l 203 385 l 110 385 l 110 660 l 93 660 l 93 93 l 110 93 l 110 368 l 203 368 l 203 46 q 190 13 203 26 q 157 0 176 0 z "},"т":{"ha":329,"x_min":0,"x_max":313,"o":"m 203 0 l 110 0 l 110 660 l 93 660 l 93 385 l 0 385 l 0 753 l 313 753 l 313 385 l 219 385 l 219 660 l 203 660 l 203 0 l 203 0 z "},"у":{"ha":219,"x_min":0,"x_max":203,"o":"m 110 753 l 203 753 l 203 -174 q 189 -206 203 -193 q 156 -219 175 -219 l 46 -219 q 13 -206 26 -219 q 0 -174 0 -193 l 0 -17 l 93 -17 l 93 -126 l 110 -126 l 110 0 l 46 0 q 13 13 26 0 q 0 46 0 26 l 0 753 l 93 753 l 93 93 l 110 93 l 110 753 z "},"ф":{"ha":329,"x_min":0,"x_max":313,"o":"m 203 -219 l 110 -219 l 110 0 l 46 0 q 13 13 26 0 q 0 46 0 26 l 0 707 q 13 740 0 726 q 46 753 26 753 l 110 753 l 110 972 l 203 972 l 203 753 l 267 753 q 299 740 286 753 q 313 707 313 726 l 313 46 q 299 13 313 26 q 267 0 286 0 l 203 0 l 203 -219 m 203 93 l 219 93 l 219 660 l 203 660 l 203 93 m 93 93 l 110 93 l 110 660 l 93 660 l 93 93 z "},"х":{"ha":219,"x_min":0,"x_max":203,"o":"m 203 0 l 110 0 l 110 275 l 93 275 l 93 0 l 0 0 l 0 321 q 13 354 0 340 q 46 368 26 368 l 56 368 l 56 385 l 46 385 q 13 398 26 385 q 0 431 0 411 l 0 753 l 93 753 l 93 478 l 110 478 l 110 753 l 203 753 l 203 431 q 190 398 203 411 q 157 385 176 385 l 149 385 l 149 368 l 157 368 q 190 354 176 368 q 203 321 203 340 l 203 0 z "},"ц":{"ha":275,"x_min":0,"x_max":258,"o":"m 258 -110 l 165 -110 l 165 0 l 0 0 l 0 753 l 93 753 l 93 93 l 110 93 l 110 753 l 203 753 l 203 93 l 211 93 q 244 79 231 93 q 258 46 258 65 l 258 -110 z "},"ч":{"ha":219,"x_min":0,"x_max":203,"o":"m 203 0 l 110 0 l 110 329 l 47 329 q 14 342 28 329 q 0 375 0 356 l 0 753 l 93 753 l 93 422 l 110 422 l 110 753 l 203 753 l 203 0 z "},"ш":{"ha":329,"x_min":0,"x_max":313,"o":"m 313 0 l 0 0 l 0 753 l 93 753 l 93 93 l 110 93 l 110 753 l 203 753 l 203 93 l 219 93 l 219 753 l 313 753 l 313 0 l 313 0 z "},"щ":{"ha":385,"x_min":0,"x_max":368,"o":"m 368 -110 l 275 -110 l 275 0 l 0 0 l 0 753 l 93 753 l 93 93 l 110 93 l 110 753 l 203 753 l 203 93 l 219 93 l 219 753 l 313 753 l 313 93 l 321 93 q 354 79 340 93 q 368 46 368 65 l 368 -110 z "},"ъ":{"ha":275,"x_min":0,"x_max":258,"o":"m 210 0 l 54 0 l 56 660 l 0 660 l 0 753 l 149 753 l 149 533 l 211 533 q 244 519 231 533 q 258 486 258 506 l 257 46 q 243 13 257 26 q 210 0 229 0 m 149 93 l 165 93 l 167 440 l 150 440 l 149 93 z "},"ы":{"ha":329,"x_min":0,"x_max":313,"o":"m 219 0 l 219 753 l 313 753 l 313 0 l 219 0 l 219 0 m 157 0 l 0 0 l 0 753 l 93 753 l 93 533 l 157 533 q 190 519 176 533 q 203 486 203 506 l 203 46 q 190 13 203 26 q 157 0 176 0 m 93 93 l 110 93 l 110 440 l 93 440 l 93 93 z "},"ь":{"ha":219,"x_min":0,"x_max":203,"o":"m 157 0 l 0 0 l 0 753 l 93 753 l 93 533 l 157 533 q 190 519 176 533 q 203 486 203 506 l 203 46 q 190 13 203 26 q 157 0 176 0 m 93 93 l 110 93 l 110 440 l 93 440 l 93 93 z "},"э":{"ha":219,"x_min":0,"x_max":203,"o":"m 157 0 q 190 13 176 0 q 203 46 203 26 l 203 707 q 190 740 203 726 q 157 753 176 753 l 46 753 q 13 740 26 753 q 0 707 0 726 l 0 439 l 93 439 l 93 660 l 110 660 l 110 422 l 0 422 l 0 329 l 110 329 l 110 93 l 93 93 l 93 313 l 0 313 l 0 46 q 13 13 0 26 q 46 0 26 0 l 157 0 z "},"ю":{"ha":329,"x_min":0,"x_max":313,"o":"m 267 0 l 157 0 q 124 13 138 0 q 110 46 110 26 l 110 329 l 93 329 l 93 0 l 0 0 l 0 753 l 93 753 l 93 422 l 110 422 l 110 707 q 124 740 110 726 q 157 753 138 753 l 267 753 q 299 740 286 753 q 313 707 313 726 l 313 46 q 299 13 313 26 q 267 0 286 0 m 203 93 l 219 93 l 219 660 l 203 660 l 203 93 z "},"я":{"ha":219,"x_min":0,"x_max":203,"o":"m 203 0 l 110 0 l 110 275 l 93 275 l 93 0 l 0 0 l 0 322 q 13 355 0 342 q 46 368 26 368 l 110 368 l 110 385 l 46 385 q 13 399 26 385 q 0 432 0 413 l 0 706 q 13 739 0 725 q 46 753 26 753 l 203 753 l 203 0 m 93 478 l 110 478 l 110 660 l 93 660 l 93 478 z "},"ѐ":{"ha":219,"x_min":0,"x_max":203,"o":"m 157 0 l 46 0 q 13 13 26 0 q 0 46 0 26 l 0 706 q 13 739 0 725 q 46 753 26 753 l 157 753 q 190 739 176 753 q 203 706 203 725 l 203 329 l 93 329 l 93 93 l 110 93 l 110 313 l 203 313 l 203 46 q 190 13 203 26 q 157 0 176 0 m 93 422 l 110 422 l 110 660 l 93 660 l 93 422 m 203 769 l 46 769 q 13 783 26 769 q 0 815 0 796 l 0 972 l 93 972 l 93 863 l 203 863 l 203 769 z "},"ё":{"ha":219,"x_min":0,"x_max":203,"o":"m 157 0 l 46 0 q 13 13 26 0 q 0 46 0 26 l 0 706 q 13 739 0 725 q 46 753 26 753 l 157 753 q 190 739 176 753 q 203 706 203 725 l 203 329 l 93 329 l 93 93 l 110 93 l 110 313 l 203 313 l 203 46 q 190 13 203 26 q 157 0 176 0 m 93 422 l 110 422 l 110 660 l 93 660 l 93 422 m 203 972 l 203 769 l 110 769 l 110 769 l 110 769 l 110 972 l 203 972 m 93 972 l 93 769 l 0 769 l 0 972 l 93 972 l 93 972 l 93 972 z "},"ђ":{"ha":275,"x_min":0,"x_max":258,"o":"m 211 -110 l 110 -110 l 110 -17 l 165 -17 l 165 549 l 149 549 l 149 0 l 56 0 l 56 658 l 0 658 l 0 751 l 56 751 l 56 972 l 149 972 l 149 751 l 203 751 l 203 658 l 149 658 l 149 642 l 211 642 q 244 628 231 642 q 258 596 258 615 l 258 -62 q 244 -96 258 -82 q 211 -110 231 -110 z "},"ѓ":{"ha":219,"x_min":0,"x_max":203,"o":"m 93 0 l 0 0 l 0 753 l 203 753 l 203 660 l 93 660 l 93 0 l 93 0 m 203 972 l 203 815 q 190 783 203 796 q 157 769 176 769 l 0 769 l 0 863 l 110 863 l 110 972 l 203 972 z "},"є":{"ha":219,"x_min":0,"x_max":203,"o":"m 46 0 q 13 13 26 0 q 0 46 0 26 l 0 707 q 13 740 0 726 q 46 753 26 753 l 157 753 q 190 740 176 753 q 203 707 203 726 l 203 439 l 110 439 l 110 660 l 93 660 l 93 422 l 203 422 l 203 329 l 93 329 l 93 93 l 110 93 l 110 313 l 203 313 l 203 46 q 190 13 203 26 q 157 0 176 0 l 46 0 z "},"ѕ":{"ha":219,"x_min":0,"x_max":203,"o":"m 157 0 l 46 0 q 13 13 26 0 q 0 46 0 26 l 0 313 l 93 313 l 93 93 l 110 93 l 110 329 l 46 329 q 13 343 26 329 q 0 376 0 357 l 0 706 q 13 739 0 725 q 46 753 26 753 l 157 753 q 190 739 176 753 q 203 706 203 725 l 203 439 l 110 439 l 110 660 l 93 660 l 93 422 l 157 422 q 190 409 176 422 q 203 376 203 396 l 203 46 q 190 13 203 26 q 157 0 176 0 z "},"і":{"ha":110,"x_min":0,"x_max":93,"o":"m 0 0 l 0 753 l 93 753 l 93 0 l 0 0 m 93 972 l 93 769 l 0 769 l 0 972 l 93 972 z "},"ї":{"ha":219,"x_min":0,"x_max":203,"o":"m 56 0 l 56 753 l 149 753 l 149 0 l 56 0 l 56 0 m 203 972 l 203 769 l 110 769 l 110 769 l 110 769 l 110 972 l 203 972 m 93 972 l 93 769 l 0 769 l 0 972 l 93 972 l 93 972 l 93 972 z "},"ј":{"ha":110,"x_min":-110,"x_max":93,"o":"m 93 -172 q 80 -206 93 -192 q 47 -219 67 -219 l -64 -219 q -97 -206 -83 -219 q -110 -172 -110 -192 l -110 -17 l -17 -17 l -17 -126 l 0 -126 l 0 753 l 93 753 l 93 -172 m 0 972 l 93 972 l 93 771 l 0 771 l 0 972 z "},"љ":{"ha":385,"x_min":0,"x_max":368,"o":"m 322 0 l 165 0 l 165 660 l 149 660 l 149 47 q 135 14 149 28 q 103 0 122 0 l 0 0 l 0 93 l 56 93 l 56 753 l 258 753 l 258 533 l 322 533 q 355 519 342 533 q 368 486 368 506 l 368 47 q 355 14 368 28 q 322 0 342 0 m 258 93 l 275 93 l 275 440 l 258 440 l 258 93 z "},"њ":{"ha":329,"x_min":0,"x_max":313,"o":"m 267 0 l 110 0 l 110 329 l 93 329 l 93 0 l 0 0 l 0 753 l 93 753 l 93 422 l 110 422 l 110 753 l 203 753 l 203 533 l 267 533 q 299 519 286 533 q 313 486 313 506 l 313 46 q 299 13 313 26 q 267 0 286 0 m 203 93 l 219 93 l 219 440 l 203 440 l 203 93 z "},"ћ":{"ha":275,"x_min":0,"x_max":258,"o":"m 258 0 l 165 0 l 165 660 l 149 660 l 149 0 l 56 0 l 56 769 l 0 769 l 0 863 l 56 863 l 56 972 l 149 972 l 149 863 l 203 863 l 203 769 l 149 769 l 149 753 l 211 753 q 244 739 231 753 q 258 706 258 725 l 258 0 z "},"ќ":{"ha":219,"x_min":0,"x_max":203,"o":"m 203 0 l 110 0 l 110 275 l 93 275 l 93 0 l 0 0 l 0 753 l 93 753 l 93 478 l 110 478 l 110 753 l 203 753 l 203 432 q 190 399 203 413 q 157 385 176 385 l 93 385 l 93 368 l 157 368 q 190 354 176 368 q 203 321 203 340 l 203 0 m 203 972 l 203 815 q 190 783 203 796 q 157 769 176 769 l 0 769 l 0 863 l 110 863 l 110 972 l 203 972 z "},"ѝ":{"ha":329,"x_min":0,"x_max":313,"o":"m 313 0 l 219 0 l 219 660 l 203 660 l 203 46 q 189 13 203 26 q 156 0 175 0 l 0 0 l 0 753 l 93 753 l 93 93 l 110 93 l 110 707 q 123 740 110 726 q 156 753 136 753 l 313 753 l 313 0 m 258 769 l 101 769 q 69 783 82 769 q 56 815 56 796 l 56 972 l 149 972 l 149 863 l 258 863 l 258 769 z "},"ў":{"ha":219,"x_min":0,"x_max":203,"o":"m 110 753 l 203 753 l 203 -174 q 189 -206 203 -193 q 156 -219 175 -219 l 46 -219 q 13 -206 26 -219 q 0 -174 0 -193 l 0 -17 l 93 -17 l 93 -126 l 110 -126 l 110 0 l 46 0 q 13 13 26 0 q 0 46 0 26 l 0 753 l 93 753 l 93 93 l 110 93 l 110 753 m 0 972 l 93 972 l 93 863 l 110 863 l 110 972 l 203 972 l 203 817 q 190 783 203 797 q 157 769 176 769 l 46 769 q 13 783 26 769 q 0 817 0 797 l 0 972 z "},"џ":{"ha":219,"x_min":0,"x_max":203,"o":"m 149 -110 l 56 -110 l 56 0 l 0 0 l 0 753 l 93 753 l 93 93 l 110 93 l 110 753 l 203 753 l 203 0 l 149 0 l 149 -110 l 149 -110 z "},"Ґ":{"ha":219,"x_min":0,"x_max":203,"o":"m 93 0 l 0 0 l 0 918 l 110 918 l 110 972 l 203 972 l 203 825 l 93 825 l 93 0 l 93 0 z "},"ґ":{"ha":219,"x_min":0,"x_max":203,"o":"m 93 0 l 0 0 l 0 753 l 110 753 l 110 808 l 203 808 l 203 660 l 93 660 l 93 0 l 93 0 z "},"":{"ha":0,"x_min":0,"x_max":0,"o":""}}}
